<svg width="180" height="180" viewBox="0 0 180 180" fill="none" xmlns="http://www.w3.org/2000/svg">
<circle cx="90" cy="90" r="90" fill="url(#paint0_radial_2770_20697)"/>
<circle opacity="0.15" cx="90" cy="90" r="60" fill="url(#paint1_linear_2770_20697)"/>
<path d="M71.1306 81.5445C71.1306 81.5445 77.5378 65.0941 91.1375 64.1957C93.3181 64.0516 94.8256 66.3338 93.8309 68.2798C92.0362 71.7904 90.5447 77.7507 94.0622 85.8323L71.1306 81.5445Z" fill="#137DA6"/>
<path d="M12.5347 90.0657C20.2009 80.5747 33.7981 66.6628 74.2016 79.2891C122.822 94.4828 129.662 68.1269 131.516 55.9885C125.213 53.7572 117.822 49.7016 116.713 42.7791C115.505 35.2344 119.231 31.1719 122.007 29.2454C122.985 28.5672 124.305 29.3882 124.142 30.5669C123.646 34.1522 123.953 39.876 131.116 39.4425C138.533 38.9938 141.317 41.1616 142.356 42.9907C142.712 43.6188 143.58 43.7182 144.082 43.1991C145.487 41.7463 148.614 40.501 155.518 43.0554C162.248 45.5454 164.2 40.1563 164.764 36.581C164.95 35.4057 166.451 35.0025 167.191 35.9347C169.29 38.5832 171.679 43.551 168.337 50.4219C164.623 58.0557 153.312 58.9979 146.39 58.81C145.95 62.4385 143.532 79.7488 135.702 96.9291L87.6803 131.465L10.3912 94.291C10.7953 92.776 11.5115 91.3329 12.5347 90.0657Z" fill="#48C1ED"/>
<path d="M167.192 35.9344C166.453 35.0023 164.951 35.4054 164.765 36.5807C164.347 39.2319 163.163 42.8769 159.837 43.571C159.774 43.7079 159.713 43.8444 159.645 43.9829C157.187 49.0369 151.398 51.1579 145.758 51.9598C141.028 52.6319 137.235 56.1882 136.312 60.8757C133.943 72.9095 128.148 94.2801 115.144 109.749H122.97L135.703 96.9288C143.533 79.7488 145.951 62.4385 146.391 58.8101C153.313 58.9979 164.624 58.0557 168.338 50.4219C171.68 43.5507 169.291 38.5826 167.192 35.9344Z" fill="#2FA4D1"/>
<path d="M50.5081 115.197C50.5081 115.197 58.0216 149.206 79.6291 151.475C81.4331 151.664 82.8137 149.895 82.2275 148.178C80.2166 142.29 75.5322 129.579 68.7353 117.248" fill="#2FA4D1"/>
<path d="M86.5472 111.275C103.02 111.084 120.45 106.063 135.702 96.9282C127.86 114.138 114.589 131.217 92.4394 134.283C49.9116 140.169 21.5009 122.63 11.2209 102.381C9.92969 99.8373 9.67906 96.952 10.3913 94.2913C41.4247 93.0963 62.4172 111.556 86.5472 111.275Z" fill="#EDFCFB"/>
<path d="M118.739 105.08C110.729 116.42 99.4784 125.667 83.7472 127.844C58.0934 131.395 37.5797 126.42 23.0809 117.469C37.4866 130.257 61.1387 138.615 92.4397 134.283C114.59 131.217 127.86 114.138 135.702 96.9285C130.277 100.178 124.575 102.903 118.739 105.08Z" fill="#CFFBFB"/>
<path d="M77.5494 100.88C77.5494 100.88 90.8966 139.913 116.62 139.003C118.398 138.941 119.522 137.062 118.768 135.451C115.836 129.191 108.629 114.658 98.8803 100.88" fill="#48C1ED"/>
<path d="M70.5 92.3446C71.2228 89.3002 68.0479 85.9394 63.4086 84.838C58.7694 83.7366 54.4227 85.3117 53.6999 88.3561C52.9772 91.4004 56.1521 94.7613 60.7913 95.8627C65.4305 96.9641 69.7772 95.389 70.5 92.3446Z" fill="#EDFCFB"/>
<path d="M41.8181 89.9163C40.9375 89.9163 40.0687 89.6075 39.3862 89.0322C38.3662 88.1729 38.2365 86.6497 39.0956 85.63C39.8431 84.7425 41.094 84.5291 42.0778 85.0547H42.1103C43.2131 85.0547 44.2087 85.815 44.4628 86.936C44.7578 88.2366 43.9422 89.5297 42.6418 89.8247C42.37 89.886 42.0934 89.9163 41.8181 89.9163ZM42.4968 85.3385C42.4975 85.3388 42.4978 85.3394 42.4981 85.3397C42.4978 85.3391 42.4975 85.3388 42.4968 85.3385Z" fill="#2FA4D1"/>
<path d="M63 59C76.2548 59 87 48.2548 87 35C87 21.7452 76.2548 11 63 11C49.7452 11 39 21.7452 39 35C39 48.2548 49.7452 59 63 59Z" fill="#E24C4B"/>
<path d="M86.9999 35C86.9999 48.2 76.1999 59 62.9999 59C55.3499 59 48.5999 55.55 44.2499 50.0001C48.2999 53.3001 53.5499 55.2501 59.2498 55.2501C72.4498 55.2501 83.2498 44.4501 83.2498 31.2501C83.2498 25.5501 81.2998 20.3001 77.9998 16.2501C83.5499 20.6 86.9999 27.3499 86.9999 35Z" fill="#D1403F"/>
<path d="M73.9499 45.95C73.0499 46.85 71.5498 46.85 70.6499 45.95L62.9999 38.3001L55.35 45.95C54.45 46.85 52.9499 46.85 52.05 45.95C51.15 45.05 51.15 43.55 52.05 42.65L59.6999 35L52.05 27.3501C51.15 26.4501 51.15 24.9501 52.05 24.0501C52.9499 23.1501 54.45 23.1501 55.35 24.0501L62.9999 31.7L70.6499 24.0501C71.5498 23.1501 73.0499 23.1501 73.9499 24.0501C74.8498 24.9501 74.8498 26.4501 73.9499 27.3501L66.2999 35L73.9499 42.65C74.8498 43.55 74.8498 45.0499 73.9499 45.95Z" fill="white"/>
<defs>
<radialGradient id="paint0_radial_2770_20697" cx="0" cy="0" r="1" gradientUnits="userSpaceOnUse" gradientTransform="translate(90 90) rotate(92.5448) scale(90.0888)">
<stop offset="0.375" stop-color="#A3F1F7" stop-opacity="0.5"/>
<stop offset="1" stop-color="#A3F1F7" stop-opacity="0"/>
</radialGradient>
<linearGradient id="paint1_linear_2770_20697" x1="4.8" y1="212.4" x2="163.343" y2="199.952" gradientUnits="userSpaceOnUse">
<stop stop-color="#74FCF2"/>
<stop offset="1" stop-color="#4EC4F0"/>
</linearGradient>
</defs>
</svg>
