<svg width="16" height="16" viewBox="0 0 16 16" fill="none" xmlns="http://www.w3.org/2000/svg">
<path d="M14 4.00001C14 5.90001 11.1333 7.33334 7.33334 7.33334C3.53333 7.33334 0.666664 5.90001 0.666664 4.00001C0.666664 2.10001 3.53333 0.666672 7.33334 0.666672C11.1333 0.666672 14 2.10001 14 4.00001ZM8.66667 14C5.83333 14 3.41333 13.2667 2 12.0333C2.04 13.92 4.88667 15.3333 8.66667 15.3333C12.4467 15.3333 15.2733 13.9267 15.3333 12.06C13.94 13.2667 11.58 14 8.66667 14ZM7.33334 11.3333C5.61806 11.3693 3.91377 11.0516 2.32667 10.4C3.18 11.7467 5.62 12.6667 8.66667 12.6667C12.4667 12.6667 15.3333 11.2333 15.3333 9.33334C15.3279 8.92109 15.1952 8.5206 14.9533 8.18668C13.96 10.0933 11.0867 11.3333 7.33334 11.3333ZM8 8.66668H7.33334H6.66667C4.05333 8.56668 1.92667 7.85334 0.666664 6.74001C0.726664 8.59334 3.57333 10 7.33334 10C11.0933 10 13.94 8.59334 14 6.72668C12.7133 7.84001 10.5867 8.55334 8 8.66668Z" fill="#EB6233"/>
</svg>
