<svg width="351" height="80" viewBox="0 0 351 80" fill="none" xmlns="http://www.w3.org/2000/svg">
<g opacity="0.15" filter="url(#filter0_f_199_6725)">
<rect x="4" y="4" width="343" height="72" rx="36" fill="url(#paint0_linear_199_6725)"/>
</g>
<g opacity="0.35" filter="url(#filter1_d_199_6725)">
<rect x="12.6471" y="10" width="325.706" height="60" rx="30" fill="url(#paint1_linear_199_6725)"/>
</g>
<g filter="url(#filter2_d_199_6725)">
<rect x="21.2941" y="16" width="308.412" height="48" rx="24" fill="url(#paint2_linear_199_6725)"/>
<path d="M103.73 35.2905V31.2815C103.73 30.8552 104.07 30.5 104.5 30.5C104.885 30.5 105.211 30.7985 105.263 31.1766L105.27 31.2815V35.2905L110.05 35.2908C112.43 35.2908 114.385 37.2398 114.495 39.6704L114.5 39.8861V44.9254C114.5 47.373 112.613 49.3822 110.268 49.495L110.06 49.5H98.94C96.56 49.5 94.6141 47.5608 94.5048 45.1213L94.5 44.9047V39.8758C94.5 37.4281 96.3779 35.4092 98.722 35.2958L98.93 35.2908H103.73V41.6932L102.13 40.041C101.83 39.7312 101.34 39.7312 101.04 40.041C100.89 40.1959 100.82 40.4024 100.82 40.6089C100.82 40.7659 100.865 40.9295 100.96 41.0679L101.04 41.1666L103.95 44.1819C104.09 44.3368 104.29 44.4194 104.5 44.4194C104.667 44.4194 104.833 44.362 104.965 44.2533L105.04 44.1819L107.95 41.1666C108.25 40.8568 108.25 40.3508 107.95 40.041C107.677 39.7594 107.248 39.7338 106.946 39.9642L106.86 40.041L105.27 41.6932V35.2908L103.73 35.2905Z" fill="white"/>
<path d="M133.039 32.9258C133.039 32.9258 132.094 36.6328 130.203 44.0469C130.344 44.0625 130.617 44.0703 131.023 44.0703C132.102 44.0625 133.07 42.375 133.93 39.0078C134.297 37.5156 134.469 36.1836 134.445 35.0117C134.414 33.8164 134.18 33.1562 133.742 33.0312C133.578 32.9844 133.344 32.9492 133.039 32.9258ZM129.781 33.043C129.602 33.0664 129.43 33.0938 129.266 33.125C128.867 33.2031 128.648 33.2422 128.609 33.2422C128.531 33.2422 128.457 33.2266 128.387 33.1953C128.16 33.1016 128.07 32.8984 128.117 32.5859L128.352 30.7344C128.398 30.5078 128.578 30.3516 128.891 30.2656C128.906 30.2656 128.93 30.2617 128.961 30.2539C130.18 29.9961 131.484 29.8672 132.875 29.8672C133.914 29.8672 134.797 30.0469 135.523 30.4062C137.055 31.1641 137.82 32.6562 137.82 34.8828C137.82 36.2812 137.57 37.9375 137.07 39.8516C136.75 41.0625 136.355 42.1406 135.887 43.0859C134.551 45.7578 132.742 47.0938 130.461 47.0938C130.414 47.0938 130.359 47.0938 130.297 47.0938C128.773 47.0938 127.719 47.0391 127.133 46.9297C127.031 46.9062 126.941 46.8789 126.863 46.8477C126.496 46.6914 126.383 46.3359 126.523 45.7812L129.781 33.043ZM141.136 38.1875C140.667 39.9688 140.433 41.418 140.433 42.5352C140.433 43.7305 140.698 44.3281 141.23 44.3281C141.347 44.3281 141.464 44.3125 141.581 44.2812C141.917 44.1719 142.277 43.7969 142.659 43.1562C143.144 42.3125 143.628 40.9297 144.113 39.0078C144.605 37 144.851 35.4922 144.851 34.4844C144.851 33.4766 144.605 32.9688 144.113 32.9609C143.55 32.9609 143.066 33.2969 142.659 33.9688C142.167 34.7812 141.659 36.1875 141.136 38.1875ZM137.808 37.4375C138.339 35.3828 139.093 33.6836 140.07 32.3398C141.288 30.6758 142.652 29.8438 144.159 29.8438C144.23 29.8438 144.3 29.8438 144.37 29.8438C145.628 29.9141 146.558 30.3047 147.159 31.0156C147.753 31.7188 148.05 32.9141 148.05 34.6016C148.05 36 147.784 37.75 147.253 39.8516C146.87 41.3672 146.382 42.6758 145.788 43.7773C144.577 46.0039 143.066 47.1172 141.253 47.1172C140.011 47.1172 139.062 46.8008 138.405 46.168C137.585 45.3555 137.175 43.9141 137.175 41.8438C137.175 40.5469 137.386 39.0781 137.808 37.4375ZM154.225 30.0312C154.28 30.0312 154.334 30.0391 154.389 30.0547C154.67 30.1562 154.678 30.4531 154.413 30.9453C154.381 31 154.35 31.0625 154.319 31.1328C153.811 32.1562 153.295 33.6797 152.772 35.7031C151.952 38.8828 151.659 41.3711 151.893 43.168C152.698 42.0664 153.487 40.7305 154.26 39.1602C155.448 36.7305 156.241 34.5312 156.639 32.5625L156.686 32.5391C156.85 31.7266 156.998 31.0938 157.131 30.6406C157.163 30.5547 157.198 30.4727 157.237 30.3945C157.37 30.1523 157.608 30.0312 157.952 30.0312H160.061C160.366 30.0703 160.467 30.3047 160.366 30.7344C159.608 32.9688 159.147 35.1484 158.983 37.2734C158.748 40.2969 158.76 42.3867 159.018 43.543C159.034 43.5273 159.049 43.5078 159.065 43.4844C160.276 41.9453 161.323 39.6602 162.205 36.6289C162.885 34.293 163.264 32.2812 163.342 30.5938C163.35 30.4531 163.362 30.3516 163.377 30.2891C163.416 30.1172 163.561 30.0312 163.811 30.0312H165.92C166.1 30.0312 166.241 30.0508 166.342 30.0898C166.483 30.1523 166.553 30.3281 166.553 30.6172C166.553 31.5547 166.381 32.7812 166.038 34.2969C165.42 37.0156 164.534 39.5195 163.377 41.8086C161.971 44.6133 160.498 46.3438 158.959 47H157.342C157.295 47 157.248 46.9961 157.202 46.9883C157.006 46.957 156.858 46.8047 156.756 46.5312C156.334 45.3281 156.077 43.7266 155.983 41.7266C155.866 41.9375 155.741 42.1523 155.608 42.3711C154.444 44.3242 153.28 45.8672 152.116 47H150.358C150.022 46.9922 149.795 46.8359 149.678 46.5312C149.577 46.2188 149.483 45.8828 149.397 45.5234C148.913 43.3828 148.866 40.8164 149.256 37.8242C149.631 34.9023 150.311 32.4141 151.295 30.3594C151.405 30.1484 151.616 30.0391 151.928 30.0312H154.225ZM159.534 44.4922C159.588 44.5234 159.639 44.5391 159.686 44.5391L159.534 44.4922ZM168.017 30.5469C168.111 30.2109 168.345 30.0391 168.72 30.0312H170.654C170.81 30.0312 170.955 30.0859 171.088 30.1953C171.119 30.2188 171.15 30.25 171.181 30.2891C171.22 30.3438 171.275 30.5 171.345 30.7578L173.384 39.7344L175.728 30.5469C175.822 30.2109 176.056 30.0391 176.431 30.0312H178.423C178.517 30.0312 178.607 30.0547 178.693 30.1016C178.904 30.2344 178.97 30.4531 178.892 30.7578L174.884 46.4844C174.791 46.8203 174.556 46.9922 174.181 47H172.189C172.025 47 171.908 46.9531 171.838 46.8594C171.775 46.7656 171.728 46.6562 171.697 46.5312L169.564 37.0977L167.173 46.4844C167.08 46.8203 166.845 46.9922 166.47 47H164.478C164.384 47 164.295 46.9766 164.209 46.9297C163.998 46.7969 163.931 46.5781 164.009 46.2734L168.017 30.5469ZM181.751 30.5469C181.845 30.2109 182.079 30.0391 182.454 30.0312H184.446C184.548 30.0312 184.638 30.0547 184.716 30.1016C184.919 30.2344 184.985 30.4531 184.915 30.7578L181.481 44.2109H185.97C186.43 44.2188 186.61 44.4688 186.509 44.9609L186.204 46.3438C186.18 46.4375 186.138 46.5312 186.075 46.625C185.895 46.875 185.673 47 185.407 47H178.212C178.11 47 178.02 46.9766 177.942 46.9297C177.739 46.7969 177.673 46.5781 177.743 46.2734L181.751 30.5469ZM191.242 38.1875C190.773 39.9688 190.539 41.418 190.539 42.5352C190.539 43.7305 190.805 44.3281 191.336 44.3281C191.453 44.3281 191.57 44.3125 191.688 44.2812C192.023 44.1719 192.383 43.7969 192.766 43.1562C193.25 42.3125 193.734 40.9297 194.219 39.0078C194.711 37 194.957 35.4922 194.957 34.4844C194.957 33.4766 194.711 32.9688 194.219 32.9609C193.656 32.9609 193.172 33.2969 192.766 33.9688C192.273 34.7812 191.766 36.1875 191.242 38.1875ZM187.914 37.4375C188.445 35.3828 189.199 33.6836 190.176 32.3398C191.395 30.6758 192.758 29.8438 194.266 29.8438C194.336 29.8438 194.406 29.8438 194.477 29.8438C195.734 29.9141 196.664 30.3047 197.266 31.0156C197.859 31.7188 198.156 32.9141 198.156 34.6016C198.156 36 197.891 37.75 197.359 39.8516C196.977 41.3672 196.488 42.6758 195.895 43.7773C194.684 46.0039 193.172 47.1172 191.359 47.1172C190.117 47.1172 189.168 46.8008 188.512 46.168C187.691 45.3555 187.281 43.9141 187.281 41.8438C187.281 40.5469 187.492 39.0781 187.914 37.4375ZM202.866 39.6406H205.409L205.82 33.6172L202.866 39.6406ZM201.495 42.4297L199.48 46.5547C199.3 46.8984 199.003 47.0547 198.589 47.0234L196.761 46.9531C196.753 46.9531 196.738 46.9531 196.714 46.9531C196.214 46.9141 196.058 46.625 196.245 46.0859L204.073 31.0156C204.128 30.9062 204.195 30.7969 204.273 30.6875C204.577 30.2812 204.941 30.0781 205.363 30.0781L208.058 30.0547C208.206 30.0469 208.343 30.0703 208.468 30.125C208.827 30.2891 208.995 30.6406 208.972 31.1797L208.105 46.4844C208.058 46.8125 207.823 46.9844 207.402 47H205.503C205.448 47 205.394 46.9961 205.339 46.9883C205.042 46.9258 204.917 46.7188 204.964 46.3672L205.222 42.4297H201.495ZM215.92 32.9258C215.92 32.9258 214.975 36.6328 213.084 44.0469C213.225 44.0625 213.498 44.0703 213.905 44.0703C214.983 44.0625 215.952 42.375 216.811 39.0078C217.178 37.5156 217.35 36.1836 217.327 35.0117C217.295 33.8164 217.061 33.1562 216.623 33.0312C216.459 32.9844 216.225 32.9492 215.92 32.9258ZM212.662 33.043C212.483 33.0664 212.311 33.0938 212.147 33.125C211.748 33.2031 211.53 33.2422 211.491 33.2422C211.412 33.2422 211.338 33.2266 211.268 33.1953C211.041 33.1016 210.952 32.8984 210.998 32.5859L211.233 30.7344C211.28 30.5078 211.459 30.3516 211.772 30.2656C211.787 30.2656 211.811 30.2617 211.842 30.2539C213.061 29.9961 214.366 29.8672 215.756 29.8672C216.795 29.8672 217.678 30.0469 218.405 30.4062C219.936 31.1641 220.702 32.6562 220.702 34.8828C220.702 36.2812 220.452 37.9375 219.952 39.8516C219.631 41.0625 219.237 42.1406 218.768 43.0859C217.432 45.7578 215.623 47.0938 213.342 47.0938C213.295 47.0938 213.241 47.0938 213.178 47.0938C211.655 47.0938 210.6 47.0391 210.014 46.9297C209.912 46.9062 209.823 46.8789 209.745 46.8477C209.377 46.6914 209.264 46.3359 209.405 45.7812L212.662 33.043ZM229.782 39.6406H232.325L232.735 33.6172L229.782 39.6406ZM228.411 42.4297L226.395 46.5547C226.216 46.8984 225.919 47.0547 225.505 47.0234L223.677 46.9531C223.669 46.9531 223.653 46.9531 223.63 46.9531C223.13 46.9141 222.973 46.625 223.161 46.0859L230.989 31.0156C231.044 30.9062 231.11 30.7969 231.188 30.6875C231.493 30.2812 231.856 30.0781 232.278 30.0781L234.973 30.0547C235.122 30.0469 235.259 30.0703 235.384 30.125C235.743 30.2891 235.911 30.6406 235.887 31.1797L235.02 46.4844C234.973 46.8125 234.739 46.9844 234.317 47H232.419C232.364 47 232.309 46.9961 232.255 46.9883C231.958 46.9258 231.833 46.7188 231.88 46.3672L232.137 42.4297H228.411ZM241.512 37.7305L242.379 37.6719C242.449 37.6641 242.523 37.6562 242.602 37.6484C243.328 37.5391 243.887 37.125 244.277 36.4062C244.316 36.2812 244.363 36.1289 244.418 35.9492C244.699 34.8867 244.84 34.0234 244.84 33.3594C244.84 33.2734 244.805 33.1875 244.734 33.1016C244.578 32.9141 244.379 32.8203 244.137 32.8203C244.051 32.8125 243.828 32.8086 243.469 32.8086C243.172 32.8086 242.941 32.8047 242.777 32.7969L241.512 37.7305ZM239.566 32.7734H238.77C238.66 32.7734 238.559 32.7461 238.465 32.6914C238.262 32.5664 238.199 32.375 238.277 32.1172L238.699 30.5C238.715 30.4375 238.742 30.375 238.781 30.3125C238.906 30.125 239.059 30.0312 239.238 30.0312H244.23C244.902 30.0312 245.5 30.1328 246.023 30.3359C247.203 30.8047 247.793 31.7188 247.793 33.0781C247.793 33.9453 247.609 34.9531 247.242 36.1016C246.828 37.3906 246.203 38.3672 245.367 39.0312C244.484 39.7656 242.992 40.1445 240.891 40.168L239.285 46.4844C239.191 46.8203 238.957 46.9922 238.582 47H236.59C236.488 47 236.398 46.9766 236.32 46.9297C236.117 46.7969 236.051 46.5781 236.121 46.2734L239.566 32.7734ZM252.327 37.7305L253.195 37.6719C253.265 37.6641 253.339 37.6562 253.417 37.6484C254.144 37.5391 254.702 37.125 255.093 36.4062C255.132 36.2812 255.179 36.1289 255.234 35.9492C255.515 34.8867 255.655 34.0234 255.655 33.3594C255.655 33.2734 255.62 33.1875 255.55 33.1016C255.394 32.9141 255.195 32.8203 254.952 32.8203C254.866 32.8125 254.644 32.8086 254.284 32.8086C253.988 32.8086 253.757 32.8047 253.593 32.7969L252.327 37.7305ZM250.382 32.7734H249.585C249.476 32.7734 249.374 32.7461 249.28 32.6914C249.077 32.5664 249.015 32.375 249.093 32.1172L249.515 30.5C249.53 30.4375 249.558 30.375 249.597 30.3125C249.722 30.125 249.874 30.0312 250.054 30.0312H255.046C255.718 30.0312 256.316 30.1328 256.839 30.3359C258.019 30.8047 258.609 31.7188 258.609 33.0781C258.609 33.9453 258.425 34.9531 258.058 36.1016C257.644 37.3906 257.019 38.3672 256.183 39.0312C255.3 39.7656 253.808 40.1445 251.706 40.168L250.101 46.4844C250.007 46.8203 249.773 46.9922 249.398 47H247.405C247.304 47 247.214 46.9766 247.136 46.9297C246.933 46.7969 246.866 46.5781 246.937 46.2734L250.382 32.7734Z" fill="white"/>
</g>
<defs>
<filter id="filter0_f_199_6725" x="0" y="0" width="351" height="80" filterUnits="userSpaceOnUse" color-interpolation-filters="sRGB">
<feFlood flood-opacity="0" result="BackgroundImageFix"/>
<feBlend mode="normal" in="SourceGraphic" in2="BackgroundImageFix" result="shape"/>
<feGaussianBlur stdDeviation="2" result="effect1_foregroundBlur_199_6725"/>
</filter>
<filter id="filter1_d_199_6725" x="8.64709" y="10" width="333.706" height="68" filterUnits="userSpaceOnUse" color-interpolation-filters="sRGB">
<feFlood flood-opacity="0" result="BackgroundImageFix"/>
<feColorMatrix in="SourceAlpha" type="matrix" values="0 0 0 0 0 0 0 0 0 0 0 0 0 0 0 0 0 0 127 0" result="hardAlpha"/>
<feOffset dy="4"/>
<feGaussianBlur stdDeviation="2"/>
<feComposite in2="hardAlpha" operator="out"/>
<feColorMatrix type="matrix" values="0 0 0 0 0 0 0 0 0 0 0 0 0 0 0 0 0 0 0.25 0"/>
<feBlend mode="normal" in2="BackgroundImageFix" result="effect1_dropShadow_199_6725"/>
<feBlend mode="normal" in="SourceGraphic" in2="effect1_dropShadow_199_6725" result="shape"/>
</filter>
<filter id="filter2_d_199_6725" x="17.2941" y="16" width="316.412" height="56" filterUnits="userSpaceOnUse" color-interpolation-filters="sRGB">
<feFlood flood-opacity="0" result="BackgroundImageFix"/>
<feColorMatrix in="SourceAlpha" type="matrix" values="0 0 0 0 0 0 0 0 0 0 0 0 0 0 0 0 0 0 127 0" result="hardAlpha"/>
<feOffset dy="4"/>
<feGaussianBlur stdDeviation="2"/>
<feComposite in2="hardAlpha" operator="out"/>
<feColorMatrix type="matrix" values="0 0 0 0 0.704167 0 0 0 0 0.261189 0 0 0 0 0.111493 0 0 0 0.25 0"/>
<feBlend mode="normal" in2="BackgroundImageFix" result="effect1_dropShadow_199_6725"/>
<feBlend mode="normal" in="SourceGraphic" in2="effect1_dropShadow_199_6725" result="shape"/>
</filter>
<linearGradient id="paint0_linear_199_6725" x1="-98.9" y1="145.12" x2="324.939" y2="-45.1435" gradientUnits="userSpaceOnUse">
<stop stop-color="#F3BB4D"/>
<stop offset="1" stop-color="#F05F2E"/>
</linearGradient>
<linearGradient id="paint1_linear_199_6725" x1="-85.0647" y1="127.6" x2="298.219" y2="-68.4593" gradientUnits="userSpaceOnUse">
<stop stop-color="#F3BB4D"/>
<stop offset="1" stop-color="#F05F2E"/>
</linearGradient>
<linearGradient id="paint2_linear_199_6725" x1="-71.2295" y1="110.08" x2="177.943" y2="-31.9005" gradientUnits="userSpaceOnUse">
<stop stop-color="#F3BB4D"/>
<stop offset="1" stop-color="#F05F2E"/>
</linearGradient>
</defs>
</svg>
