<svg width="246" height="84" viewBox="0 0 246 84" fill="none" xmlns="http://www.w3.org/2000/svg">
<g filter="url(#filter0_ddd_88_425)">
<g opacity="0.15" filter="url(#filter1_f_88_425)">
<rect x="4" y="4" width="238" height="72" rx="36" fill="url(#paint0_linear_88_425)"/>
</g>
<g opacity="0.35" filter="url(#filter2_d_88_425)">
<rect x="10" y="10" width="226" height="60" rx="30" fill="url(#paint1_linear_88_425)"/>
</g>
<g filter="url(#filter3_d_88_425)">
<rect x="16" y="16" width="214" height="48" rx="24" fill="url(#paint2_linear_88_425)"/>
<path d="M51.2301 35.2905V31.2815C51.2301 30.8552 51.5701 30.5 52.0001 30.5C52.3851 30.5 52.7113 30.7985 52.763 31.1766L52.7701 31.2815V35.2905L57.55 35.2908C59.93 35.2908 61.8853 37.2398 61.9951 39.6704L62 39.8861V44.9254C62 47.373 60.1127 49.3822 57.768 49.495L57.56 49.5H46.44C44.06 49.5 42.1141 47.5608 42.0048 45.1213L42 44.9047V39.8758C42 37.4281 43.8779 35.4092 46.222 35.2958L46.43 35.2908H51.23V41.6932L49.63 40.041C49.33 39.7312 48.84 39.7312 48.54 40.041C48.39 40.1959 48.32 40.4024 48.32 40.6089C48.32 40.7659 48.3648 40.9295 48.4595 41.0679L48.54 41.1666L51.45 44.1819C51.59 44.3368 51.79 44.4194 52 44.4194C52.1667 44.4194 52.3333 44.362 52.4653 44.2533L52.54 44.1819L55.45 41.1666C55.75 40.8568 55.75 40.3508 55.45 40.041C55.1773 39.7594 54.7475 39.7338 54.4462 39.9642L54.36 40.041L52.77 41.6932V35.2908L51.2301 35.2905Z" fill="white"/>
<path d="M80.5391 32.9258C80.5391 32.9258 79.5938 36.6328 77.7031 44.0469C77.8438 44.0625 78.1172 44.0703 78.5234 44.0703C79.6016 44.0625 80.5703 42.375 81.4297 39.0078C81.7969 37.5156 81.9688 36.1836 81.9453 35.0117C81.9141 33.8164 81.6797 33.1562 81.2422 33.0312C81.0781 32.9844 80.8438 32.9492 80.5391 32.9258ZM77.2812 33.043C77.1016 33.0664 76.9297 33.0938 76.7656 33.125C76.3672 33.2031 76.1484 33.2422 76.1094 33.2422C76.0312 33.2422 75.957 33.2266 75.8867 33.1953C75.6602 33.1016 75.5703 32.8984 75.6172 32.5859L75.8516 30.7344C75.8984 30.5078 76.0781 30.3516 76.3906 30.2656C76.4062 30.2656 76.4297 30.2617 76.4609 30.2539C77.6797 29.9961 78.9844 29.8672 80.375 29.8672C81.4141 29.8672 82.2969 30.0469 83.0234 30.4062C84.5547 31.1641 85.3203 32.6562 85.3203 34.8828C85.3203 36.2812 85.0703 37.9375 84.5703 39.8516C84.25 41.0625 83.8555 42.1406 83.3867 43.0859C82.0508 45.7578 80.2422 47.0938 77.9609 47.0938C77.9141 47.0938 77.8594 47.0938 77.7969 47.0938C76.2734 47.0938 75.2188 47.0391 74.6328 46.9297C74.5312 46.9062 74.4414 46.8789 74.3633 46.8477C73.9961 46.6914 73.8828 46.3359 74.0234 45.7812L77.2812 33.043ZM88.6359 38.1875C88.1672 39.9688 87.9328 41.418 87.9328 42.5352C87.9328 43.7305 88.1984 44.3281 88.7297 44.3281C88.8469 44.3281 88.9641 44.3125 89.0813 44.2812C89.4172 44.1719 89.7766 43.7969 90.1594 43.1562C90.6438 42.3125 91.1281 40.9297 91.6125 39.0078C92.1047 37 92.3508 35.4922 92.3508 34.4844C92.3508 33.4766 92.1047 32.9688 91.6125 32.9609C91.05 32.9609 90.5656 33.2969 90.1594 33.9688C89.6672 34.7812 89.1594 36.1875 88.6359 38.1875ZM85.3078 37.4375C85.8391 35.3828 86.593 33.6836 87.5695 32.3398C88.7883 30.6758 90.1516 29.8438 91.6594 29.8438C91.7297 29.8438 91.8 29.8438 91.8703 29.8438C93.1281 29.9141 94.0578 30.3047 94.6594 31.0156C95.2531 31.7188 95.55 32.9141 95.55 34.6016C95.55 36 95.2844 37.75 94.7531 39.8516C94.3703 41.3672 93.882 42.6758 93.2883 43.7773C92.0773 46.0039 90.5656 47.1172 88.7531 47.1172C87.5109 47.1172 86.5617 46.8008 85.9055 46.168C85.0852 45.3555 84.675 43.9141 84.675 41.8438C84.675 40.5469 84.8859 39.0781 85.3078 37.4375ZM101.725 30.0312C101.78 30.0312 101.834 30.0391 101.889 30.0547C102.17 30.1562 102.178 30.4531 101.913 30.9453C101.881 31 101.85 31.0625 101.819 31.1328C101.311 32.1562 100.795 33.6797 100.272 35.7031C99.4516 38.8828 99.1586 41.3711 99.393 43.168C100.198 42.0664 100.987 40.7305 101.76 39.1602C102.948 36.7305 103.741 34.5312 104.139 32.5625L104.186 32.5391C104.35 31.7266 104.498 31.0938 104.631 30.6406C104.663 30.5547 104.698 30.4727 104.737 30.3945C104.87 30.1523 105.108 30.0312 105.452 30.0312H107.561C107.866 30.0703 107.967 30.3047 107.866 30.7344C107.108 32.9688 106.647 35.1484 106.483 37.2734C106.248 40.2969 106.26 42.3867 106.518 43.543C106.534 43.5273 106.549 43.5078 106.565 43.4844C107.776 41.9453 108.823 39.6602 109.705 36.6289C110.385 34.293 110.764 32.2812 110.842 30.5938C110.85 30.4531 110.862 30.3516 110.877 30.2891C110.916 30.1172 111.061 30.0312 111.311 30.0312H113.42C113.6 30.0312 113.741 30.0508 113.842 30.0898C113.983 30.1523 114.053 30.3281 114.053 30.6172C114.053 31.5547 113.881 32.7812 113.538 34.2969C112.92 37.0156 112.034 39.5195 110.877 41.8086C109.471 44.6133 107.998 46.3438 106.459 47H104.842C104.795 47 104.748 46.9961 104.702 46.9883C104.506 46.957 104.358 46.8047 104.256 46.5312C103.834 45.3281 103.577 43.7266 103.483 41.7266C103.366 41.9375 103.241 42.1523 103.108 42.3711C101.944 44.3242 100.78 45.8672 99.6156 47H97.8578C97.5219 46.9922 97.2953 46.8359 97.1781 46.5312C97.0766 46.2188 96.9828 45.8828 96.8969 45.5234C96.4125 43.3828 96.3656 40.8164 96.7563 37.8242C97.1313 34.9023 97.8109 32.4141 98.7953 30.3594C98.9047 30.1484 99.1156 30.0391 99.4281 30.0312H101.725ZM107.034 44.4922C107.088 44.5234 107.139 44.5391 107.186 44.5391L107.034 44.4922ZM115.517 30.5469C115.611 30.2109 115.845 30.0391 116.22 30.0312H118.154C118.31 30.0312 118.455 30.0859 118.588 30.1953C118.619 30.2188 118.65 30.25 118.681 30.2891C118.72 30.3438 118.775 30.5 118.845 30.7578L120.884 39.7344L123.228 30.5469C123.322 30.2109 123.556 30.0391 123.931 30.0312H125.923C126.017 30.0312 126.107 30.0547 126.193 30.1016C126.404 30.2344 126.47 30.4531 126.392 30.7578L122.384 46.4844C122.291 46.8203 122.056 46.9922 121.681 47H119.689C119.525 47 119.408 46.9531 119.338 46.8594C119.275 46.7656 119.228 46.6562 119.197 46.5312L117.064 37.0977L114.673 46.4844C114.58 46.8203 114.345 46.9922 113.97 47H111.978C111.884 47 111.795 46.9766 111.709 46.9297C111.498 46.7969 111.431 46.5781 111.509 46.2734L115.517 30.5469ZM129.251 30.5469C129.345 30.2109 129.579 30.0391 129.954 30.0312H131.946C132.048 30.0312 132.138 30.0547 132.216 30.1016C132.419 30.2344 132.485 30.4531 132.415 30.7578L128.981 44.2109H133.47C133.93 44.2188 134.11 44.4688 134.009 44.9609L133.704 46.3438C133.68 46.4375 133.638 46.5312 133.575 46.625C133.395 46.875 133.173 47 132.907 47H125.712C125.61 47 125.52 46.9766 125.442 46.9297C125.239 46.7969 125.173 46.5781 125.243 46.2734L129.251 30.5469ZM138.742 38.1875C138.273 39.9688 138.039 41.418 138.039 42.5352C138.039 43.7305 138.305 44.3281 138.836 44.3281C138.953 44.3281 139.07 44.3125 139.188 44.2812C139.523 44.1719 139.883 43.7969 140.266 43.1562C140.75 42.3125 141.234 40.9297 141.719 39.0078C142.211 37 142.457 35.4922 142.457 34.4844C142.457 33.4766 142.211 32.9688 141.719 32.9609C141.156 32.9609 140.672 33.2969 140.266 33.9688C139.773 34.7812 139.266 36.1875 138.742 38.1875ZM135.414 37.4375C135.945 35.3828 136.699 33.6836 137.676 32.3398C138.895 30.6758 140.258 29.8438 141.766 29.8438C141.836 29.8438 141.906 29.8438 141.977 29.8438C143.234 29.9141 144.164 30.3047 144.766 31.0156C145.359 31.7188 145.656 32.9141 145.656 34.6016C145.656 36 145.391 37.75 144.859 39.8516C144.477 41.3672 143.988 42.6758 143.395 43.7773C142.184 46.0039 140.672 47.1172 138.859 47.1172C137.617 47.1172 136.668 46.8008 136.012 46.168C135.191 45.3555 134.781 43.9141 134.781 41.8438C134.781 40.5469 134.992 39.0781 135.414 37.4375ZM150.366 39.6406H152.909L153.32 33.6172L150.366 39.6406ZM148.995 42.4297L146.98 46.5547C146.8 46.8984 146.503 47.0547 146.089 47.0234L144.261 46.9531C144.253 46.9531 144.238 46.9531 144.214 46.9531C143.714 46.9141 143.558 46.625 143.745 46.0859L151.573 31.0156C151.628 30.9062 151.695 30.7969 151.773 30.6875C152.077 30.2812 152.441 30.0781 152.863 30.0781L155.558 30.0547C155.706 30.0469 155.843 30.0703 155.968 30.125C156.327 30.2891 156.495 30.6406 156.472 31.1797L155.605 46.4844C155.558 46.8125 155.323 46.9844 154.902 47H153.003C152.948 47 152.894 46.9961 152.839 46.9883C152.542 46.9258 152.417 46.7188 152.464 46.3672L152.722 42.4297H148.995ZM163.42 32.9258C163.42 32.9258 162.475 36.6328 160.584 44.0469C160.725 44.0625 160.998 44.0703 161.405 44.0703C162.483 44.0625 163.452 42.375 164.311 39.0078C164.678 37.5156 164.85 36.1836 164.827 35.0117C164.795 33.8164 164.561 33.1562 164.123 33.0312C163.959 32.9844 163.725 32.9492 163.42 32.9258ZM160.162 33.043C159.983 33.0664 159.811 33.0938 159.647 33.125C159.248 33.2031 159.03 33.2422 158.991 33.2422C158.912 33.2422 158.838 33.2266 158.768 33.1953C158.541 33.1016 158.452 32.8984 158.498 32.5859L158.733 30.7344C158.78 30.5078 158.959 30.3516 159.272 30.2656C159.287 30.2656 159.311 30.2617 159.342 30.2539C160.561 29.9961 161.866 29.8672 163.256 29.8672C164.295 29.8672 165.178 30.0469 165.905 30.4062C167.436 31.1641 168.202 32.6562 168.202 34.8828C168.202 36.2812 167.952 37.9375 167.452 39.8516C167.131 41.0625 166.737 42.1406 166.268 43.0859C164.932 45.7578 163.123 47.0938 160.842 47.0938C160.795 47.0938 160.741 47.0938 160.678 47.0938C159.155 47.0938 158.1 47.0391 157.514 46.9297C157.412 46.9062 157.323 46.8789 157.245 46.8477C156.877 46.6914 156.764 46.3359 156.905 45.7812L160.162 33.043ZM177.282 39.6406H179.825L180.235 33.6172L177.282 39.6406ZM175.911 42.4297L173.895 46.5547C173.716 46.8984 173.419 47.0547 173.005 47.0234L171.177 46.9531C171.169 46.9531 171.153 46.9531 171.13 46.9531C170.63 46.9141 170.473 46.625 170.661 46.0859L178.489 31.0156C178.544 30.9062 178.61 30.7969 178.688 30.6875C178.993 30.2812 179.356 30.0781 179.778 30.0781L182.473 30.0547C182.622 30.0469 182.759 30.0703 182.884 30.125C183.243 30.2891 183.411 30.6406 183.387 31.1797L182.52 46.4844C182.473 46.8125 182.239 46.9844 181.817 47H179.919C179.864 47 179.809 46.9961 179.755 46.9883C179.458 46.9258 179.333 46.7188 179.38 46.3672L179.637 42.4297H175.911ZM189.012 37.7305L189.879 37.6719C189.949 37.6641 190.023 37.6562 190.102 37.6484C190.828 37.5391 191.387 37.125 191.777 36.4062C191.816 36.2812 191.863 36.1289 191.918 35.9492C192.199 34.8867 192.34 34.0234 192.34 33.3594C192.34 33.2734 192.305 33.1875 192.234 33.1016C192.078 32.9141 191.879 32.8203 191.637 32.8203C191.551 32.8125 191.328 32.8086 190.969 32.8086C190.672 32.8086 190.441 32.8047 190.277 32.7969L189.012 37.7305ZM187.066 32.7734H186.27C186.16 32.7734 186.059 32.7461 185.965 32.6914C185.762 32.5664 185.699 32.375 185.777 32.1172L186.199 30.5C186.215 30.4375 186.242 30.375 186.281 30.3125C186.406 30.125 186.559 30.0312 186.738 30.0312H191.73C192.402 30.0312 193 30.1328 193.523 30.3359C194.703 30.8047 195.293 31.7188 195.293 33.0781C195.293 33.9453 195.109 34.9531 194.742 36.1016C194.328 37.3906 193.703 38.3672 192.867 39.0312C191.984 39.7656 190.492 40.1445 188.391 40.168L186.785 46.4844C186.691 46.8203 186.457 46.9922 186.082 47H184.09C183.988 47 183.898 46.9766 183.82 46.9297C183.617 46.7969 183.551 46.5781 183.621 46.2734L187.066 32.7734ZM199.827 37.7305L200.695 37.6719C200.765 37.6641 200.839 37.6562 200.917 37.6484C201.644 37.5391 202.202 37.125 202.593 36.4062C202.632 36.2812 202.679 36.1289 202.734 35.9492C203.015 34.8867 203.155 34.0234 203.155 33.3594C203.155 33.2734 203.12 33.1875 203.05 33.1016C202.894 32.9141 202.695 32.8203 202.452 32.8203C202.366 32.8125 202.144 32.8086 201.784 32.8086C201.488 32.8086 201.257 32.8047 201.093 32.7969L199.827 37.7305ZM197.882 32.7734H197.085C196.976 32.7734 196.874 32.7461 196.78 32.6914C196.577 32.5664 196.515 32.375 196.593 32.1172L197.015 30.5C197.03 30.4375 197.058 30.375 197.097 30.3125C197.222 30.125 197.374 30.0312 197.554 30.0312H202.546C203.218 30.0312 203.816 30.1328 204.339 30.3359C205.519 30.8047 206.109 31.7188 206.109 33.0781C206.109 33.9453 205.925 34.9531 205.558 36.1016C205.144 37.3906 204.519 38.3672 203.683 39.0312C202.8 39.7656 201.308 40.1445 199.206 40.168L197.601 46.4844C197.507 46.8203 197.273 46.9922 196.898 47H194.905C194.804 47 194.714 46.9766 194.636 46.9297C194.433 46.7969 194.366 46.5781 194.437 46.2734L197.882 32.7734Z" fill="white"/>
</g>
</g>
<defs>
<filter id="filter0_ddd_88_425" x="0" y="4" width="246" height="80" filterUnits="userSpaceOnUse" color-interpolation-filters="sRGB">
<feFlood flood-opacity="0" result="BackgroundImageFix"/>
<feColorMatrix in="SourceAlpha" type="matrix" values="0 0 0 0 0 0 0 0 0 0 0 0 0 0 0 0 0 0 127 0" result="hardAlpha"/>
<feOffset dy="4"/>
<feGaussianBlur stdDeviation="2"/>
<feComposite in2="hardAlpha" operator="out"/>
<feColorMatrix type="matrix" values="0 0 0 0 0 0 0 0 0 0 0 0 0 0 0 0 0 0 0.25 0"/>
<feBlend mode="normal" in2="BackgroundImageFix" result="effect1_dropShadow_88_425"/>
<feColorMatrix in="SourceAlpha" type="matrix" values="0 0 0 0 0 0 0 0 0 0 0 0 0 0 0 0 0 0 127 0" result="hardAlpha"/>
<feOffset dy="4"/>
<feGaussianBlur stdDeviation="2"/>
<feComposite in2="hardAlpha" operator="out"/>
<feColorMatrix type="matrix" values="0 0 0 0 0 0 0 0 0 0 0 0 0 0 0 0 0 0 0.25 0"/>
<feBlend mode="normal" in2="effect1_dropShadow_88_425" result="effect2_dropShadow_88_425"/>
<feColorMatrix in="SourceAlpha" type="matrix" values="0 0 0 0 0 0 0 0 0 0 0 0 0 0 0 0 0 0 127 0" result="hardAlpha"/>
<feOffset dy="4"/>
<feGaussianBlur stdDeviation="2"/>
<feComposite in2="hardAlpha" operator="out"/>
<feColorMatrix type="matrix" values="0 0 0 0 0 0 0 0 0 0 0 0 0 0 0 0 0 0 0.25 0"/>
<feBlend mode="normal" in2="effect2_dropShadow_88_425" result="effect3_dropShadow_88_425"/>
<feBlend mode="normal" in="SourceGraphic" in2="effect3_dropShadow_88_425" result="shape"/>
</filter>
<filter id="filter1_f_88_425" x="0" y="0" width="246" height="80" filterUnits="userSpaceOnUse" color-interpolation-filters="sRGB">
<feFlood flood-opacity="0" result="BackgroundImageFix"/>
<feBlend mode="normal" in="SourceGraphic" in2="BackgroundImageFix" result="shape"/>
<feGaussianBlur stdDeviation="2" result="effect1_foregroundBlur_88_425"/>
</filter>
<filter id="filter2_d_88_425" x="6" y="10" width="234" height="68" filterUnits="userSpaceOnUse" color-interpolation-filters="sRGB">
<feFlood flood-opacity="0" result="BackgroundImageFix"/>
<feColorMatrix in="SourceAlpha" type="matrix" values="0 0 0 0 0 0 0 0 0 0 0 0 0 0 0 0 0 0 127 0" result="hardAlpha"/>
<feOffset dy="4"/>
<feGaussianBlur stdDeviation="2"/>
<feComposite in2="hardAlpha" operator="out"/>
<feColorMatrix type="matrix" values="0 0 0 0 0 0 0 0 0 0 0 0 0 0 0 0 0 0 0.25 0"/>
<feBlend mode="normal" in2="BackgroundImageFix" result="effect1_dropShadow_88_425"/>
<feBlend mode="normal" in="SourceGraphic" in2="effect1_dropShadow_88_425" result="shape"/>
</filter>
<filter id="filter3_d_88_425" x="12" y="16" width="222" height="56" filterUnits="userSpaceOnUse" color-interpolation-filters="sRGB">
<feFlood flood-opacity="0" result="BackgroundImageFix"/>
<feColorMatrix in="SourceAlpha" type="matrix" values="0 0 0 0 0 0 0 0 0 0 0 0 0 0 0 0 0 0 127 0" result="hardAlpha"/>
<feOffset dy="4"/>
<feGaussianBlur stdDeviation="2"/>
<feComposite in2="hardAlpha" operator="out"/>
<feColorMatrix type="matrix" values="0 0 0 0 0.704167 0 0 0 0 0.261189 0 0 0 0 0.111493 0 0 0 0.25 0"/>
<feBlend mode="normal" in2="BackgroundImageFix" result="effect1_dropShadow_88_425"/>
<feBlend mode="normal" in="SourceGraphic" in2="effect1_dropShadow_88_425" result="shape"/>
</filter>
<linearGradient id="paint0_linear_88_425" x1="-67.4" y1="145.12" x2="254.705" y2="44.7891" gradientUnits="userSpaceOnUse">
<stop stop-color="#F3BB4D"/>
<stop offset="1" stop-color="#F05F2E"/>
</linearGradient>
<linearGradient id="paint1_linear_88_425" x1="-57.8" y1="127.6" x2="240.199" y2="21.8296" gradientUnits="userSpaceOnUse">
<stop stop-color="#F3BB4D"/>
<stop offset="1" stop-color="#F05F2E"/>
</linearGradient>
<linearGradient id="paint2_linear_88_425" x1="-48.2" y1="110.08" x2="149.869" y2="31.7683" gradientUnits="userSpaceOnUse">
<stop stop-color="#F3BB4D"/>
<stop offset="1" stop-color="#F05F2E"/>
</linearGradient>
</defs>
</svg>
