<svg width="40" height="39" viewBox="0 0 40 39" fill="none" xmlns="http://www.w3.org/2000/svg">
<path d="M18.4602 9.79247V1.77443C18.4602 0.921884 19.1402 0.211426 20.0002 0.211426C20.7702 0.211426 21.4226 0.808408 21.5259 1.56459L21.5402 1.77443V9.79247L31.1 9.79308C35.86 9.79308 39.7707 13.691 39.9903 18.5522L40 18.9836V29.0622C40 33.9575 36.2253 37.9758 31.5361 38.2014L31.12 38.2114H8.88C4.12 38.2114 0.22818 34.333 0.00967557 29.4539L0 29.0209V18.963C0 14.0676 3.75582 10.0299 8.44399 9.80312L8.86 9.79308H18.46V22.5979L15.26 19.2934C14.66 18.6738 13.68 18.6738 13.08 19.2934C12.78 19.6032 12.64 20.0162 12.64 20.4293C12.64 20.7432 12.7296 21.0704 12.919 21.3473L13.08 21.5446L18.9 27.5752C19.18 27.885 19.58 28.0502 20 28.0502C20.3333 28.0502 20.6667 27.9355 20.9306 27.718L21.08 27.5752L26.9 21.5446C27.5 20.925 27.5 19.913 26.9 19.2934C26.3545 18.7301 25.495 18.6789 24.8925 19.1398L24.72 19.2934L21.54 22.5979V9.79308L18.4602 9.79247Z" fill="white"/>
</svg>
