<svg width="18" height="16" viewBox="0 0 18 16" fill="none" xmlns="http://www.w3.org/2000/svg">
<path d="M13.1162 0.711426C14.2337 0.711426 15.3087 1.15309 16.0995 1.94559C16.8912 2.73643 17.3337 3.80309 17.3337 4.91976V11.5031C17.3337 13.8281 15.442 15.7114 13.1162 15.7114H4.88366C2.55783 15.7114 0.666992 13.8281 0.666992 11.5031V4.91976C0.666992 2.59476 2.54949 0.711426 4.88366 0.711426H13.1162ZM14.0587 5.04476C13.8837 5.03559 13.717 5.09476 13.5912 5.21143L9.83366 8.21143C9.35033 8.61226 8.65783 8.61226 8.16699 8.21143L4.41699 5.21143C4.15783 5.01976 3.79949 5.04476 3.58366 5.26976C3.35866 5.49476 3.33366 5.85309 3.52449 6.10309L3.63366 6.21143L7.42532 9.16976C7.89199 9.53643 8.45783 9.73643 9.05033 9.73643C9.64116 9.73643 10.217 9.53643 10.6828 9.16976L14.442 6.16143L14.5087 6.09476C14.7078 5.85309 14.7078 5.50309 14.4995 5.26143C14.3837 5.13726 14.2245 5.06143 14.0587 5.04476Z" fill="#DADFF1"/>
</svg>
