<svg width="15" height="12" viewBox="0 0 15 12" fill="none" xmlns="http://www.w3.org/2000/svg">
<path d="M7.46601 7.69309C9.75346 7.69309 11.7066 8.05573 11.7066 9.50691C11.7066 10.9575 9.766 11.3333 7.46601 11.3333C5.17855 11.3333 3.22538 10.9707 3.22538 9.52012C3.22538 8.06894 5.16602 7.69309 7.46601 7.69309ZM11.1234 6.81926C11.9979 6.80305 12.9381 6.92313 13.2855 7.00838C14.0215 7.15308 14.5056 7.44848 14.7062 7.87777C14.8757 8.23021 14.8757 8.63908 14.7062 8.99092C14.3993 9.65677 13.4102 9.87051 13.0258 9.92575C12.9464 9.93776 12.8825 9.86871 12.8909 9.78886C13.0873 7.94381 11.5251 7.06903 11.121 6.86789C11.1037 6.85888 11.1001 6.84507 11.1019 6.83667C11.1031 6.83066 11.1102 6.82106 11.1234 6.81926ZM3.71238 6.81801L3.87706 6.8195C3.89019 6.8213 3.89675 6.8309 3.89795 6.83631C3.89974 6.84531 3.89616 6.85852 3.87944 6.86813C3.47472 7.06926 1.91254 7.94405 2.10893 9.7885C2.11729 9.86895 2.05402 9.9374 1.97462 9.92599C1.5902 9.87075 0.601076 9.65701 0.294251 8.99116C0.124125 8.63872 0.124125 8.23045 0.294251 7.87801C0.494822 7.44872 0.978339 7.15332 1.71436 7.00802C2.06237 6.92337 3.00195 6.80329 3.87706 6.8195L3.71238 6.81801ZM7.46601 0.666672C9.02341 0.666672 10.2722 1.92152 10.2722 3.48857C10.2722 5.05503 9.02341 6.31107 7.46601 6.31107C5.90861 6.31107 4.65982 5.05503 4.65982 3.48857C4.65982 1.92152 5.90861 0.666672 7.46601 0.666672ZM11.2756 1.13727C12.7799 1.13727 13.9612 2.56083 13.5589 4.1465C13.2873 5.21402 12.3041 5.92309 11.2087 5.89427C11.0989 5.89127 10.9909 5.88106 10.8864 5.86305C10.8106 5.84984 10.7724 5.76399 10.8154 5.70034C11.2332 5.08193 11.4714 4.33803 11.4714 3.53949C11.4714 2.70613 11.2111 1.9292 10.7592 1.29217C10.7449 1.27236 10.7342 1.24174 10.7485 1.21892C10.7604 1.20031 10.7825 1.1907 10.8034 1.1859C10.9556 1.15468 11.112 1.13727 11.2756 1.13727ZM3.72394 1.13721C3.8875 1.13721 4.0439 1.15462 4.19671 1.18584C4.21701 1.19064 4.23969 1.20085 4.25163 1.21886C4.26536 1.24168 4.25521 1.2723 4.24089 1.29211C3.78901 1.92914 3.52874 2.70607 3.52874 3.53943C3.52874 4.33796 3.76692 5.08187 4.18478 5.70028C4.22776 5.76393 4.18955 5.84978 4.11374 5.86299C4.00868 5.88161 3.90123 5.89121 3.7914 5.89421C2.69602 5.92303 1.71287 5.21396 1.44126 4.14644C1.03833 2.56077 2.21967 1.13721 3.72394 1.13721Z" fill="#936FFF"/>
</svg>
