<svg width="180" height="191" viewBox="0 0 180 191" fill="none" xmlns="http://www.w3.org/2000/svg">
<circle cx="90" cy="101" r="90" fill="url(#paint0_radial_2792_20961)"/>
<circle opacity="0.25" cx="90" cy="101" r="60" fill="url(#paint1_linear_2792_20961)"/>
<path d="M135.32 104.14V97.4302" stroke="#FFE65A" stroke-width="1.48" stroke-miterlimit="10" stroke-linecap="round"/>
<path d="M105.689 41.8273C107.595 41.8273 109.14 40.2823 109.14 38.3766C109.14 36.4708 107.595 34.9259 105.689 34.9259C103.783 34.9259 102.239 36.4708 102.239 38.3766C102.239 40.2823 103.783 41.8273 105.689 41.8273Z" fill="#81E4F7"/>
<path d="M44.9388 80.2966C46.545 80.2966 47.8471 78.9945 47.8471 77.3883C47.8471 75.782 46.545 74.4799 44.9388 74.4799C43.3325 74.4799 42.0304 75.782 42.0304 77.3883C42.0304 78.9945 43.3325 80.2966 44.9388 80.2966Z" fill="#6FD6B7"/>
<path d="M96.1528 8.40984L88.7367 7.33242L85.4203 0.612422C85.2351 0.237422 84.8531 0 84.4352 0C84.0173 0 83.6353 0.237188 83.4501 0.612422L80.1337 7.33242L72.7174 8.40984C71.8188 8.54039 71.4578 9.64898 72.1087 10.2834L77.475 15.5145L76.2079 22.9008C76.0546 23.7959 76.9975 24.4823 77.8017 24.0586L84.435 20.5716C91.6607 24.3701 91.2065 24.1852 91.5792 24.1852C91.807 24.1852 92.0336 24.1144 92.2251 23.9752C92.5631 23.7293 92.7328 23.313 92.6622 22.901L91.3952 15.5147L96.7612 10.2837C97.4118 9.65016 97.0528 8.54086 96.1528 8.40984Z" fill="#FA885B"/>
<path d="M83.8757 17.4523L78.5095 12.2213C77.8593 11.5875 78.2186 10.4784 79.1182 10.3477L86.5345 9.27024L88.1137 6.07031L85.4203 0.612422C85.2351 0.237422 84.8531 0 84.4352 0C84.0173 0 83.6353 0.237188 83.4501 0.612422L80.1337 7.33242L72.7174 8.40984C71.8188 8.54039 71.4578 9.64898 72.1087 10.2834L77.475 15.5145L76.2079 22.9008C76.0546 23.7959 76.9975 24.4823 77.8017 24.0586L83.2319 21.2039L83.8757 17.4523Z" fill="#EB6233"/>
<path d="M138.202 43.8176L133.739 39.3891L134.857 33.2018C134.992 32.4518 134.207 31.8696 133.528 32.2184L127.937 35.0946L122.398 32.1197C121.727 31.7597 120.93 32.3264 121.053 33.0795L122.061 39.2855L117.519 43.6341C116.969 44.1614 117.263 45.0947 118.016 45.2105L124.23 46.1698L126.963 51.8323C127.029 51.9694 127.126 52.0852 127.244 52.1723C127.704 52.5124 128.359 52.3561 128.616 51.8468L131.448 46.2338L137.678 45.3844C138.433 45.2824 138.744 44.3548 138.202 43.8176Z" fill="#FA885B"/>
<path d="M125.321 43.6941L124.313 37.488C124.191 36.7359 124.987 36.1678 125.659 36.5283L131.198 39.5032L133.976 38.0737L134.857 33.2018C134.992 32.4518 134.207 31.8696 133.528 32.2184L127.937 35.0946L122.398 32.1197C121.727 31.7597 120.93 32.3264 121.053 33.0795L122.061 39.2855L117.519 43.6341C116.969 44.1614 117.263 45.0947 118.016 45.2105L122.943 45.9717L125.321 43.6941Z" fill="#EB6233"/>
<path d="M74.4984 110.543C74.4984 110.543 70.8515 80.1923 60.3602 63.147C58.9441 60.9996 56.7079 59.9084 53.8082 61.4454L53.8057 61.4468C50.6896 63.1001 52.3987 66.4139 52.3987 66.4139C57.2097 72.39 67.9012 87.4798 74.4984 110.543Z" fill="#DF8807"/>
<path d="M132.666 88.6575C133.033 88.4339 133.388 88.2211 133.73 88.0191C135.037 87.0799 136.869 85.1306 135.06 82.3376C132.938 79.0627 129.261 81.3204 128.681 81.7069C109.636 95.3967 99.089 120 99.089 120C111.07 103.41 124.699 93.5098 132.666 88.6575Z" fill="#F2A602"/>
<path d="M47.355 90.3049C46.7006 89.8329 43.3249 87.6056 41.5485 90.4695C40.4521 92.2376 41.055 93.8086 42.8608 94.894L42.8627 94.8952C49.1507 98.6843 60.1825 106.596 69.8634 120C69.8634 120 61.8536 101.315 47.355 90.3049Z" fill="#DF8807"/>
<path d="M64.731 45.9717C64.8757 45.5402 64.7653 45.5745 61.9392 42.7706C62.6545 38.8111 62.7539 38.816 62.391 38.5472C62.0257 38.2767 62.0257 38.3913 58.4838 40.2134C54.9407 38.3107 54.9745 38.2163 54.6065 38.4785C54.2364 38.7436 54.3457 38.779 54.9836 42.7092L52.2794 45.2991C51.9515 45.6127 52.1261 46.1686 52.5754 46.238L56.276 46.8094C58.0237 50.4312 57.9396 50.4874 58.3926 50.4919C58.8478 50.4954 58.7803 50.403 60.5744 46.8473L64.2843 46.3418C64.4915 46.3132 64.6647 46.17 64.731 45.9717Z" fill="#EB6233"/>
<path d="M59.9599 45.7823C55.9853 45.1688 55.9551 45.2646 55.8194 44.8336C55.683 44.3995 55.791 44.4373 58.6675 41.6824L58.4235 40.1805C54.952 38.3163 54.9743 38.2163 54.6065 38.4785C54.2364 38.7436 54.3457 38.779 54.9836 42.7092C52.0793 45.4908 52.0003 45.4289 52.1357 45.8599C52.2724 46.2938 52.3399 46.2016 56.276 46.8094C57.9703 50.3205 57.8939 50.2523 58.0708 50.3838C58.345 50.5861 58.735 50.4926 58.8876 50.19L60.5228 46.9493L59.9599 45.7823Z" fill="#D5481B"/>
<path d="M89.205 33.3518L89.2021 33.3504C84.9635 31.1222 84.1361 31.0017 79.6668 33.3511L79.6659 33.3516C75.821 35.3728 75.8875 38.2237 75.9813 38.9831C78.2006 52.7119 82.3842 80.6147 84.4347 107.476C86.4787 80.7047 90.6412 52.8989 92.8664 39.1219C93.1176 37.5525 93.3963 35.5554 89.205 33.3518Z" fill="#F2A602"/>
<path d="M80.7159 38.9831C80.6219 38.2237 80.5556 35.3728 84.4005 33.3516L84.4014 33.3511C85.349 32.853 86.1318 32.467 86.8193 32.1877C84.4214 31.1897 83.1499 31.5202 79.6668 33.3511L79.6659 33.3516C75.821 35.3728 75.8875 38.2237 75.9813 38.9831C78.2006 52.7119 82.3842 80.6147 84.4347 107.476C85.0628 99.2475 85.8914 90.922 86.8021 82.9359C84.7399 64.8506 82.2553 48.5062 80.7159 38.9831Z" fill="#DF8807"/>
<path d="M120.266 59.3925C121.25 58.0777 120.994 57.004 120.819 56.5702L119.707 54.2655C119.181 53.1766 118.279 52.8731 117.88 52.7902L117.68 52.7592C117.68 52.7592 117.68 52.7592 115.599 52.4379C113.632 52.1344 112.557 53.8247 112.444 54.0122C100.01 75.8154 93.4617 111.4 93.4617 111.4C101.985 85.8823 113.396 68.4185 120.264 59.3958L120.266 59.3925Z" fill="#F2A602"/>
<path d="M140.79 116.29V109.58" stroke="#FFE65A" stroke-width="1.48" stroke-miterlimit="10" stroke-linecap="round"/>
<path d="M136.76 116.29V109.58" stroke="#FFE65A" stroke-width="1.48" stroke-miterlimit="10" stroke-linecap="round"/>
<path d="M152.594 118.898H84.1845C82.673 118.898 81.4476 120.124 81.4476 121.635V132.448C81.4476 133.96 82.673 135.185 84.1845 135.185H152.594C154.105 135.185 155.331 133.96 155.331 132.448V121.635C155.331 120.124 154.105 118.898 152.594 118.898Z" fill="#FFC305"/>
<path d="M152.675 135.199H84.1171C83.4601 135.186 82.8304 134.933 82.3463 134.489C81.8621 134.045 81.557 133.439 81.4881 132.785H81.8656H132.249C134.368 132.711 136.374 131.808 137.834 130.27C139.294 128.732 140.092 126.681 140.055 124.561V118.898H153.052C153.699 119.017 154.284 119.361 154.701 119.869C155.118 120.378 155.341 121.018 155.331 121.676V132.354C155.351 132.717 155.297 133.08 155.173 133.422C155.049 133.764 154.857 134.077 154.609 134.343C154.361 134.608 154.062 134.821 153.729 134.968C153.397 135.115 153.038 135.194 152.675 135.199Z" fill="#FFA50A"/>
<path d="M118.268 131.464V122.417" stroke="#FFE65A" stroke-width="1.48" stroke-miterlimit="10" stroke-linecap="round"/>
<path d="M112.834 131.464V122.417" stroke="#FFE65A" stroke-width="1.48" stroke-miterlimit="10" stroke-linecap="round"/>
<path d="M107.401 131.464V122.417" stroke="#FFE65A" stroke-width="1.48" stroke-miterlimit="10" stroke-linecap="round"/>
<path d="M101.968 131.464V122.417" stroke="#FFE65A" stroke-width="1.48" stroke-miterlimit="10" stroke-linecap="round"/>
<path d="M96.5343 131.464V122.417" stroke="#FFE65A" stroke-width="1.48" stroke-miterlimit="10" stroke-linecap="round"/>
<path d="M91.101 131.464V122.417" stroke="#FFE65A" stroke-width="1.48" stroke-miterlimit="10" stroke-linecap="round"/>
<path d="M85.6676 131.464V122.417" stroke="#FFE65A" stroke-width="1.48" stroke-miterlimit="10" stroke-linecap="round"/>
<path d="M150.868 131.41V122.377" stroke="#FFE65A" stroke-width="1.48" stroke-miterlimit="10" stroke-linecap="round"/>
<path d="M145.435 131.41V122.377" stroke="#FFE65A" stroke-width="1.48" stroke-miterlimit="10" stroke-linecap="round"/>
<path d="M140.001 131.41V122.377" stroke="#FFE65A" stroke-width="1.48" stroke-miterlimit="10" stroke-linecap="round"/>
<path d="M134.568 131.41V122.377" stroke="#FFE65A" stroke-width="1.48" stroke-miterlimit="10" stroke-linecap="round"/>
<path d="M129.134 131.41V122.377" stroke="#FFE65A" stroke-width="1.48" stroke-miterlimit="10" stroke-linecap="round"/>
<path d="M123.701 131.41V122.377" stroke="#FFE65A" stroke-width="1.48" stroke-miterlimit="10" stroke-linecap="round"/>
<g style="mix-blend-mode:lighten" opacity="0.38">
<path d="M112.888 118.939H96.0355C94.6059 118.939 93.4469 120.098 93.4469 121.528V132.597C93.4469 134.026 94.6059 135.185 96.0355 135.185H112.888C114.318 135.185 115.477 134.026 115.477 132.597V121.528C115.477 120.098 114.318 118.939 112.888 118.939Z" fill="white"/>
</g>
<path d="M157.663 135.279H89.2539C87.7424 135.279 86.517 136.505 86.517 138.016V148.829C86.517 150.341 87.7424 151.566 89.2539 151.566H157.663C159.175 151.566 160.4 150.341 160.4 148.829V138.016C160.4 136.505 159.175 135.279 157.663 135.279Z" fill="#FFC305"/>
<path d="M157.73 151.579H89.1864C88.5294 151.567 87.8997 151.314 87.4156 150.87C86.9315 150.426 86.6262 149.82 86.5574 149.166C86.6828 149.18 86.8095 149.18 86.9349 149.166H137.318C139.44 149.11 141.453 148.213 142.914 146.674C144.375 145.134 145.165 143.077 145.111 140.955V135.293H158.108C158.763 135.392 159.358 135.728 159.781 136.238C160.203 136.748 160.424 137.395 160.4 138.057V148.735C160.42 149.099 160.366 149.463 160.241 149.806C160.116 150.149 159.923 150.462 159.674 150.728C159.424 150.994 159.123 151.207 158.789 151.353C158.455 151.499 158.095 151.576 157.73 151.579Z" fill="#FFA50A"/>
<path d="M123.337 147.845V138.798" stroke="#FFE65A" stroke-width="1.48" stroke-miterlimit="10" stroke-linecap="round"/>
<path d="M117.904 147.845V138.798" stroke="#FFE65A" stroke-width="1.48" stroke-miterlimit="10" stroke-linecap="round"/>
<path d="M112.47 147.845V138.798" stroke="#FFE65A" stroke-width="1.48" stroke-miterlimit="10" stroke-linecap="round"/>
<path d="M107.037 147.845V138.798" stroke="#FFE65A" stroke-width="1.48" stroke-miterlimit="10" stroke-linecap="round"/>
<path d="M101.604 147.845V138.798" stroke="#FFE65A" stroke-width="1.48" stroke-miterlimit="10" stroke-linecap="round"/>
<path d="M96.1703 147.845V138.798" stroke="#FFE65A" stroke-width="1.48" stroke-miterlimit="10" stroke-linecap="round"/>
<path d="M90.7369 147.845V138.798" stroke="#FFE65A" stroke-width="1.48" stroke-miterlimit="10" stroke-linecap="round"/>
<path d="M155.937 147.804V138.758" stroke="#FFE65A" stroke-width="1.48" stroke-miterlimit="10" stroke-linecap="round"/>
<path d="M150.504 147.804V138.758" stroke="#FFE65A" stroke-width="1.48" stroke-miterlimit="10" stroke-linecap="round"/>
<path d="M145.071 147.804V138.758" stroke="#FFE65A" stroke-width="1.48" stroke-miterlimit="10" stroke-linecap="round"/>
<path d="M139.637 147.804V138.758" stroke="#FFE65A" stroke-width="1.48" stroke-miterlimit="10" stroke-linecap="round"/>
<path d="M134.204 147.804V138.758" stroke="#FFE65A" stroke-width="1.48" stroke-miterlimit="10" stroke-linecap="round"/>
<path d="M128.771 147.804V138.758" stroke="#FFE65A" stroke-width="1.48" stroke-miterlimit="10" stroke-linecap="round"/>
<g style="mix-blend-mode:lighten" opacity="0.38">
<path d="M117.944 135.32H101.091C99.6618 135.32 98.5028 136.479 98.5028 137.908V148.977C98.5028 150.407 99.6618 151.566 101.091 151.566H117.944C119.374 151.566 120.533 150.407 120.533 148.977V137.908C120.533 136.479 119.374 135.32 117.944 135.32Z" fill="white"/>
</g>
<path d="M148.67 151.405H80.2613C78.7497 151.405 77.5244 152.63 77.5244 154.141V164.954C77.5244 166.466 78.7497 167.691 80.2613 167.691H148.67C150.182 167.691 151.407 166.466 151.407 164.954V154.141C151.407 152.63 150.182 151.405 148.67 151.405Z" fill="#FFC305"/>
<path d="M148.765 167.705H80.2208C79.5638 167.692 78.934 167.44 78.4499 166.995C77.9658 166.551 77.6606 165.945 77.5917 165.291C77.7175 165.299 77.8435 165.299 77.9692 165.291H128.353C130.47 165.214 132.472 164.309 133.929 162.771C135.386 161.233 136.182 159.185 136.145 157.067V151.405H149.142C149.791 151.517 150.378 151.857 150.798 152.364C151.218 152.87 151.444 153.51 151.434 154.168V164.846C151.456 165.212 151.404 165.577 151.28 165.922C151.156 166.266 150.963 166.581 150.713 166.849C150.464 167.116 150.162 167.33 149.827 167.477C149.492 167.624 149.131 167.702 148.765 167.705Z" fill="#FFA50A"/>
<path d="M114.344 163.97V154.923" stroke="#FFE65A" stroke-width="1.48" stroke-miterlimit="10" stroke-linecap="round"/>
<path d="M108.911 163.97V154.923" stroke="#FFE65A" stroke-width="1.48" stroke-miterlimit="10" stroke-linecap="round"/>
<path d="M103.478 163.97V154.923" stroke="#FFE65A" stroke-width="1.48" stroke-miterlimit="10" stroke-linecap="round"/>
<path d="M98.0443 163.97V154.923" stroke="#FFE65A" stroke-width="1.48" stroke-miterlimit="10" stroke-linecap="round"/>
<path d="M92.611 163.97V154.923" stroke="#FFE65A" stroke-width="1.48" stroke-miterlimit="10" stroke-linecap="round"/>
<path d="M87.1776 163.97V154.923" stroke="#FFE65A" stroke-width="1.48" stroke-miterlimit="10" stroke-linecap="round"/>
<path d="M81.7443 163.97V154.923" stroke="#FFE65A" stroke-width="1.48" stroke-miterlimit="10" stroke-linecap="round"/>
<path d="M146.931 163.916V154.869" stroke="#FFE65A" stroke-width="1.48" stroke-miterlimit="10" stroke-linecap="round"/>
<path d="M141.498 163.916V154.869" stroke="#FFE65A" stroke-width="1.48" stroke-miterlimit="10" stroke-linecap="round"/>
<path d="M136.064 163.916V154.869" stroke="#FFE65A" stroke-width="1.48" stroke-miterlimit="10" stroke-linecap="round"/>
<path d="M130.631 163.916V154.869" stroke="#FFE65A" stroke-width="1.48" stroke-miterlimit="10" stroke-linecap="round"/>
<path d="M125.198 163.916V154.869" stroke="#FFE65A" stroke-width="1.48" stroke-miterlimit="10" stroke-linecap="round"/>
<path d="M119.764 163.916V154.869" stroke="#FFE65A" stroke-width="1.48" stroke-miterlimit="10" stroke-linecap="round"/>
<g style="mix-blend-mode:lighten" opacity="0.38">
<path d="M108.951 151.445H92.0986C90.669 151.445 89.51 152.604 89.51 154.033V165.102C89.51 166.532 90.669 167.691 92.0986 167.691H108.951C110.381 167.691 111.54 166.532 111.54 165.102V154.033C111.54 152.604 110.381 151.445 108.951 151.445Z" fill="white"/>
</g>
<path d="M122.582 135.293V135.199C122.434 133.945 122.312 132.677 122.259 131.397C122.077 127.174 122.596 122.951 123.796 118.898H84.0497V167.704H140.554V167.327C135.594 163.436 131.453 158.602 128.369 153.105C125.285 147.607 123.318 141.554 122.582 135.293Z" fill="#FA870A"/>
<path d="M98.3679 151.405H29.9588C28.4473 151.405 27.2219 152.63 27.2219 154.141V164.954C27.2219 166.466 28.4473 167.691 29.9588 167.691H98.3679C99.8795 167.691 101.105 166.466 101.105 164.954V154.141C101.105 152.63 99.8795 151.405 98.3679 151.405Z" fill="#FFC305"/>
<path d="M98.4488 167.705H29.8913C29.2367 167.689 28.6102 167.435 28.1289 166.991C27.6476 166.547 27.3444 165.943 27.2758 165.291C27.4015 165.299 27.5276 165.299 27.6533 165.291H78.0231C80.1426 165.217 82.1483 164.314 83.6084 162.776C85.0684 161.238 85.866 159.188 85.8294 157.067V151.405H98.8802C99.5325 151.506 100.125 151.844 100.545 152.353C100.965 152.863 101.183 153.509 101.159 154.168V164.846C101.181 165.215 101.127 165.584 101.001 165.931C100.874 166.278 100.678 166.595 100.424 166.863C100.17 167.131 99.8634 167.344 99.5237 167.489C99.1839 167.634 98.818 167.707 98.4488 167.705Z" fill="#FFA50A"/>
<path d="M64.042 163.97V154.923" stroke="#FFE65A" stroke-width="1.48" stroke-miterlimit="10" stroke-linecap="round"/>
<path d="M58.6086 163.97V154.923" stroke="#FFE65A" stroke-width="1.48" stroke-miterlimit="10" stroke-linecap="round"/>
<path d="M53.1753 163.97V154.923" stroke="#FFE65A" stroke-width="1.48" stroke-miterlimit="10" stroke-linecap="round"/>
<path d="M47.7419 163.97V154.923" stroke="#FFE65A" stroke-width="1.48" stroke-miterlimit="10" stroke-linecap="round"/>
<path d="M42.3086 163.97V154.923" stroke="#FFE65A" stroke-width="1.48" stroke-miterlimit="10" stroke-linecap="round"/>
<path d="M36.8752 163.97V154.923" stroke="#FFE65A" stroke-width="1.48" stroke-miterlimit="10" stroke-linecap="round"/>
<path d="M31.4418 163.97V154.923" stroke="#FFE65A" stroke-width="1.48" stroke-miterlimit="10" stroke-linecap="round"/>
<path d="M96.6422 163.916V154.869" stroke="#FFE65A" stroke-width="1.48" stroke-miterlimit="10" stroke-linecap="round"/>
<path d="M91.2088 163.916V154.869" stroke="#FFE65A" stroke-width="1.48" stroke-miterlimit="10" stroke-linecap="round"/>
<path d="M85.7755 163.916V154.869" stroke="#FFE65A" stroke-width="1.48" stroke-miterlimit="10" stroke-linecap="round"/>
<path d="M80.342 163.916V154.869" stroke="#FFE65A" stroke-width="1.48" stroke-miterlimit="10" stroke-linecap="round"/>
<path d="M74.9088 163.916V154.869" stroke="#FFE65A" stroke-width="1.48" stroke-miterlimit="10" stroke-linecap="round"/>
<path d="M69.4753 163.916V154.869" stroke="#FFE65A" stroke-width="1.48" stroke-miterlimit="10" stroke-linecap="round"/>
<g style="mix-blend-mode:lighten" opacity="0.38">
<path d="M58.6626 151.445H41.8097C40.3801 151.445 39.2211 152.604 39.2211 154.033V165.102C39.2211 166.532 40.3801 167.691 41.8097 167.691H58.6626C60.0922 167.691 61.2512 166.532 61.2512 165.102V154.033C61.2512 152.604 60.0922 151.445 58.6626 151.445Z" fill="white"/>
</g>
<path d="M89.146 135.064H20.7369C19.2254 135.064 18 136.289 18 137.801V148.613C18 150.125 19.2254 151.35 20.7369 151.35H89.146C90.6576 151.35 91.8829 150.125 91.8829 148.613V137.801C91.8829 136.289 90.6576 135.064 89.146 135.064Z" fill="#FFC305"/>
<path d="M89.2134 151.364H20.683C20.0259 151.351 19.3962 151.099 18.9121 150.654C18.428 150.21 18.1228 149.604 18.0539 148.95C18.1794 148.964 18.3059 148.964 18.4314 148.95H68.8147C70.9366 148.894 72.9492 147.997 74.4104 146.458C75.8716 144.918 76.6618 142.862 76.6075 140.74V135.077H89.6044C90.2591 135.176 90.8546 135.512 91.2773 136.022C91.7 136.532 91.9204 137.179 91.8964 137.841V148.519C91.9165 148.884 91.8621 149.25 91.7365 149.593C91.6108 149.937 91.4167 150.251 91.1657 150.517C90.9147 150.784 90.6122 150.996 90.2765 151.141C89.9409 151.287 89.5792 151.362 89.2134 151.364Z" fill="#FFA50A"/>
<path d="M54.8201 147.629V138.583" stroke="#FFE65A" stroke-width="1.48" stroke-miterlimit="10" stroke-linecap="round"/>
<path d="M49.3868 147.629V138.583" stroke="#FFE65A" stroke-width="1.48" stroke-miterlimit="10" stroke-linecap="round"/>
<path d="M43.9534 147.629V138.583" stroke="#FFE65A" stroke-width="1.48" stroke-miterlimit="10" stroke-linecap="round"/>
<path d="M38.52 147.629V138.583" stroke="#FFE65A" stroke-width="1.48" stroke-miterlimit="10" stroke-linecap="round"/>
<path d="M33.0867 147.629V138.583" stroke="#FFE65A" stroke-width="1.48" stroke-miterlimit="10" stroke-linecap="round"/>
<path d="M27.6533 147.629V138.583" stroke="#FFE65A" stroke-width="1.48" stroke-miterlimit="10" stroke-linecap="round"/>
<path d="M22.22 147.629V138.583" stroke="#FFE65A" stroke-width="1.48" stroke-miterlimit="10" stroke-linecap="round"/>
<path d="M87.4203 147.575V138.542" stroke="#FFE65A" stroke-width="1.48" stroke-miterlimit="10" stroke-linecap="round"/>
<path d="M81.987 147.575V138.542" stroke="#FFE65A" stroke-width="1.48" stroke-miterlimit="10" stroke-linecap="round"/>
<path d="M76.5535 147.575V138.542" stroke="#FFE65A" stroke-width="1.48" stroke-miterlimit="10" stroke-linecap="round"/>
<path d="M71.1202 147.575V138.542" stroke="#FFE65A" stroke-width="1.48" stroke-miterlimit="10" stroke-linecap="round"/>
<path d="M65.6868 147.575V138.542" stroke="#FFE65A" stroke-width="1.48" stroke-miterlimit="10" stroke-linecap="round"/>
<path d="M60.2535 147.575V138.542" stroke="#FFE65A" stroke-width="1.48" stroke-miterlimit="10" stroke-linecap="round"/>
<g style="mix-blend-mode:lighten" opacity="0.38">
<path d="M49.4272 135.104H32.5744C31.1447 135.104 29.9858 136.263 29.9858 137.693V148.762C29.9858 150.192 31.1447 151.351 32.5744 151.351H49.4272C50.8569 151.351 52.0158 150.192 52.0158 148.762V137.693C52.0158 136.263 50.8569 135.104 49.4272 135.104Z" fill="white"/>
</g>
<path d="M115.652 118.912H47.243C45.7315 118.912 44.5061 120.137 44.5061 121.649V132.462C44.5061 133.973 45.7315 135.199 47.243 135.199H115.652C117.164 135.199 118.389 133.973 118.389 132.462V121.649C118.389 120.137 117.164 118.912 115.652 118.912Z" fill="#FFC305"/>
<path d="M115.733 135.212H47.1757C46.5231 135.196 45.8983 134.945 45.4173 134.503C44.9363 134.062 44.6317 133.461 44.5601 132.812C44.6858 132.82 44.8119 132.82 44.9376 132.812H95.3075C97.427 132.738 99.4327 131.835 100.893 130.297C102.353 128.759 103.15 126.709 103.114 124.588V118.926H116.111C116.751 119.026 117.334 119.354 117.752 119.849C118.171 120.344 118.397 120.974 118.389 121.622V132.3C118.419 132.668 118.372 133.039 118.253 133.389C118.133 133.738 117.943 134.06 117.694 134.333C117.445 134.606 117.142 134.825 116.805 134.976C116.467 135.127 116.103 135.208 115.733 135.212Z" fill="#FFA50A"/>
<path d="M81.3262 131.477V122.444" stroke="#FFE65A" stroke-width="1.48" stroke-miterlimit="10" stroke-linecap="round"/>
<path d="M75.8929 131.477V122.444" stroke="#FFE65A" stroke-width="1.48" stroke-miterlimit="10" stroke-linecap="round"/>
<path d="M70.4595 131.477V122.444" stroke="#FFE65A" stroke-width="1.48" stroke-miterlimit="10" stroke-linecap="round"/>
<path d="M65.0262 131.477V122.444" stroke="#FFE65A" stroke-width="1.48" stroke-miterlimit="10" stroke-linecap="round"/>
<path d="M59.5928 131.477V122.444" stroke="#FFE65A" stroke-width="1.48" stroke-miterlimit="10" stroke-linecap="round"/>
<path d="M54.1595 131.477V122.444" stroke="#FFE65A" stroke-width="1.48" stroke-miterlimit="10" stroke-linecap="round"/>
<path d="M48.7261 131.477V122.444" stroke="#FFE65A" stroke-width="1.48" stroke-miterlimit="10" stroke-linecap="round"/>
<path d="M113.927 131.437V122.391" stroke="#FFE65A" stroke-width="1.48" stroke-miterlimit="10" stroke-linecap="round"/>
<path d="M108.493 131.437V122.391" stroke="#FFE65A" stroke-width="1.48" stroke-miterlimit="10" stroke-linecap="round"/>
<path d="M103.06 131.437V122.391" stroke="#FFE65A" stroke-width="1.48" stroke-miterlimit="10" stroke-linecap="round"/>
<path d="M97.6263 131.437V122.391" stroke="#FFE65A" stroke-width="1.48" stroke-miterlimit="10" stroke-linecap="round"/>
<path d="M92.1931 131.437V122.391" stroke="#FFE65A" stroke-width="1.48" stroke-miterlimit="10" stroke-linecap="round"/>
<path d="M86.7597 131.437V122.391" stroke="#FFE65A" stroke-width="1.48" stroke-miterlimit="10" stroke-linecap="round"/>
<g style="mix-blend-mode:lighten" opacity="0.38">
<path d="M75.9469 118.953H59.094C57.6644 118.953 56.5054 120.112 56.5054 121.541V132.61C56.5054 134.04 57.6644 135.199 59.094 135.199H75.9469C77.3765 135.199 78.5355 134.04 78.5355 132.61V121.541C78.5355 120.112 77.3765 118.953 75.9469 118.953Z" fill="white"/>
</g>
<path d="M150.935 116.013H82.5262C81.0147 116.013 79.7893 117.239 79.7893 118.75V129.563C79.7893 131.075 81.0147 132.3 82.5262 132.3H150.935C152.447 132.3 153.672 131.075 153.672 129.563V118.75C153.672 117.239 152.447 116.013 150.935 116.013Z" fill="#FFC305"/>
<path d="M151.003 132.3H82.4588C81.8018 132.287 81.1721 132.035 80.688 131.591C80.2039 131.146 79.8986 130.54 79.8298 129.887C79.9555 129.894 80.0816 129.894 80.2073 129.887H130.591C132.708 129.809 134.71 128.905 136.167 127.367C137.624 125.829 138.42 123.781 138.383 121.663V116H151.326C151.976 116.115 152.563 116.458 152.983 116.967C153.403 117.476 153.629 118.118 153.618 118.777V129.442C153.64 129.803 153.589 130.164 153.469 130.505C153.348 130.845 153.16 131.158 152.916 131.425C152.672 131.692 152.377 131.907 152.048 132.057C151.72 132.207 151.364 132.29 151.003 132.3Z" fill="#FFA50A"/>
<path d="M116.609 128.579V119.532" stroke="#FFE65A" stroke-width="1.48" stroke-miterlimit="10" stroke-linecap="round"/>
<path d="M111.176 128.579V119.532" stroke="#FFE65A" stroke-width="1.48" stroke-miterlimit="10" stroke-linecap="round"/>
<path d="M105.743 128.579V119.532" stroke="#FFE65A" stroke-width="1.48" stroke-miterlimit="10" stroke-linecap="round"/>
<path d="M100.309 128.579V119.532" stroke="#FFE65A" stroke-width="1.48" stroke-miterlimit="10" stroke-linecap="round"/>
<path d="M94.876 128.579V119.532" stroke="#FFE65A" stroke-width="1.48" stroke-miterlimit="10" stroke-linecap="round"/>
<path d="M89.4426 128.579V119.532" stroke="#FFE65A" stroke-width="1.48" stroke-miterlimit="10" stroke-linecap="round"/>
<path d="M84.0093 128.579V119.532" stroke="#FFE65A" stroke-width="1.48" stroke-miterlimit="10" stroke-linecap="round"/>
<path d="M143.776 128.525V119.478" stroke="#FFE65A" stroke-width="1.48" stroke-miterlimit="10" stroke-linecap="round"/>
<path d="M138.343 128.525V119.478" stroke="#FFE65A" stroke-width="1.48" stroke-miterlimit="10" stroke-linecap="round"/>
<path d="M132.91 128.525V119.478" stroke="#FFE65A" stroke-width="1.48" stroke-miterlimit="10" stroke-linecap="round"/>
<path d="M127.476 128.525V119.478" stroke="#FFE65A" stroke-width="1.48" stroke-miterlimit="10" stroke-linecap="round"/>
<path d="M122.043 128.525V119.478" stroke="#FFE65A" stroke-width="1.48" stroke-miterlimit="10" stroke-linecap="round"/>
<g style="mix-blend-mode:lighten" opacity="0.38">
<path d="M111.217 116.054H94.3637C92.934 116.054 91.7751 117.213 91.7751 118.642V129.711C91.7751 131.141 92.934 132.3 94.3637 132.3H111.217C112.646 132.3 113.805 131.141 113.805 129.711V118.642C113.805 117.213 112.646 116.054 111.217 116.054Z" fill="white"/>
</g>
<path d="M158.31 132.394H89.901C88.3895 132.394 87.1641 133.62 87.1641 135.131V145.944C87.1641 147.456 88.3895 148.681 89.901 148.681H158.31C159.822 148.681 161.047 147.456 161.047 145.944V135.131C161.047 133.62 159.822 132.394 158.31 132.394Z" fill="#FFC305"/>
<path d="M158.391 148.681H89.8336C89.179 148.665 88.5525 148.411 88.0712 147.967C87.5899 147.523 87.2866 146.919 87.2181 146.268C87.3435 146.281 87.4701 146.281 87.5955 146.268H137.965C140.083 146.194 142.086 145.292 143.546 143.757C145.006 142.222 145.805 140.175 145.772 138.057V132.394H158.769C159.421 132.496 160.013 132.834 160.433 133.343C160.853 133.853 161.071 134.498 161.047 135.158V145.836C161.067 146.199 161.013 146.562 160.889 146.904C160.766 147.246 160.574 147.559 160.326 147.825C160.078 148.091 159.778 148.303 159.446 148.451C159.113 148.598 158.755 148.676 158.391 148.681Z" fill="#FFA50A"/>
<path d="M123.984 144.96V135.913" stroke="#FFE65A" stroke-width="1.48" stroke-miterlimit="10" stroke-linecap="round"/>
<path d="M118.551 144.96V135.913" stroke="#FFE65A" stroke-width="1.48" stroke-miterlimit="10" stroke-linecap="round"/>
<path d="M113.117 144.96V135.913" stroke="#FFE65A" stroke-width="1.48" stroke-miterlimit="10" stroke-linecap="round"/>
<path d="M107.684 144.96V135.913" stroke="#FFE65A" stroke-width="1.48" stroke-miterlimit="10" stroke-linecap="round"/>
<path d="M102.251 144.96V135.913" stroke="#FFE65A" stroke-width="1.48" stroke-miterlimit="10" stroke-linecap="round"/>
<path d="M96.8175 144.96V135.913" stroke="#FFE65A" stroke-width="1.48" stroke-miterlimit="10" stroke-linecap="round"/>
<path d="M91.3841 144.96V135.913" stroke="#FFE65A" stroke-width="1.48" stroke-miterlimit="10" stroke-linecap="round"/>
<path d="M145.718 144.906V135.859" stroke="#FFE65A" stroke-width="1.48" stroke-miterlimit="10" stroke-linecap="round"/>
<path d="M140.284 144.906V135.859" stroke="#FFE65A" stroke-width="1.48" stroke-miterlimit="10" stroke-linecap="round"/>
<path d="M134.851 144.906V135.859" stroke="#FFE65A" stroke-width="1.48" stroke-miterlimit="10" stroke-linecap="round"/>
<path d="M129.418 144.906V135.859" stroke="#FFE65A" stroke-width="1.48" stroke-miterlimit="10" stroke-linecap="round"/>
<g style="mix-blend-mode:lighten" opacity="0.38">
<path d="M118.605 132.435H101.752C100.322 132.435 99.1634 133.594 99.1634 135.023V146.092C99.1634 147.522 100.322 148.681 101.752 148.681H118.605C120.034 148.681 121.193 147.522 121.193 146.092V135.023C121.193 133.594 120.034 132.435 118.605 132.435Z" fill="white"/>
</g>
<path d="M147.12 148.775H78.7108C77.1992 148.775 75.9739 150 75.9739 151.512V162.325C75.9739 163.836 77.1992 165.062 78.7108 165.062H147.12C148.631 165.062 149.857 163.836 149.857 162.325V151.512C149.857 150 148.631 148.775 147.12 148.775Z" fill="#FFC305"/>
<path d="M147.187 165.062H78.6434C77.9747 165.065 77.3284 164.821 76.8301 164.375C76.3318 163.929 76.0171 163.313 75.9469 162.648C76.0724 162.662 76.1989 162.662 76.3244 162.648H126.708C128.829 162.592 130.842 161.695 132.303 160.156C133.765 158.616 134.555 156.56 134.5 154.438V148.775H147.497C148.14 148.873 148.726 149.199 149.148 149.695C149.569 150.19 149.797 150.821 149.789 151.472V162.15C149.819 162.514 149.774 162.88 149.657 163.226C149.541 163.572 149.356 163.891 149.112 164.163C148.869 164.436 148.573 164.656 148.242 164.81C147.911 164.965 147.552 165.05 147.187 165.062Z" fill="#FFA50A"/>
<path d="M112.794 161.341V152.294" stroke="#FFE65A" stroke-width="1.48" stroke-miterlimit="10" stroke-linecap="round"/>
<path d="M107.361 161.341V152.294" stroke="#FFE65A" stroke-width="1.48" stroke-miterlimit="10" stroke-linecap="round"/>
<path d="M101.927 161.341V152.294" stroke="#FFE65A" stroke-width="1.48" stroke-miterlimit="10" stroke-linecap="round"/>
<path d="M96.4939 161.341V152.294" stroke="#FFE65A" stroke-width="1.48" stroke-miterlimit="10" stroke-linecap="round"/>
<path d="M91.0605 161.341V152.294" stroke="#FFE65A" stroke-width="1.48" stroke-miterlimit="10" stroke-linecap="round"/>
<path d="M85.6272 161.341V152.294" stroke="#FFE65A" stroke-width="1.48" stroke-miterlimit="10" stroke-linecap="round"/>
<path d="M80.1938 161.341V152.294" stroke="#FFE65A" stroke-width="1.48" stroke-miterlimit="10" stroke-linecap="round"/>
<path d="M145.394 161.287V152.254" stroke="#FFE65A" stroke-width="1.48" stroke-miterlimit="10" stroke-linecap="round"/>
<path d="M139.961 161.287V152.254" stroke="#FFE65A" stroke-width="1.48" stroke-miterlimit="10" stroke-linecap="round"/>
<path d="M134.527 161.287V152.254" stroke="#FFE65A" stroke-width="1.48" stroke-miterlimit="10" stroke-linecap="round"/>
<path d="M129.094 161.287V152.254" stroke="#FFE65A" stroke-width="1.48" stroke-miterlimit="10" stroke-linecap="round"/>
<path d="M123.661 161.287V152.254" stroke="#FFE65A" stroke-width="1.48" stroke-miterlimit="10" stroke-linecap="round"/>
<path d="M118.227 161.287V152.254" stroke="#FFE65A" stroke-width="1.48" stroke-miterlimit="10" stroke-linecap="round"/>
<g style="mix-blend-mode:lighten" opacity="0.38">
<path d="M107.401 148.816H90.5482C89.1185 148.816 87.9596 149.975 87.9596 151.404V162.473C87.9596 163.903 89.1185 165.062 90.5482 165.062H107.401C108.831 165.062 109.99 163.903 109.99 162.473V151.404C109.99 149.975 108.831 148.816 107.401 148.816Z" fill="white"/>
</g>
<defs>
<radialGradient id="paint0_radial_2792_20961" cx="0" cy="0" r="1" gradientUnits="userSpaceOnUse" gradientTransform="translate(90 101) rotate(92.5448) scale(90.0888)">
<stop offset="0.375" stop-color="#FFE65A" stop-opacity="0.5"/>
<stop offset="1" stop-color="#FFE65A" stop-opacity="0"/>
</radialGradient>
<linearGradient id="paint1_linear_2792_20961" x1="-6" y1="276.2" x2="170.595" y2="259.559" gradientUnits="userSpaceOnUse">
<stop stop-color="#F3BB4D"/>
<stop offset="1" stop-color="#F4EF89"/>
</linearGradient>
</defs>
</svg>
