<svg width="20" height="20" viewBox="0 0 20 20" fill="none" xmlns="http://www.w3.org/2000/svg">
<path d="M1.98673 0.65358C1.72148 0.653649 1.46228 0.732821 1.24227 0.880972C1.02226 1.02912 0.851427 1.23952 0.751617 1.48527C0.651808 1.73102 0.627555 2.00095 0.681961 2.26056C0.736366 2.52016 0.866957 2.75764 1.05704 2.94264L8.11433 9.99993L1.05704 17.0572C0.929073 17.1801 0.826909 17.3272 0.756529 17.4901C0.686149 17.6529 0.648968 17.8282 0.647164 18.0056C0.645359 18.1829 0.678967 18.3589 0.746019 18.5231C0.813071 18.6874 0.91222 18.8366 1.03766 18.962C1.1631 19.0875 1.3123 19.1866 1.47654 19.2537C1.64078 19.3207 1.81674 19.3543 1.99413 19.3525C2.17152 19.3507 2.34676 19.3135 2.5096 19.2432C2.67244 19.1728 2.81959 19.0706 2.94245 18.9426L9.99975 11.8853L17.057 18.9426C17.1799 19.0706 17.3271 19.1728 17.4899 19.2432C17.6527 19.3135 17.828 19.3507 18.0054 19.3525C18.1828 19.3543 18.3587 19.3207 18.523 19.2537C18.6872 19.1866 18.8364 19.0875 18.9618 18.962C19.0873 18.8366 19.1864 18.6874 19.2535 18.5231C19.3205 18.3589 19.3541 18.1829 19.3523 18.0056C19.3505 17.8282 19.3133 17.6529 19.243 17.4901C19.1726 17.3272 19.0704 17.1801 18.9425 17.0572L11.8852 9.99993L18.9425 2.94264C19.1351 2.75536 19.2667 2.51424 19.32 2.25088C19.3733 1.98752 19.3458 1.71421 19.241 1.46676C19.1363 1.21931 18.9593 1.00927 18.7331 0.864166C18.507 0.719061 18.2423 0.645659 17.9737 0.65358C17.6273 0.663901 17.2985 0.808673 17.057 1.05723L9.99975 8.11452L2.94245 1.05723C2.8182 0.9295 2.66961 0.827973 2.50546 0.758644C2.3413 0.689315 2.16492 0.65359 1.98673 0.65358Z" fill="#EFF2FC"/>
</svg>
