<svg width="32" height="32" viewBox="0 0 32 32" fill="none" xmlns="http://www.w3.org/2000/svg">
<path d="M2.66663 8.66667C2.66663 7.5621 3.56206 6.66667 4.66663 6.66667H27.3333C28.4379 6.66667 29.3333 7.5621 29.3333 8.66667C29.3333 9.77124 28.4379 10.6667 27.3333 10.6667H4.66663C3.56206 10.6667 2.66663 9.77124 2.66663 8.66667Z" fill="#EFF2FC"/>
<path d="M2.66663 16.6667C2.66663 15.5621 3.56206 14.6667 4.66663 14.6667H27.3333C28.4379 14.6667 29.3333 15.5621 29.3333 16.6667C29.3333 17.7712 28.4379 18.6667 27.3333 18.6667H4.66663C3.56206 18.6667 2.66663 17.7712 2.66663 16.6667Z" fill="#EFF2FC"/>
<path d="M2.66663 24.6667C2.66663 23.5621 3.56206 22.6667 4.66663 22.6667H27.3333C28.4379 22.6667 29.3333 23.5621 29.3333 24.6667C29.3333 25.7712 28.4379 26.6667 27.3333 26.6667H4.66663C3.56206 26.6667 2.66663 25.7712 2.66663 24.6667Z" fill="#EFF2FC"/>
</svg>
