<svg width="183" height="184" viewBox="0 0 183 184" fill="none" xmlns="http://www.w3.org/2000/svg">
<path d="M14.0407 92.1803C14.0407 92.1803 46.0271 83.6515 65.3506 81.6488C84.674 79.6461 108.745 75.5371 108.745 75.5371C108.745 75.5371 109.754 103.549 109.122 107.226L108.491 110.904L16.2696 136.646L14.0407 92.1803Z" fill="#D5481B"/>
<path d="M182.195 93.0695C182.195 93.0695 109.219 74.9416 108.745 75.5372C108.271 76.1328 109.86 119.087 109.86 119.087L180.142 136.188L182.195 93.0695Z" fill="#D5481B"/>
<path d="M108.885 76.5903L109.122 116.515L33.2325 135.592V113.77C33.2325 113.77 79.7423 106.053 92.6158 94.5025C105.489 82.9524 103.611 77.2378 103.611 77.2378L108.885 76.5903Z" fill="#932206"/>
<path d="M127.718 108.763C127.27 107.77 117.828 85.827 116.459 84.0401C115.274 82.5035 115.432 80.4145 115.432 78.4895C115.432 76.763 115.801 74.6999 114.932 73.3101C113.953 71.7458 113.105 70.106 112.396 68.4069C111.384 65.7923 109.572 63.5512 107.209 61.9931C106.971 61.8133 106.712 61.6626 106.437 61.5442L105.963 61.6391C105.498 62.2779 105.586 63.685 105.367 64.531C105.051 65.7136 104.805 65.6877 103.673 65.5841C102.944 65.4067 102.187 65.3686 101.444 65.4719C100.632 65.801 99.8027 66.0891 98.9605 66.3351C95.4503 66.9912 91.7559 67.5782 88.1755 68.0616C85.8324 68.3551 80.0056 69.1234 79.0929 69.65C75.3371 71.8253 71.8093 73.8021 67.9744 75.8653C65.6665 77.1083 54.2233 79.8102 50.4674 80.639C48.2736 81.1137 32.9166 82.141 30.3367 81.5022C29.5644 81.3036 21.842 79.4563 21.0171 79.0592C21.0171 81.4936 23.2461 85.896 23.9306 88.6498C24.1938 89.7029 25.9138 104.594 26.142 105.535C26.5808 107.261 29.7048 109.531 30.0383 111.336C30.3717 113.14 40.5688 110.8 41.227 112.363C41.5078 113.036 46.4922 110.429 46.422 111.249C46.264 112.907 48.8791 107.382 50.4938 108.124C58.3917 111.715 64.6486 118.017 72.3709 121.858C74.6964 123.015 76.9517 121.306 79.3913 120.676C82.3749 119.908 85.2884 118.803 88.3422 118.336C91.4541 117.939 94.5395 117.363 97.5827 116.61C103.252 115.047 108.991 113.77 114.686 112.415C117.373 111.703 120.109 111.189 122.873 110.878C123.839 110.68 128.06 109.583 127.718 108.763Z" fill="#EFF2FC"/>
<path d="M126.48 104.999C126.123 104.042 125.643 103.134 125.05 102.297C124.074 100.647 123.195 98.9441 122.417 97.1957C121.452 95.2017 120.662 93.1731 119.785 91.1531C119.249 89.9014 118.108 86.647 117.003 86.0945L116.582 85.1364C114.265 86.0859 112.308 89.1072 110.781 91.0236C109.482 92.6465 106.788 96.1512 104.761 96.0822C103.726 96.0822 102.453 95.4952 101.33 95.3657C99.4255 95.1412 97.5301 94.96 95.6258 94.701C92.7211 94.3125 89.676 94.4852 86.8504 93.9154C84.7462 93.4689 82.6105 93.1804 80.4619 93.0522C78.3646 92.9573 75.7056 92.3098 73.7925 93.0522C71.7215 93.9154 69.6856 95.288 67.6497 96.3325C65.6138 97.377 63.7535 98.9222 61.8141 100.044C61.8141 103.402 62.6916 106.683 63.2094 109.972C63.5165 111.853 63.4902 113.252 65.0435 114.288C66.4475 115.246 68.1148 115.859 69.3522 117.042C73.7838 113.666 76.5568 107.624 82.3486 106.527C87.4032 105.569 92.6772 106.942 97.8196 106.942C102.962 106.942 108.412 106.838 113.536 107.615C116.169 108.012 118.802 108.323 121.434 108.573C122.821 108.711 127.358 109.903 127.577 108.159C127.718 107.58 126.717 105.716 126.48 104.999Z" fill="#C2C8DE"/>
<path d="M78.4698 70.3578C75.1878 72.9475 72.2481 75.943 68.7116 78.2564C67.1803 79.0582 65.4995 79.5457 63.771 79.6894C62.7275 79.8316 61.6954 80.0451 60.682 80.3282C59.8379 80.6657 58.9531 80.8949 58.0494 81.0102C59.9361 81.3382 61.858 81.6489 63.7622 82.1151C65.2891 82.4863 66.9389 83.3582 68.1499 82.4C71.0985 80.0606 73.5117 77.2206 76.1005 74.5186C77.1447 73.431 78.3119 72.4987 79.3737 71.4282C79.9448 70.771 80.5764 70.1671 81.2604 69.6241L81.4535 69.2443C80.3302 69.6155 79.4527 69.5464 78.4698 70.3578Z" fill="#DADFF1"/>
<path d="M112.413 70.0988C111.536 68.5968 110.658 68.4242 109.087 67.8372C107.753 67.3451 106.455 66.5941 105.077 66.2402C104.362 66.0069 103.623 65.8478 102.874 65.7654C102.248 65.7739 101.638 65.963 101.119 66.3092H101.049L100.479 66.6804C101.69 67.1466 102.787 67.9666 103.989 68.4673C105.191 68.968 106.621 69.719 107.815 70.3751C108.912 70.9448 110.088 71.3937 111.185 72.0238C112.163 72.7055 113.183 73.3282 114.238 73.8884C113.709 72.5898 113.1 71.3243 112.413 70.0988Z" fill="#DADFF1"/>
<path d="M56.1451 89.4008L56.5575 91.0409C55.9759 91.8671 55.454 92.7325 54.9955 93.6306C54.469 94.4939 53.0386 95.7628 53.1088 96.7642C56.4698 95.5643 59.8747 92.8365 63.0952 91.0409C67.1583 88.7706 71.5284 86.8197 75.5476 84.4545C69.4136 86.8111 62.3493 87.3031 56.1451 89.4008Z" fill="#DADFF1"/>
<path d="M62.7091 106.881C62.2265 104.792 61.4806 102.712 61.1472 100.623L60.5679 100.044C58.6549 100.519 51.2046 102.358 49.1599 102.548C47.1152 102.738 40.6477 102.254 38.8663 103.092C39.2437 104.576 48.2736 105.897 48.5983 107.46C48.9581 109.186 50.994 109.048 52.6438 109.376C54.627 109.773 56.3908 110.187 58.3214 110.74C60.252 111.292 62.051 111.085 63.7359 112.225C63.1655 110.671 63.0953 108.565 62.7091 106.881Z" fill="#DADFF1"/>
<path d="M20.71 79.2318C20.903 80.0174 20.982 80.8202 21.254 81.6143C21.5261 82.4085 21.9385 83.3408 22.2807 84.204C22.623 85.0673 22.8073 85.7665 23.1583 86.5348C23.317 87.2357 23.6152 87.8988 24.0358 88.4857C24.981 87.1866 26.0006 85.9415 27.0897 84.7565C27.8532 83.7724 29.1168 81.9251 30.2839 81.4762C30.3103 81.4849 23.2022 80.6216 20.71 79.2318Z" fill="#DADFF1"/>
<path d="M23.1064 116.846C23.1064 116.846 26.2632 122.467 31.8852 122.9C37.5072 123.334 70.6329 127.335 70.6329 127.335C70.6329 127.335 126.899 132.48 138.909 130.822C150.918 129.164 154.046 124.959 153.897 123.541C153.807 122.674 153.686 120.419 153.481 118.512C153.418 117.571 153.246 116.639 152.967 115.737C152.74 115.206 152.333 114.769 151.815 114.501C151.708 114.44 151.62 114.354 151.557 114.249C151.557 114.249 150.676 110.013 147.597 107.36C147.554 107.303 147.489 107.267 147.434 107.219C144.956 105.18 130.952 101.756 122.854 99.3987C120.463 98.7022 118.588 98.0956 117.676 97.6465C116.228 96.8211 114.84 95.8981 113.522 94.884C110.74 92.8552 107.036 89.9966 103.153 86.9746C96.6352 81.9108 89.5804 76.4206 85.524 73.6612C81.3708 70.8584 78.5723 66.728 76.8303 63.3571C75.1575 60.1169 74.2003 57.7572 74.2003 57.7572C73.1918 56.0987 71.1131 54.9992 68.1932 54.7147C62.3701 54.1378 54.2597 56.0832 49.907 59.7385C43.3733 65.2272 33.0713 66.589 33.0713 66.589C33.0713 66.589 29.0329 76.7237 26.8931 80.4039C24.7533 84.0841 24.9502 102.122 24.9502 102.122L23.925 110.171L23.1064 116.846Z" fill="url(#paint0_linear_129_327)"/>
<path d="M74.6073 57.9738C73.2882 55.3986 71.0999 53.3547 68.4172 52.1923C65.7344 51.03 62.7243 50.8214 59.9024 51.6024C56.4797 52.5477 48.0277 60.0696 47.606 63.0808C46.72 69.4465 89.1718 82.2385 89.1718 82.2385L92.8879 79.0185C89.3412 76.7846 85.9858 74.2695 82.8554 71.4983C80.4466 69.2972 77.2868 63.1808 74.6073 57.9738Z" fill="#A3F1F7"/>
<path d="M24.9503 102.122L23.9251 110.171L43.9514 111.727C43.9514 111.727 54.9102 100.198 48.1509 96.925C41.3917 93.6523 45.561 91.6467 51.112 85.6816C56.663 79.7166 76.5376 73.2931 84.5949 77.7321C86.3551 78.7001 76.8575 67.706 71.5177 60.2944C70.1104 58.3178 68.124 56.8101 65.8234 55.9724C63.5227 55.1348 61.0171 55.0069 58.6407 55.6058C55.2954 56.4756 52.132 57.8857 49.928 59.7362C45.8456 63.1675 38.3211 63.6564 33.2515 63.5402C32.5983 63.5222 31.9481 63.6344 31.3402 63.8702C30.7323 64.1059 30.1791 64.4602 29.7141 64.9118C29.2491 65.3634 28.8819 65.9029 28.6345 66.4979C28.387 67.0928 28.2646 67.7308 28.2745 68.3735C28.3486 72.6074 28.1888 78.2262 26.9141 80.4016C24.7583 84.0671 24.9503 102.122 24.9503 102.122Z" fill="url(#paint1_linear_129_327)"/>
<path d="M20.5853 92.8785C20.4216 92.5079 20.3548 92.103 20.3911 91.7005C20.4273 91.2981 20.5654 90.9109 20.7927 90.5744C21.02 90.2379 21.3293 89.9627 21.6925 89.7739C22.0556 89.5852 22.461 89.4889 22.8717 89.4937L35.0142 89.6318L66.3797 75.6328C65.8457 73.6063 65.8959 71.4735 66.5247 69.4734C67.1377 67.6185 72.2464 65.2006 76.8628 63.3639C78.6048 66.7349 81.4034 70.8652 85.5565 73.6681C93.6162 79.1064 113.731 95.6937 117.708 97.6534C121.801 99.6691 144.49 104.581 147.633 107.364C150.703 110.019 151.592 114.254 151.592 114.254C151.628 114.371 151.705 114.471 151.81 114.536C152.109 114.718 152.213 115.058 152.537 115.835C152.752 116.325 152.834 117.393 152.955 118.593L138.993 124.032L85.0394 121.756C85.0394 121.756 84.2967 116.433 86.2461 112.846C88.1955 109.259 96.75 102.866 101.093 99.2222C101.955 98.4985 102.525 97.3966 102.891 96.1003C97.9968 94.9985 91.8112 89.6912 87.3412 88.2595C85.5062 87.681 82.8488 86.9336 80.0998 86.0499C72.7897 86.8638 65.6822 88.9364 59.1022 92.173C44.5013 99.3346 54.7442 112.566 54.7442 112.566L26.3242 105.865L24.9503 102.122L20.5853 92.8785ZM71.1276 81.6622C71.4774 81.4011 71.7405 81.0437 71.8837 80.6354C72.0269 80.2271 72.0437 79.7862 71.9321 79.3685C71.8205 78.9508 71.5854 78.575 71.2566 78.2888C70.9278 78.0025 70.5201 77.8186 70.085 77.7604C69.65 77.7021 69.2071 77.7722 68.8125 77.9616C68.4179 78.151 68.0894 78.4513 67.8683 78.8245C67.6473 79.1977 67.5438 79.627 67.5708 80.0581C67.5979 80.4892 67.7543 80.9027 68.0204 81.2463C68.1965 81.4745 68.4166 81.6663 68.6682 81.8107C68.9197 81.9551 69.1977 82.0494 69.4863 82.088C69.7749 82.1266 70.0685 82.1089 70.3501 82.0358C70.6317 81.9628 70.8959 81.8358 71.1276 81.6622ZM61.835 85.932C62.1847 85.6709 62.4478 85.3135 62.591 84.9052C62.7342 84.4969 62.7511 84.056 62.6395 83.6383C62.5278 83.2206 62.2928 82.8448 61.964 82.5586C61.6352 82.2723 61.2275 82.0884 60.7924 82.0302C60.3573 81.972 59.9145 82.042 59.5199 82.2314C59.1253 82.4208 58.7967 82.7211 58.5757 83.0943C58.3547 83.4675 58.2511 83.8968 58.2782 84.3279C58.3053 84.759 58.4617 85.1725 58.7278 85.5161C58.9042 85.7455 59.1251 85.9383 59.3777 86.0834C59.6303 86.2284 59.9096 86.3228 60.1995 86.3611C60.4893 86.3995 60.784 86.381 61.0666 86.3067C61.3492 86.2324 61.614 86.1039 61.8458 85.9284L61.835 85.932ZM52.7485 90.5685C53.0981 90.3075 53.3611 89.9503 53.5043 89.5422C53.6475 89.134 53.6645 88.6933 53.5531 88.2757C53.4417 87.8581 53.2069 87.4823 52.8784 87.1959C52.5499 86.9096 52.1425 86.7255 51.7076 86.6669C51.2728 86.6084 50.83 86.678 50.4354 86.8669C50.0407 87.0559 49.7119 87.3557 49.4905 87.7285C49.269 88.1013 49.165 88.5303 49.1914 88.9613C49.2179 89.3923 49.3736 89.8058 49.639 90.1497C49.8153 90.3797 50.0362 90.573 50.2888 90.7185C50.5415 90.864 50.821 90.9588 51.1111 90.9974C51.4013 91.036 51.6963 91.0177 51.9792 90.9434C52.2621 90.8692 52.5272 90.7406 52.7592 90.5649L52.7485 90.5685Z" fill="#137DA6"/>
<path d="M113.576 107.684C119.691 110.491 126.975 110.137 138.068 109.582C144.172 109.286 146.643 108.233 147.617 107.345C147.574 107.288 147.509 107.252 147.454 107.204C144.254 104.557 121.691 99.6088 117.693 97.6336C116.245 96.8082 114.857 95.8852 113.539 94.8712C112.504 96.7299 108.144 105.187 113.576 107.684Z" fill="url(#paint2_linear_129_327)"/>
<path d="M106.961 90.4797C106.961 90.4797 107.667 89.2722 108.142 89.4778C111.633 90.9824 110.3 95.2038 109.083 97.1443C108.681 97.7959 108.262 98.4603 108.095 98.7362C107.691 99.385 106.792 98.2901 106.201 96.8674C105.61 95.4447 106.961 90.4797 106.961 90.4797Z" fill="#EFF2FC"/>
<path d="M112.887 93.7565C113.136 93.4283 113.847 93.8275 114.127 93.9564C116.246 94.8741 116.077 96.0021 116.077 96.0021C115.559 99.0889 116.317 98.2121 113.773 102.394C113.369 103.043 112.469 101.948 111.878 100.525C111.392 99.3446 112.309 94.531 112.887 93.7565Z" fill="#EFF2FC"/>
<path d="M101.645 85.7826C101.798 85.6936 101.969 85.6372 102.146 85.6171C102.323 85.5969 102.502 85.6133 102.672 85.6654C105.566 86.9126 104.845 89.6533 104.858 89.5944C104.667 91.9614 103.684 93.1897 102.631 94.9145C102.227 95.5633 101.33 94.4712 100.739 93.0485C100.148 91.6258 101.645 85.7826 101.645 85.7826Z" fill="#EFF2FC"/>
<path d="M96.486 81.782C96.8207 81.719 97.1667 81.7507 97.4838 81.8734C100.375 83.1177 99.6739 85.8484 99.6729 85.8003C99.4795 88.1694 98.4967 89.3927 97.4463 91.1204C97.0595 91.7563 96.1481 90.6749 95.5539 89.2544C94.9597 87.8338 96.486 81.782 96.486 81.782Z" fill="#EFF2FC"/>
<path d="M91.7443 78.2751C92.079 78.2121 92.425 78.2438 92.7421 78.3665C93.3413 78.6054 93.8666 78.9941 94.266 79.4942C94.6654 79.9943 94.9251 80.5884 95.0193 81.2176L94.9399 82.2869C94.8351 83.6097 94.4112 84.8887 93.7032 86.018C93.3014 86.6695 92.8795 87.3361 92.7125 87.612C92.3258 88.2479 91.4122 87.1637 90.818 85.7432C90.2238 84.3227 91.7443 78.2751 91.7443 78.2751Z" fill="#EFF2FC"/>
<path d="M86.9317 74.5943C87.2627 74.5375 87.6034 74.5728 87.9151 74.6964C88.5138 74.9351 89.0386 75.3238 89.4373 75.8239C89.8359 76.3239 90.0945 76.918 90.1872 77.5469L90.11 78.619C90.0019 79.9422 89.5771 81.2214 88.8705 82.3522C88.4665 83.0009 88.0475 83.6653 87.8805 83.9413C87.4765 84.59 86.5795 83.498 85.9881 82.0753C85.3968 80.6526 86.9317 74.5943 86.9317 74.5943Z" fill="#EFF2FC"/>
<path d="M82.2707 71.0807C82.6061 71.0165 82.9531 71.0474 83.2713 71.1699C83.8704 71.4091 84.3956 71.7983 84.7945 72.2988C85.1935 72.7993 85.4524 73.3938 85.5456 74.0232L85.4662 75.0925C85.3601 76.4149 84.9363 77.6937 84.2296 78.8235C83.8256 79.4723 83.4066 80.1367 83.2396 80.4126C82.8356 81.0614 81.9386 79.9693 81.3472 78.5466C80.7559 77.1239 82.2707 71.0807 82.2707 71.0807Z" fill="#EFF2FC"/>
<path d="M77.73 64.0423C78.0605 63.9574 78.4112 63.9947 78.7156 64.1473C80.8176 65.2827 80.9261 67.7912 80.9261 67.7912L80.8249 69.2016C80.6943 70.8918 80.2447 72.5432 79.4992 74.0714C79.0683 74.9315 78.6397 75.7945 78.466 76.1555C78.0617 76.9914 77.1745 75.6072 76.6254 73.7704C76.0762 71.9335 77.73 64.0423 77.73 64.0423Z" fill="#EFF2FC"/>
<path d="M34.9505 89.35C44.5815 84.9032 56.4894 79.6147 66.3688 75.6187C53.4806 81.9461 39.8065 87.8238 35.0721 89.9178C35.0209 89.9159 27.5688 89.7368 22.8716 89.4937C24.896 89.4324 29.8153 89.3539 34.9505 89.35Z" fill="#355B5A"/>
<path d="M57.7271 92.5947C68.7302 86.6027 79.9214 85.7426 80.1135 85.6925C82.7445 86.4819 87.6456 87.9388 88.4482 88.2871C95.0999 91.5378 98.6155 94.71 102.956 95.7752L103.275 95.8535C102.228 99.0689 102.092 98.8053 97.6913 102.31C86.8439 110.971 84.1924 113.174 85.0422 121.736C84.249 115.685 85.8721 112.467 88.0799 110.181C91.6798 106.19 100.317 99.6639 101.273 98.5987C101.843 97.9224 102.26 97.1346 102.497 96.2875C98.0515 95.1045 93.3182 91.3155 88.8796 89.233C87.2827 88.588 88.346 88.9107 80.0513 86.3797C70.2238 87.4361 52.5844 92.0614 51.4474 101.8C51.0571 105.491 52.6533 109.652 54.7283 112.551C49.4108 105.497 49.4683 97.325 57.7271 92.5947Z" fill="#355B5A"/>
<path d="M23.1064 116.846C23.1064 116.846 26.2632 122.467 31.8852 122.9C37.5072 123.334 70.6329 127.335 70.6329 127.335C70.6329 127.335 126.9 132.48 138.909 130.822C150.918 129.164 154.046 124.959 153.897 123.541C153.766 122.304 153.575 118.277 153.164 116.413C153.119 116.18 153.052 115.951 152.963 115.731C152.628 114.962 152.356 114.587 151.553 114.243C149.81 115.696 144.084 118.873 124.06 118.538C97.8273 118.106 73.1014 110.172 59.4732 108.22C45.845 106.269 35.0613 105.623 24.9502 102.122L24.6661 104.385L23.1064 116.846Z" fill="#EFF2FC"/>
<path d="M23.1065 116.846C23.1065 116.846 26.2633 122.467 31.8853 122.9C37.5073 123.334 70.633 127.335 70.633 127.335C70.633 127.335 126.9 132.48 138.909 130.822C150.918 129.164 154.046 124.959 153.897 123.541C153.836 122.928 153.764 121.611 153.638 120.228C153.553 118.948 153.395 117.675 153.164 116.413C151.755 117.336 149.053 118.424 143.891 119.373C132.144 121.534 103.681 120.604 89.8371 116.843C75.9929 113.081 50.8521 108.701 40.8955 107.931C33.3437 107.342 27.7667 105.994 24.6582 104.386L23.3007 115.1L23.1065 116.846Z" fill="#DADFF1"/>
<path d="M23.1267 116.738C23.1267 116.738 26.2835 122.358 31.9055 122.792C37.5275 123.225 70.6531 127.226 70.6531 127.226C70.6531 127.226 126.92 132.372 138.929 130.714C150.939 129.056 154.067 124.851 153.917 123.432C153.856 122.819 153.785 121.502 153.658 120.119C151.86 121.716 148.731 123.857 143.869 125.205C135.287 127.565 104.036 126.866 95.6418 125.736C87.2473 124.605 60.0256 122.3 58.5681 122.187C57.1105 122.074 30.7408 121.165 23.3325 115L23.1267 116.738Z" fill="#4E0F04"/>
<g style="mix-blend-mode:multiply" opacity="0.2">
<path d="M102 103.497C102 103.497 94.5013 106.552 94.003 110.132C93.5047 113.712 114.251 117.89 127.569 116.398C140.888 114.906 125.036 115.594 115.845 112.125C106.655 108.657 102 103.497 102 103.497Z" fill="#467C79"/>
</g>
<g style="mix-blend-mode:multiply" opacity="0.2">
<path d="M24.8734 92.0877C24.8734 92.0877 42.3895 92.8003 44.0923 94.4208C45.7952 96.0412 48.931 105.045 48.931 105.045C48.931 105.045 32.3957 103.881 28.8188 101.297C25.242 98.7135 22.1372 93.2368 24.8734 92.0877Z" fill="#467C79"/>
</g>
<path d="M27.0324 66.4298C27.0324 66.4298 28.0461 72.773 33.1788 75.0707C38.3116 77.3684 68.0516 92.2669 68.0516 92.2669C68.0516 92.2669 119.141 116.021 131.003 118.501C142.866 120.981 147.266 118.082 147.619 116.698C147.835 115.853 148.505 113.694 148.975 111.833C149.243 110.927 149.405 109.994 149.457 109.052C149.428 108.476 149.197 107.929 148.803 107.503C148.724 107.41 148.671 107.299 148.648 107.179C148.648 107.179 149.292 102.902 147.321 99.3736C147.3 99.3059 147.252 99.25 147.217 99.1865C145.597 96.4377 133.626 88.5111 126.835 83.5726C124.829 82.1137 123.278 80.9133 122.577 80.1846C121.503 78.9221 120.52 77.588 119.634 76.1919C117.724 73.3496 115.237 69.418 112.637 65.2723C108.272 58.322 103.55 50.7903 100.696 46.8332C97.7674 42.8027 96.5726 37.9801 96.1069 34.2265C95.6607 30.619 95.5812 28.0796 95.5812 28.0796C95.2097 26.1819 93.6382 24.4497 90.9931 23.2006C85.7212 20.7004 77.4234 19.8015 72.0627 21.7731C64.0153 24.7343 53.8606 22.5501 53.8606 22.5501C53.8606 22.5501 46.5439 30.7165 43.2541 33.4555C39.9644 36.1946 33.8818 53.2118 33.8818 53.2118L30.1214 60.4314L27.0324 66.4298Z" fill="url(#paint3_linear_129_327)"/>
<path d="M95.8884 28.42C95.5436 25.5564 94.1973 22.8998 92.0801 20.9054C89.9628 18.911 87.2065 17.7029 84.2832 17.488C80.7382 17.2255 70.1816 21.4524 68.7389 24.1404C65.6943 29.8248 101.144 56.1204 101.144 56.1204L105.755 54.3438C103.198 51.052 100.919 47.5602 98.9402 43.9033C97.4413 41.0248 96.5972 34.2143 95.8884 28.42Z" fill="#A3F1F7"/>
<path d="M33.8818 53.2117L30.1214 60.4313L48.4007 68.6278C48.4007 68.6278 62.7056 61.4776 57.4907 56.1292C52.2758 50.7809 56.891 50.298 64.1803 46.5587C71.4697 42.8194 92.3792 43.4655 98.4088 50.3464C99.7266 51.848 94.6213 38.3226 92.1786 29.5619C91.5428 27.2311 90.2 25.1464 88.329 23.5856C86.458 22.0248 84.1478 21.0621 81.7063 20.826C78.2603 20.5184 74.7974 20.78 72.0832 21.778C67.0544 23.6299 59.8132 21.5593 55.0893 19.7454C54.4818 19.5089 53.8318 19.3958 53.1785 19.4129C52.5253 19.43 51.8824 19.577 51.2885 19.8451C50.6945 20.1131 50.1619 20.4966 49.7227 20.9725C49.2834 21.4484 48.9467 22.0069 48.7327 22.6142C47.3311 26.6179 45.2285 31.8445 43.2746 33.4604C39.9751 36.1801 33.8818 53.2117 33.8818 53.2117Z" fill="url(#paint4_linear_129_327)"/>
<path d="M32.9915 43.0578C32.9665 42.6545 33.0444 42.2515 33.2183 41.8854C33.3922 41.5194 33.6565 41.202 33.987 40.9622C34.3176 40.7224 34.7039 40.5678 35.1108 40.5125C35.5176 40.4572 35.9321 40.503 36.3163 40.6456L47.6795 44.8582L82.0201 42.2489C82.2225 40.1649 83.0108 38.1774 84.2967 36.5093C85.5173 34.9722 91.1585 34.4177 96.135 34.2439C96.6008 37.9975 97.7955 42.8201 100.725 46.8506C106.409 54.6714 119.548 77.023 122.605 80.202C125.751 83.4725 145.366 95.7177 147.353 99.39C149.316 102.917 148.68 107.196 148.68 107.196C148.673 107.318 148.711 107.438 148.787 107.534C149.004 107.806 148.984 108.161 149.018 109C149.05 109.532 148.756 110.564 148.453 111.732L133.441 112.149L83.529 91.8679C83.529 91.8679 84.6807 86.6158 87.7591 83.9003C90.8375 81.1849 101.098 78.0537 106.446 76.0896C107.507 75.6993 108.426 74.8555 109.22 73.7601C105.004 71.0792 101.035 64.0117 97.3315 61.1632C95.8081 60.0026 93.5704 58.4066 91.294 56.6518C84.1415 54.9587 76.7419 54.5166 69.4336 55.3458C53.2236 57.1665 58.2518 73.0454 58.2518 73.0454L33.872 57.192L33.8818 53.2118L32.9915 43.0578ZM84.387 49.5116C84.8064 49.3838 85.1778 49.1364 85.4543 48.8009C85.7307 48.4653 85.8997 48.0566 85.94 47.6265C85.9803 47.1965 85.8899 46.7643 85.6804 46.3847C85.4709 46.0051 85.1516 45.6952 84.763 45.4942C84.3744 45.2932 83.9339 45.2101 83.4972 45.2554C83.0606 45.3008 82.6474 45.4725 82.31 45.7489C81.9727 46.0253 81.7262 46.3939 81.6018 46.8081C81.4775 47.2223 81.4808 47.6635 81.6114 48.0759C81.6976 48.3496 81.8379 48.6038 82.0241 48.8242C82.2103 49.0445 82.4388 49.2265 82.6966 49.3599C82.9544 49.4932 83.2364 49.5752 83.5264 49.6013C83.8165 49.6273 84.1089 49.5968 84.387 49.5116ZM74.1704 50.3996C74.5898 50.2718 74.9612 50.0244 75.2377 49.6889C75.5141 49.3533 75.6832 48.9447 75.7234 48.5146C75.7637 48.0845 75.6733 47.6523 75.4638 47.2727C75.2543 46.8932 74.935 46.5833 74.5464 46.3823C74.1578 46.1812 73.7173 46.0981 73.2806 46.1435C72.844 46.1888 72.4309 46.3605 72.0935 46.6369C71.7561 46.9133 71.5096 47.2819 71.3852 47.6962C71.2609 48.1104 71.2642 48.5516 71.3949 48.9639C71.481 49.2389 71.6215 49.4944 71.8085 49.7156C71.9955 49.9368 72.2252 50.1195 72.4843 50.253C72.7434 50.3865 73.0267 50.4682 73.3181 50.4934C73.6094 50.5186 73.903 50.4868 74.1818 50.3999L74.1704 50.3996ZM64.0201 51.7016C64.4393 51.5738 64.8106 51.3266 65.087 50.9912C65.3634 50.6558 65.5326 50.2473 65.573 49.8174C65.6134 49.3875 65.5233 48.9554 65.3141 48.5758C65.1049 48.1963 64.786 47.8863 64.3977 47.685C64.0094 47.4838 63.5691 47.4003 63.1325 47.4452C62.696 47.49 62.2828 47.6612 61.9452 47.9371C61.6075 48.213 61.3607 48.5812 61.2358 48.9951C61.1108 49.409 61.1135 49.8501 61.2435 50.2625C61.3292 50.5379 61.4696 50.7938 61.6565 51.0155C61.8434 51.2372 62.0731 51.4202 62.3323 51.5541C62.5916 51.6879 62.8752 51.7699 63.1669 51.7952C63.4585 51.8206 63.7523 51.7888 64.0314 51.7018L64.0201 51.7016Z" fill="#137DA6"/>
<path d="M115.237 88.2395C120.008 92.9329 126.977 95.0493 137.593 98.2576C143.433 100.032 146.121 99.8731 147.345 99.3663C147.324 99.2986 147.276 99.2427 147.241 99.1792C145.153 95.6158 125.669 83.3789 122.598 80.1783C121.524 78.9158 120.541 77.5817 119.654 76.1856C118.036 77.5843 110.999 84.0661 115.237 88.2395Z" fill="url(#paint5_linear_129_327)"/>
<path d="M114.999 69.8468C114.999 69.8468 116.081 68.9492 116.456 69.3023C119.214 71.8899 116.494 75.4087 114.677 76.8234C114.073 77.3006 113.448 77.7841 113.195 77.9873C112.59 78.4611 112.126 77.1298 112.064 75.594C112.003 74.0582 114.999 69.8468 114.999 69.8468Z" fill="#EFF2FC"/>
<path d="M119.429 74.9187C119.776 74.694 120.306 75.3081 120.524 75.5234C122.197 77.0986 121.646 78.1015 121.646 78.1015C120.087 80.8285 121.103 80.2591 117.259 83.334C116.654 83.8078 116.19 82.4766 116.128 80.9407C116.082 79.6675 118.616 75.4521 119.429 74.9187Z" fill="#EFF2FC"/>
<path d="M111.634 63.645C111.809 63.613 111.989 63.6174 112.163 63.6579C112.336 63.6983 112.498 63.7741 112.64 63.8801C114.926 66.0252 113.296 68.3585 113.329 68.3076C112.328 70.468 110.977 71.2916 109.388 72.5586C108.783 73.0324 108.32 71.7045 108.258 70.1687C108.197 68.6329 111.634 63.645 111.634 63.645Z" fill="#EFF2FC"/>
<path d="M108.176 58.1507C108.513 58.2041 108.827 58.3502 109.082 58.5721C111.367 60.7138 109.759 63.0442 109.775 62.9985C108.77 65.1599 107.421 65.9791 105.834 67.2495C105.249 67.717 104.769 66.3944 104.704 64.8596C104.639 63.3248 108.176 58.1507 108.176 58.1507Z" fill="#EFF2FC"/>
<path d="M104.939 53.2608C105.275 53.3141 105.589 53.4602 105.845 53.6822C106.325 54.1081 106.683 54.6501 106.885 55.2544C107.087 55.8587 107.124 56.5043 106.994 57.1273L106.548 58.1055C105.99 59.3133 105.147 60.3728 104.089 61.1959C103.485 61.6731 102.857 62.1577 102.604 62.3609C102.02 62.8284 101.538 61.5024 101.473 59.9676C101.408 58.4328 104.939 53.2608 104.939 53.2608Z" fill="#EFF2FC"/>
<path d="M101.695 48.1835C102.026 48.2414 102.334 48.3892 102.584 48.6101C103.064 49.0357 103.422 49.5775 103.623 50.1815C103.823 50.7855 103.86 51.4307 103.729 52.0529L103.283 53.0345C102.722 54.2416 101.878 55.3009 100.821 56.126C100.216 56.5998 99.5916 57.0833 99.3388 57.2865C98.7338 57.7604 98.2702 56.4325 98.2089 54.8966C98.1475 53.3608 101.695 48.1835 101.695 48.1835Z" fill="#EFF2FC"/>
<path d="M98.5358 43.3142C98.8733 43.3666 99.1887 43.5124 99.4451 43.7345C99.9251 44.1607 100.283 44.703 100.484 45.3076C100.685 45.9121 100.722 46.5578 100.591 47.1807L100.145 48.1589C99.5856 49.366 98.7429 50.4252 97.6862 51.2493C97.0811 51.7232 96.4565 52.2067 96.2037 52.4099C95.5986 52.8837 95.135 51.5558 95.0737 50.0199C95.0123 48.4841 98.5358 43.3142 98.5358 43.3142Z" fill="#EFF2FC"/>
<path d="M96.7143 35.173C97.0544 35.2043 97.371 35.3573 97.6041 35.603C99.1849 37.3769 98.4152 39.7708 98.4152 39.7708L97.8301 41.0622C97.12 42.6066 96.1236 44.0074 94.892 45.1929C94.1882 45.8563 93.4856 46.5231 93.1969 46.8041C92.5265 47.4536 92.1737 45.8545 92.2959 43.9437C92.4181 42.0328 96.7143 35.173 96.7143 35.173Z" fill="#EFF2FC"/>
<path d="M47.7176 44.572C58.3137 43.6314 71.342 42.6655 82.0148 42.232C67.7042 43.8448 52.8114 44.7706 47.6345 45.1465C47.5871 45.1275 40.6461 42.4535 36.3163 40.6456C38.24 41.2687 42.8903 42.849 47.7176 44.572Z" fill="#355B5A"/>
<path d="M67.9947 55.2799C80.4172 53.3484 91.2333 56.3031 91.4311 56.3207C93.6294 57.9472 97.729 60.9642 98.3622 61.5615C103.484 66.8529 105.685 71.0162 109.395 73.4769L109.667 73.6574C107.566 76.3272 107.53 76.0339 102.176 77.8476C88.9723 82.3397 85.7152 83.518 83.5385 91.8502C84.8957 85.8973 87.5394 83.4183 90.4082 82.0133C95.1785 79.4722 105.563 76.2438 106.831 75.5642C107.602 75.1203 108.268 74.5202 108.785 73.8037C105.018 71.1972 101.887 66.045 98.439 62.5955C97.1624 61.4523 98.0495 62.1132 91.1339 56.9456C81.5312 54.6339 63.3471 53.0495 58.8946 61.8194C57.2453 65.1566 57.2996 69.6033 58.242 73.0262C55.6961 64.6086 58.5897 56.9482 67.9947 55.2799Z" fill="#355B5A"/>
<path d="M27.0324 66.4299C27.0324 66.4299 28.0461 72.7731 33.1789 75.0708C38.3116 77.3685 68.0517 92.267 68.0517 92.267C68.0517 92.267 119.141 116.021 131.003 118.501C142.866 120.982 147.266 118.082 147.619 116.698C147.925 115.492 149.146 111.643 149.406 109.753C149.445 109.519 149.462 109.282 149.455 109.045C149.407 108.21 149.282 107.766 148.646 107.173C146.504 107.952 140.019 109.012 121.318 101.965C96.8151 92.7378 76.3352 76.9683 64.2061 70.5516C52.077 64.1349 42.1672 59.9023 33.8818 53.2118L32.8283 55.2433L27.0324 66.4299Z" fill="#EFF2FC"/>
<path d="M27.0325 66.4297C27.0325 66.4297 28.0462 72.7729 33.1789 75.0706C38.3117 77.3683 68.0518 92.2668 68.0518 92.2668C68.0518 92.2668 119.141 116.021 131.004 118.501C142.866 120.981 147.266 118.082 147.619 116.698C147.774 116.102 148.165 114.84 148.527 113.498C148.892 112.267 149.186 111.017 149.407 109.753C147.762 110.147 144.844 110.261 139.664 109.417C127.873 107.498 101.448 97.0538 89.7451 88.8637C78.0418 80.6737 55.9373 68.104 46.8478 64.0331C39.9558 60.9398 35.1831 57.7977 32.8204 55.2419L27.8221 64.8534L27.0325 66.4297Z" fill="#DADFF1"/>
<path d="M27.0891 66.3346C27.0891 66.3346 28.1028 72.6778 33.2356 74.9755C38.3683 77.2732 68.1084 92.1717 68.1084 92.1717C68.1084 92.1717 119.198 115.926 131.06 118.406C142.922 120.886 147.323 117.987 147.675 116.603C147.831 116.006 148.222 114.745 148.583 113.403C146.339 114.298 142.654 115.258 137.617 114.89C128.732 114.222 99.6057 103.058 92.1098 99.1731C84.6139 95.2881 59.833 83.9682 58.5024 83.3721C57.1718 82.7759 32.7062 73.0555 27.8864 64.7708L27.0891 66.3346Z" fill="#4E0F04"/>
<g style="mix-blend-mode:multiply" opacity="0.2">
<path d="M105.812 80.4121C105.812 80.4121 97.7041 80.7614 95.9918 83.9583C94.2795 87.1552 112.325 98.0572 125.359 101.133C138.393 104.21 123.257 99.5257 115.826 93.176C108.395 86.8262 105.812 80.4121 105.812 80.4121Z" fill="#467C79"/>
</g>
<g style="mix-blend-mode:multiply" opacity="0.2">
<path d="M37.2962 43.7565C37.2962 43.7565 53.5096 50.3158 54.5468 52.4112C55.584 54.5066 55.4021 64.0228 55.4021 64.0228C55.4021 64.0228 40.2676 57.3684 37.8039 53.7377C35.3402 50.1071 34.3254 43.9163 37.2962 43.7565Z" fill="#467C79"/>
</g>
<path d="M171.665 97.6101C171.367 96.7468 170.366 96.1081 169.989 95.2966C169.532 94.3384 169.348 93.2939 168.98 92.3098C168.4 90.7733 167.54 89.2281 166.83 87.7606C166.375 87.0933 166.031 86.3589 165.812 85.5852C165.654 84.6011 165.943 83.5135 165.741 82.5725C167.447 82.2094 169.173 81.9471 170.91 81.787C169.576 80.1296 167.76 78.3341 167.769 76.4177L167.207 75.5544C164.241 78.1441 162.275 82.0546 159.397 84.5493C155.813 87.7888 151.798 90.5332 147.462 92.7069C138.687 96.8504 127.691 98.8963 118.275 100.277C117.094 100.355 115.921 100.52 114.765 100.77C110.603 100.235 106.413 99.9471 102.216 99.9063C99.9872 99.9063 97.6266 99.1812 95.4503 99.1898C93.4319 99.1898 89.8692 101.477 87.8684 101.78C83.4192 102.487 78.7419 102.505 74.2752 102.755C73.4591 104.965 71.5548 106.683 70.6685 108.918C69.7102 111.014 68.9437 113.189 68.3781 115.419C69.2557 114.996 70.0718 115.824 70.9054 116.101C72.3937 116.52 73.8367 117.08 75.2141 117.775C77.4426 119.098 79.7932 120.211 82.2345 121.099C82.1707 120.963 82.1207 120.821 82.0853 120.676C84.639 120.235 86.8065 118.492 89.325 117.741C94.4148 116.221 99.6098 115.246 104.77 113.977C110.736 112.532 116.793 111.473 122.9 110.809C128.63 110.187 134.308 108.401 139.898 107.209C148.814 105.31 157.738 103.152 166.479 100.718C167.979 100.355 172.542 100.131 171.665 97.6101Z" fill="#DADFF1"/>
<path d="M83.4806 121.548C83.0418 121.444 82.6031 121.315 82.1643 121.176V121.271C82.5943 121.34 83.0418 121.444 83.4806 121.548Z" fill="#DADFF1"/>
<path d="M68.3433 115.514C68.2815 115.557 68.2815 115.557 68.3433 115.514V115.514Z" fill="#DADFF1"/>
<path d="M136.554 103.635C135.414 103.575 134.29 103.532 133.15 103.428C130.929 103.212 122.619 102.953 121.548 102.332L121.408 102.263C120.671 102.444 120.179 103.86 119.811 104.438C119.249 105.301 118.635 106.113 118.161 107.028C117.801 107.718 117.38 108.375 117.029 109.056C116.818 109.669 116.522 110.249 116.152 110.783C116.577 110.39 117.111 110.132 117.687 110.041C118.749 109.695 119.828 109.367 120.908 109.048C123.084 108.4 125.295 107.977 127.542 107.408C131.157 106.475 134.782 105.457 138.327 104.671C138.887 104.576 139.413 104.341 139.854 103.989C138.777 103.718 137.666 103.599 136.554 103.635Z" fill="#C2C8DE"/>
<path d="M169.919 94.5802C169.594 93.527 166.952 88.0282 166.847 87.6743C166.777 87.6743 166.847 87.752 166.847 87.8038L166.356 88.08C166.011 88.9722 165.718 89.8829 165.478 90.8079C164.952 92.1459 164.513 93.4925 164.021 94.8478C163.355 96.6951 162.574 98.5424 162.012 100.364C162.679 99.984 163.284 99.4316 163.969 99.0172C165.206 98.2835 166.426 97.6533 167.725 97.0318C168.485 96.7544 169.205 96.38 169.866 95.9182C170.41 95.4434 170.112 95.1672 169.919 94.5802Z" fill="#C2C8DE"/>
<path d="M138.924 103.722C121.961 107.753 80.7251 117.43 80.7251 117.43C80.7251 117.43 42.9382 103.057 32.3638 99.3797C26.5499 97.4023 20.8569 95.0965 15.3131 92.4738L14.1284 92.3616C14.1284 92.3616 14.6637 109.022 14.8041 116.688C14.9445 124.353 14.8041 137.491 14.8041 137.491C14.8041 137.491 49.3969 152.322 58.3302 156.932C67.2636 161.541 80.9357 166.971 80.9357 166.971C80.9357 166.971 129.201 151.087 143.241 147.669C157.282 144.251 181.037 137.017 181.037 137.017L182.02 93.1471L179.966 93.2076C179.966 93.2076 155.878 99.6818 138.924 103.722Z" fill="url(#paint6_linear_129_327)"/>
<path d="M80.9445 118.224L75.7582 116.498C75.8221 118.397 75.6809 120.299 75.337 122.169C73.6258 130.309 69.0275 138.148 60.6733 142.257C51.5731 146.72 43.4296 146.089 33.2325 144.734C33.2325 144.734 43.57 149.836 46.2991 150.716C50.5991 152.097 71.6074 165.262 81.1288 166.945C80.9884 158.788 81.3745 150.388 81.3921 142.11C81.4009 137.94 80.9445 121.28 80.9445 118.224Z" fill="url(#paint7_linear_129_327)"/>
<path d="M163.469 111.715C152.122 137.742 109.149 157.467 109.149 157.467C109.149 157.467 114.414 155.783 130.385 151.303C146.356 146.823 181.195 136.982 181.195 136.982C181.195 136.982 181.125 125.76 181.335 115.125C181.546 104.49 182.213 93.1125 182.213 93.1125L171.595 96.2547C171.595 96.2547 169.699 97.4287 163.469 111.715Z" fill="url(#paint8_linear_129_327)"/>
<path d="M168.532 79.3613C168.03 78.5133 167.677 77.5882 167.488 76.6248L167.347 75.6666C165.966 77.2179 164.666 78.8372 163.451 80.518C162.872 81.3812 161.871 83.289 160.959 83.6515C162.354 83.7033 164.136 82.9437 165.54 82.6243C167.084 82.279 168.83 82.0028 170.261 81.528C169.609 80.8673 169.03 80.1411 168.532 79.3613Z" fill="#EFF2FC"/>
<path d="M87.6226 113.571C86.8416 112.915 86.0782 112.259 85.2796 111.62C81.7694 108.815 78.0486 106.191 74.6964 103.161V103.774C75.1987 104.213 75.6022 104.751 75.8811 105.353C76.2321 105.897 76.7587 106.381 77.1097 106.924C77.9346 108.064 78.7858 109.126 79.6896 110.222C81.0762 111.948 82.8575 113.079 84.3757 114.633C84.6702 115 84.9836 115.351 85.3147 115.686C85.7973 116.083 86.008 115.954 86.6573 115.798C87.1321 115.63 87.619 115.497 88.114 115.401C88.623 115.35 89.1145 115.453 89.5093 115.099C89.1057 114.434 88.2281 114.055 87.6226 113.571Z" fill="#C2C8DE"/>
<path d="M177.465 93.7169C175.807 94.8823 86.8591 116.161 86.8591 116.161C88.7283 116.161 90.6765 118.146 91.6944 119.484C92.8791 121.038 93.6338 123.55 95.3713 124.336C97.95 125.429 100.586 126.386 103.269 127.202C104.752 127.685 106.244 128.013 107.657 128.635C108.806 129.135 109.307 129.757 110.193 129.049C111.86 127.728 113.019 124.439 114.019 122.592C115.607 119.649 116.95 116.619 118.538 113.666C119.785 111.361 126.858 107.399 128.981 106.985C131.105 106.57 133.974 105.854 136.054 106.173C137.66 106.415 139.266 106.838 140.854 107.235C142.443 107.632 142.653 107.494 143.777 106.312C146.936 102.971 150.402 101.892 154.842 100.752C157.308 100.122 158.475 99.2675 160.766 100.338C163.056 101.408 165.294 102.876 167.716 103.989C168.86 104.591 170.07 105.063 171.323 105.396C172.542 105.604 172.586 104.87 173.306 103.894C174.684 102.021 176.307 100.321 177.694 98.482C178.132 97.9036 179.449 96.6778 179.37 95.9613C179.291 95.2448 177.931 94.0881 177.465 93.7169Z" fill="url(#paint9_linear_129_327)"/>
<path d="M150.323 91.0323C148.287 92.2149 146.26 93.622 144.066 94.3299C141.381 95.1931 138.739 96.3843 136.002 97.0577C133.588 97.6447 131.175 98.3698 128.841 99.069C127.884 99.3539 126.875 99.4402 125.945 99.7337C126.821 100.112 127.674 100.542 128.499 101.02C129.435 101.439 130.411 101.768 131.412 102.004C132.474 102.298 133.492 102.505 134.545 102.79C135.49 103.12 136.466 103.357 137.458 103.497L139.547 104.041C139.863 103.178 141.513 102.392 142.329 101.788C143.329 101.054 144.347 100.347 145.26 99.5265C147.067 97.9123 148.524 96.0045 150.174 94.2522C152.42 91.8783 155 89.5044 156.913 86.8197C154.641 88.011 152.578 89.7202 150.323 91.0323Z" fill="#EFF2FC"/>
<path d="M117.029 101.374C115.713 101.227 114.396 100.562 113.133 100.511L112.58 100.744C109.947 100.355 100.382 99.6127 99.3027 99.4746C98.452 99.3334 97.5933 99.244 96.7315 99.207C95.4986 99.4418 94.3013 99.8305 93.1687 100.364C92.5544 100.666 91.905 100.942 91.2556 101.227C90.2122 101.727 89.0639 101.978 87.9034 101.961C84.3932 101.961 80.962 101.823 77.4606 101.823C76.3952 101.903 75.3348 102.038 74.2839 102.228C75.8445 103.972 77.5403 105.594 79.3562 107.08C80.4706 107.943 81.5676 108.806 82.6382 109.669C83.7088 110.533 84.7882 111.128 85.8939 111.862C89.404 114.21 92.607 117.128 96.319 119.269C96.556 119.07 96.8017 118.863 97.0299 118.656C99.9784 118.777 108.219 118.949 109.447 118.949C110.825 118.949 111.369 119.269 111.966 118.086C114.291 113.563 120.276 102.859 121.101 102.09C120.592 101.391 117.907 101.486 117.029 101.374Z" fill="#EFF2FC"/>
<path d="M107.157 107.252C106.174 107.934 105.226 108.668 104.182 109.255C103.138 109.842 102.146 110.559 101.04 111.068C99.9345 111.577 98.6533 112.026 97.53 112.57C95.3801 113.597 93.0283 113.787 90.9397 114.581C92.0279 116.118 94.055 116.454 95.2397 117.784L96.1172 118.742C97.6354 117.18 99.0658 115.289 100.505 113.614C102.348 111.448 104.893 110.161 106.964 108.211C107.946 107.347 108.859 106.432 109.824 105.509C108.871 105.989 107.977 106.574 107.157 107.252Z" fill="#DADFF1"/>
<defs>
<linearGradient id="paint0_linear_129_327" x1="101.519" y1="109.116" x2="73.3222" y2="122.467" gradientUnits="userSpaceOnUse">
<stop stop-color="#74FCF2"/>
<stop offset="1" stop-color="#4EC4F0"/>
</linearGradient>
<linearGradient id="paint1_linear_129_327" x1="31.192" y1="63.758" x2="58.7572" y2="100.671" gradientUnits="userSpaceOnUse">
<stop stop-color="#146A89"/>
<stop offset="1" stop-color="#042835"/>
</linearGradient>
<linearGradient id="paint2_linear_129_327" x1="161.947" y1="116.392" x2="131.305" y2="136.721" gradientUnits="userSpaceOnUse">
<stop stop-color="#74FCF2"/>
<stop offset="1" stop-color="#4EC4F0"/>
</linearGradient>
<linearGradient id="paint3_linear_129_327" x1="103.408" y1="85.5303" x2="72.2436" y2="88.2957" gradientUnits="userSpaceOnUse">
<stop stop-color="#74FCF2"/>
<stop offset="1" stop-color="#4EC4F0"/>
</linearGradient>
<linearGradient id="paint4_linear_129_327" x1="53.0782" y1="19.2577" x2="66.4497" y2="63.1263" gradientUnits="userSpaceOnUse">
<stop stop-color="#146A89"/>
<stop offset="1" stop-color="#042835"/>
</linearGradient>
<linearGradient id="paint5_linear_129_327" x1="157.669" y1="112.687" x2="121.742" y2="121.214" gradientUnits="userSpaceOnUse">
<stop stop-color="#74FCF2"/>
<stop offset="1" stop-color="#4EC4F0"/>
</linearGradient>
<linearGradient id="paint6_linear_129_327" x1="4.82649" y1="139.658" x2="173.527" y2="164.703" gradientUnits="userSpaceOnUse">
<stop stop-color="#F3BB4D"/>
<stop offset="1" stop-color="#F05F2E"/>
</linearGradient>
<linearGradient id="paint7_linear_129_327" x1="57.0403" y1="148.291" x2="101.591" y2="165.36" gradientUnits="userSpaceOnUse">
<stop stop-color="#F3BB4D"/>
<stop offset="1" stop-color="#F05F2E"/>
</linearGradient>
<linearGradient id="paint8_linear_129_327" x1="215.875" y1="98.6546" x2="142.411" y2="74.1685" gradientUnits="userSpaceOnUse">
<stop stop-color="#CA6C16"/>
<stop offset="1" stop-color="#F16D33"/>
</linearGradient>
<linearGradient id="paint9_linear_129_327" x1="123.295" y1="103.834" x2="132.837" y2="129.472" gradientUnits="userSpaceOnUse">
<stop stop-color="#ED761B"/>
<stop offset="0.853635" stop-color="#C96B23"/>
</linearGradient>
</defs>
</svg>
