<svg width="32" height="33" viewBox="0 0 32 33" fill="none" xmlns="http://www.w3.org/2000/svg">
<g clip-path="url(#clip0_199_4774)">
<path fill-rule="evenodd" clip-rule="evenodd" d="M24 32.2114H8C3.582 32.2114 0 28.6294 0 24.2114V8.21143C0 3.79343 3.582 0.211426 8 0.211426H24C28.4185 0.211426 32 3.79293 32 8.21143V24.2114C32 28.6299 28.4185 32.2114 24 32.2114Z" fill="url(#paint0_linear_199_4774)"/>
<path fill-rule="evenodd" clip-rule="evenodd" d="M15 9.21143H24C26.4855 9.21143 28.5 7.19643 28.5 4.71093C28.5 2.40393 26.755 0.470426 24.46 0.234426C24.307 0.225926 24.1555 0.211426 24 0.211426H8C3.582 0.211426 0 3.79343 0 8.21143V24.2114C0 15.9274 6.716 9.21143 15 9.21143Z" fill="url(#paint1_linear_199_4774)"/>
<path fill-rule="evenodd" clip-rule="evenodd" d="M24 16.2114C19.5815 16.2114 16 19.7929 16 24.2114C16 28.6299 19.5815 32.2114 24 32.2114C28.4185 32.2114 32 28.6299 32 24.2114V8.21143C32 12.6299 28.4185 16.2114 24 16.2114Z" fill="url(#paint2_linear_199_4774)"/>
<path fill-rule="evenodd" clip-rule="evenodd" d="M20 15.2116C21.1045 15.2116 22 16.1071 22 17.2116C22 18.3161 21.1045 19.2116 20 19.2116C18.8955 19.2116 18 18.3161 18 17.2116C18.0005 16.1071 18.8955 15.2121 20 15.2116ZM12 15.2116C13.1045 15.2116 14 16.1071 14 17.2116C14 18.3161 13.1045 19.2116 12 19.2116C10.8955 19.2116 10 18.3161 10 17.2116C10.0005 16.1071 10.8955 15.2121 12 15.2116ZM12.289 21.5196C14.709 22.7091 17.36 22.6571 19.665 21.5406L19.753 21.5036C20.1675 21.3831 20.601 21.6211 20.7215 22.0351C20.735 22.0811 20.744 22.1286 20.749 22.1766C20.744 22.5066 20.544 22.8021 20.2395 22.9296C17.572 24.2146 14.4655 24.2206 11.793 22.9456C11.7215 22.9126 11.4615 22.8106 11.311 22.5076C11.1595 22.1066 11.3615 21.6581 11.763 21.5066C11.8115 21.4881 11.995 21.4096 12.289 21.5196ZM21.3395 5.09762C21.9555 4.18112 23.1975 3.93762 24.1135 4.55362C25.0295 5.16962 25.2735 6.41162 24.6575 7.32762C24.0415 8.24362 22.7995 8.48762 21.8835 7.87162C21.435 7.57012 21.1275 7.09962 21.0315 6.56812L18.058 5.77112L16.597 11.2236C19.0345 11.2811 21.4035 12.0396 23.4215 13.4081C24.5555 12.3976 26.294 12.4981 27.304 13.6321C28.3145 14.7661 28.214 16.5046 27.08 17.5146C26.889 17.6846 26.6755 17.8276 26.445 17.9386C26.4815 18.1946 26.5 18.4531 26.5 18.7116C26.5 22.8511 21.795 26.2116 16 26.2116C10.205 26.2116 5.50002 22.8511 5.50002 18.7116C5.50002 18.4531 5.51852 18.1946 5.55502 17.9386C4.18702 17.2791 3.61252 15.6351 4.27202 14.2671C4.93152 12.8991 6.57552 12.3246 7.94352 12.9841C8.17402 13.0951 8.38752 13.2376 8.57852 13.4081C10.492 12.1061 12.7275 11.3566 15.039 11.2426L16.609 5.38262C16.8235 4.58262 17.646 4.10762 18.446 4.32212L21.3395 5.09762Z" fill="white"/>
</g>
<defs>
<linearGradient id="paint0_linear_199_4774" x1="3.2" y1="3.81143" x2="22.8" y2="32.2114" gradientUnits="userSpaceOnUse">
<stop stop-color="#FA885B"/>
<stop offset="1" stop-color="#D5481B"/>
</linearGradient>
<linearGradient id="paint1_linear_199_4774" x1="2.4" y1="-2.98857" x2="11.2" y2="15.4114" gradientUnits="userSpaceOnUse">
<stop stop-color="#F9AB81"/>
<stop offset="1" stop-color="#FA885B"/>
</linearGradient>
<linearGradient id="paint2_linear_199_4774" x1="14" y1="20.2114" x2="28.8" y2="32.2114" gradientUnits="userSpaceOnUse">
<stop stop-color="#D5481B"/>
<stop offset="1" stop-color="#B4330F"/>
</linearGradient>
<clipPath id="clip0_199_4774">
<rect width="32" height="32" fill="white" transform="translate(0 0.211426)"/>
</clipPath>
</defs>
</svg>
