<svg width="32" height="33" viewBox="0 0 32 33" fill="none" xmlns="http://www.w3.org/2000/svg">
<g clip-path="url(#clip0_199_4772)">
<path fill-rule="evenodd" clip-rule="evenodd" d="M24 32.2114H8C5.8783 32.2113 3.84352 31.3684 2.34325 29.8682C0.842977 28.3679 9.28184e-05 26.3331 0 24.2114L0 8.21143C9.28184e-05 6.08972 0.842977 4.05495 2.34325 2.55467C3.84352 1.0544 5.8783 0.211519 8 0.211426L24 0.211426C26.1217 0.211426 28.1566 1.05428 29.6569 2.55457C31.1571 4.05486 32 6.08969 32 8.21143V24.2114C32 26.3332 31.1571 28.368 29.6569 29.8683C28.1566 31.3686 26.1217 32.2114 24 32.2114Z" fill="url(#paint0_linear_199_4772)"/>
<path fill-rule="evenodd" clip-rule="evenodd" d="M15 9.21143H24C25.1536 9.21135 26.2632 8.76825 27.0995 7.97363C27.9359 7.17901 28.4351 6.09355 28.4941 4.94143C28.5532 3.7893 28.1675 2.6585 27.4168 1.78256C26.666 0.906611 25.6076 0.352417 24.46 0.234426C24.307 0.225926 24.1555 0.211426 24 0.211426H8C5.8783 0.211519 3.84352 1.0544 2.34325 2.55467C0.842977 4.05494 9.28184e-05 6.08972 0 8.21143L0 24.2114C9.28219e-05 20.2332 1.58048 16.418 4.3935 13.6049C7.20653 10.7919 11.0218 9.21152 15 9.21143Z" fill="url(#paint1_linear_199_4772)"/>
<path fill-rule="evenodd" clip-rule="evenodd" d="M24 16.2114C22.4178 16.2114 20.871 16.6806 19.5554 17.5597C18.2398 18.4387 17.2145 19.6881 16.609 21.15C16.0035 22.6118 15.845 24.2203 16.1537 25.7721C16.4624 27.324 17.2243 28.7495 18.3431 29.8683C19.462 30.9871 20.8874 31.749 22.4393 32.0577C23.9911 32.3664 25.5997 32.208 27.0615 31.6025C28.5233 30.997 29.7727 29.9716 30.6518 28.656C31.5308 27.3404 32 25.7937 32 24.2114V8.21143C32 10.3332 31.1571 12.368 29.6569 13.8683C28.1566 15.3686 26.1217 16.2114 24 16.2114Z" fill="url(#paint2_linear_199_4772)"/>
<path fill-rule="evenodd" clip-rule="evenodd" d="M22.54 8.72729C22.7858 8.62581 23.0541 8.5915 23.3176 8.62786C23.581 8.66423 23.83 8.76997 24.0391 8.93425C24.2482 9.09853 24.4099 9.31545 24.5076 9.56278C24.6053 9.81011 24.6354 10.079 24.595 10.3418C24.0123 14.1313 22.944 21.0753 22.3769 24.7613C22.3377 25.0164 22.2333 25.257 22.0738 25.4599C21.9144 25.6628 21.7053 25.8212 21.4668 25.9197C21.2283 26.0182 20.9684 26.0534 20.7122 26.0221C20.456 25.9908 20.2123 25.8939 20.0045 25.7408C17.9984 24.2628 14.9907 22.0468 13.4637 20.9213C13.3459 20.8344 13.2485 20.7228 13.1786 20.5942C13.1086 20.4656 13.0677 20.3232 13.0588 20.1771C13.0499 20.031 13.0732 19.8847 13.127 19.7486C13.1808 19.6125 13.2639 19.4898 13.3703 19.3893C14.7695 18.0678 17.5564 15.4358 19.4739 13.6248C19.5191 13.5819 19.5466 13.5236 19.551 13.4615C19.5555 13.3993 19.5366 13.3378 19.498 13.2888C19.4594 13.2399 19.404 13.2071 19.3425 13.1969C19.281 13.1868 19.218 13.1999 19.1657 13.2338C16.7071 14.8373 12.9418 17.2928 11.0964 18.4963C10.7506 18.7219 10.3619 18.8736 9.95473 18.942C9.54753 19.0104 9.1306 18.994 8.73004 18.8938C7.71389 18.6398 6.24819 18.2733 4.94384 17.9473C4.73963 17.8963 4.55673 17.7821 4.42118 17.6211C4.28564 17.46 4.20436 17.2603 4.18894 17.0504C4.17351 16.8405 4.22472 16.631 4.33528 16.4519C4.44583 16.2728 4.61008 16.1331 4.80464 16.0528C9.34524 14.1773 18.2311 10.5073 22.54 8.72729Z" fill="white"/>
</g>
<defs>
<linearGradient id="paint0_linear_199_4772" x1="15" y1="7.01143" x2="16" y2="31.0114" gradientUnits="userSpaceOnUse">
<stop stop-color="#4BC6F2"/>
<stop offset="1" stop-color="#2FA4D1"/>
</linearGradient>
<linearGradient id="paint1_linear_199_4772" x1="1.27728e-07" y1="-10.1886" x2="13.4" y2="25.8114" gradientUnits="userSpaceOnUse">
<stop stop-color="#81E4F7"/>
<stop offset="1" stop-color="#48C1ED"/>
</linearGradient>
<linearGradient id="paint2_linear_199_4772" x1="19.6" y1="18.8114" x2="25.6" y2="30.6114" gradientUnits="userSpaceOnUse">
<stop stop-color="#41B2DE"/>
<stop offset="1" stop-color="#137DA6"/>
</linearGradient>
<clipPath id="clip0_199_4772">
<rect width="32" height="32" fill="white" transform="translate(0 0.211426)"/>
</clipPath>
</defs>
</svg>
