<svg width="32" height="33" viewBox="0 0 32 33" fill="none" xmlns="http://www.w3.org/2000/svg">
<g clip-path="url(#clip0_199_4773)">
<path fill-rule="evenodd" clip-rule="evenodd" d="M24 32.2114H8C6.94939 32.2115 5.90905 32.0047 4.93839 31.6027C3.96773 31.2007 3.08577 30.6114 2.34288 29.8685C1.59999 29.1257 1.01072 28.2437 0.608723 27.273C0.206727 26.3024 -0.000118163 25.262 5.06411e-08 24.2114V8.21143C-0.000118163 7.16082 0.206727 6.12048 0.608723 5.14982C1.01072 4.17916 1.59999 3.2972 2.34288 2.55431C3.08577 1.81142 3.96773 1.22214 4.93839 0.820149C5.90905 0.418153 6.94939 0.211308 8 0.211426H24C25.0506 0.211308 26.091 0.418153 27.0616 0.820149C28.0323 1.22214 28.9142 1.81142 29.6571 2.55431C30.4 3.2972 30.9893 4.17916 31.3913 5.14982C31.7933 6.12048 32.0001 7.16082 32 8.21143V24.2114C32.0001 25.262 31.7933 26.3024 31.3913 27.273C30.9893 28.2437 30.4 29.1257 29.6571 29.8685C28.9142 30.6114 28.0323 31.2007 27.0616 31.6027C26.091 32.0047 25.0506 32.2115 24 32.2114Z" fill="url(#paint0_linear_199_4773)"/>
<path fill-rule="evenodd" clip-rule="evenodd" d="M15 9.21143H24C25.1536 9.21135 26.2632 8.76825 27.0995 7.97363C27.9359 7.17901 28.4351 6.09355 28.4941 4.94143C28.5532 3.7893 28.1675 2.6585 27.4168 1.78256C26.666 0.906611 25.6076 0.352417 24.46 0.234426C24.305 0.225926 24.155 0.211426 24 0.211426H8C6.94939 0.211308 5.90905 0.418153 4.93839 0.820149C3.96773 1.22214 3.08577 1.81142 2.34288 2.55431C1.59999 3.2972 1.01072 4.17916 0.608723 5.14982C0.206727 6.12048 -0.000118163 7.16082 5.06411e-08 8.21143V24.2114C5.06411e-08 20.2332 1.58035 16.4179 4.3934 13.6048C7.20644 10.7918 11.0218 9.21143 15 9.21143Z" fill="url(#paint1_linear_199_4773)"/>
<path fill-rule="evenodd" clip-rule="evenodd" d="M24 16.2114C22.4178 16.2114 20.871 16.6806 19.5554 17.5597C18.2398 18.4387 17.2145 19.6881 16.609 21.15C16.0035 22.6118 15.845 24.2203 16.1537 25.7721C16.4624 27.324 17.2243 28.7495 18.3431 29.8683C19.462 30.9871 20.8874 31.749 22.4393 32.0577C23.9911 32.3664 25.5997 32.208 27.0615 31.6025C28.5233 30.997 29.7727 29.9716 30.6518 28.656C31.5308 27.3404 32 25.7937 32 24.2114V8.21143C32.0001 9.26203 31.7933 10.3024 31.3913 11.273C30.9893 12.2437 30.4 13.1257 29.6571 13.8685C28.9142 14.6114 28.0323 15.2007 27.0616 15.6027C26.091 16.0047 25.0506 16.2115 24 16.2114Z" fill="url(#paint2_linear_199_4773)"/>
<path d="M23.37 9.53775C22.0321 8.92388 20.5974 8.47158 19.0973 8.21251C19.07 8.20751 19.0427 8.22002 19.0286 8.24498C18.8441 8.57318 18.6397 9.00128 18.4966 9.3378C16.8832 9.09624 15.278 9.09624 13.6977 9.3378C13.5545 8.99382 13.3427 8.57318 13.1574 8.24498C13.1433 8.22084 13.116 8.20833 13.0887 8.21251C11.5894 8.47072 10.1547 8.92302 8.81597 9.53775C8.80437 9.54275 8.79445 9.55107 8.78785 9.5619C6.06653 13.6275 5.32101 17.5932 5.68672 21.5097C5.68836 21.5289 5.69914 21.5472 5.71402 21.5589C7.50947 22.8775 9.24871 23.6779 10.9556 24.2085C10.9829 24.2168 11.0119 24.2069 11.0292 24.1844C11.433 23.633 11.7929 23.0516 12.1015 22.4402C12.1197 22.4044 12.1023 22.3619 12.0651 22.3477C11.4942 22.1312 10.9506 21.8671 10.4277 21.5673C10.3863 21.5431 10.383 21.484 10.4211 21.4556C10.5311 21.3732 10.6412 21.2874 10.7463 21.2007C10.7653 21.1849 10.7918 21.1816 10.8141 21.1916C14.2495 22.76 17.9687 22.76 21.3635 21.1916C21.3858 21.1807 21.4123 21.1841 21.4321 21.1999C21.5373 21.2865 21.6473 21.3731 21.7582 21.4556C21.7962 21.4839 21.7937 21.5431 21.7524 21.5672C21.2294 21.8729 20.6858 22.1311 20.1141 22.3468C20.0769 22.361 20.0603 22.4043 20.0786 22.4401C20.3938 23.0507 20.7537 23.6321 21.15 24.1835C21.1666 24.2068 21.1964 24.2168 21.2237 24.2085C22.9388 23.6779 24.6781 22.8774 26.4735 21.5589C26.4893 21.5472 26.4992 21.5297 26.5008 21.5106C26.9385 16.9826 25.7677 13.0494 23.3972 9.56272C23.3915 9.55107 23.3816 9.54275 23.37 9.53775ZM12.6146 19.125C11.5803 19.125 10.7281 18.1755 10.7281 17.0093C10.7281 15.8432 11.5638 14.8936 12.6146 14.8936C13.6736 14.8936 14.5176 15.8515 14.5011 17.0093C14.5011 18.1755 13.6654 19.125 12.6146 19.125ZM19.5896 19.125C18.5553 19.125 17.7031 18.1755 17.7031 17.0093C17.7031 15.8432 18.5388 14.8936 19.5896 14.8936C20.6487 14.8936 21.4926 15.8515 21.4761 17.0093C21.4761 18.1755 20.6487 19.125 19.5896 19.125Z" fill="white"/>
</g>
<defs>
<linearGradient id="paint0_linear_199_4773" x1="0" y1="0.211426" x2="25.6" y2="32.2114" gradientUnits="userSpaceOnUse">
<stop stop-color="#936FFF"/>
<stop offset="1" stop-color="#7F4AEE"/>
</linearGradient>
<linearGradient id="paint1_linear_199_4773" x1="16.8" y1="21.8114" x2="2.4" y2="3.41142" gradientUnits="userSpaceOnUse">
<stop stop-color="#936FFF"/>
<stop offset="1" stop-color="#AE97FF"/>
</linearGradient>
<linearGradient id="paint2_linear_199_4773" x1="16" y1="20.2114" x2="28" y2="32.2114" gradientUnits="userSpaceOnUse">
<stop stop-color="#7F4AEE"/>
<stop offset="1" stop-color="#53239F"/>
</linearGradient>
<clipPath id="clip0_199_4773">
<rect width="32" height="32" fill="white" transform="translate(0 0.211426)"/>
</clipPath>
</defs>
</svg>
