<svg width="32" height="33" viewBox="0 0 32 33" fill="none" xmlns="http://www.w3.org/2000/svg">
<g clip-path="url(#clip0_199_4775)">
<path fill-rule="evenodd" clip-rule="evenodd" d="M24 32.2114H8C5.8783 32.2113 3.84352 31.3684 2.34325 29.8682C0.842977 28.3679 9.28184e-05 26.3331 0 24.2114L0 8.21143C9.28184e-05 6.08972 0.842977 4.05494 2.34325 2.55467C3.84352 1.0544 5.8783 0.211519 8 0.211426L24 0.211426C26.1217 0.211426 28.1566 1.05428 29.6569 2.55457C31.1571 4.05486 32 6.08969 32 8.21143V24.2114C32 26.3332 31.1571 28.368 29.6569 29.8683C28.1566 31.3686 26.1217 32.2114 24 32.2114Z" fill="url(#paint0_linear_199_4775)"/>
<path fill-rule="evenodd" clip-rule="evenodd" d="M15 9.21143H24C25.1536 9.21135 26.2632 8.76825 27.0995 7.97363C27.9359 7.17901 28.4351 6.09355 28.4941 4.94143C28.5532 3.7893 28.1675 2.6585 27.4168 1.78256C26.666 0.906611 25.6076 0.352417 24.46 0.234426C24.307 0.225926 24.1555 0.211426 24 0.211426H8C5.8783 0.211519 3.84352 1.0544 2.34325 2.55467C0.842977 4.05494 9.28184e-05 6.08972 0 8.21143L0 24.2114C9.28219e-05 20.2332 1.58048 16.418 4.3935 13.6049C7.20653 10.7919 11.0218 9.21152 15 9.21143Z" fill="url(#paint1_linear_199_4775)"/>
<path fill-rule="evenodd" clip-rule="evenodd" d="M24 16.2114C22.4178 16.2114 20.871 16.6806 19.5554 17.5597C18.2398 18.4387 17.2145 19.6881 16.609 21.15C16.0035 22.6118 15.845 24.2203 16.1537 25.7721C16.4624 27.324 17.2243 28.7495 18.3431 29.8683C19.462 30.9871 20.8874 31.749 22.4393 32.0577C23.9911 32.3664 25.5997 32.208 27.0615 31.6025C28.5233 30.997 29.7727 29.9716 30.6518 28.656C31.5308 27.3404 32 25.7937 32 24.2114V8.21143C32 10.3332 31.1571 12.368 29.6569 13.8683C28.1566 15.3686 26.1217 16.2114 24 16.2114Z" fill="url(#paint2_linear_199_4775)"/>
<path d="M12.288 24.3395C19.957 24.3395 24.2105 17.8275 23.952 12.1395C24.5202 11.729 25.0338 11.2478 25.4805 10.7075C25.5143 10.6657 25.5337 10.6141 25.5358 10.5603C25.5378 10.5066 25.5224 10.4536 25.4919 10.4094C25.4613 10.3651 25.4172 10.332 25.3662 10.3149C25.3152 10.2978 25.26 10.2976 25.209 10.3145C24.8718 10.4228 24.5281 10.5099 24.18 10.575C24.1524 10.5799 24.1241 10.5754 24.0994 10.5622C24.0747 10.549 24.0552 10.5278 24.044 10.5022C24.0328 10.4766 24.0306 10.4479 24.0377 10.4209C24.0447 10.3938 24.0607 10.3699 24.083 10.353C24.5311 9.99853 24.9004 9.5546 25.1675 9.04952C25.1906 9.00348 25.1986 8.95136 25.1905 8.9005C25.1823 8.84965 25.1584 8.80264 25.1221 8.76612C25.0858 8.72959 25.0389 8.70539 24.9881 8.69694C24.9373 8.68849 24.8852 8.69621 24.839 8.71902C24.2029 9.02207 23.5314 9.24397 22.84 9.37952C22.2771 8.77943 21.5467 8.36242 20.7438 8.18264C19.9409 8.00287 19.1025 8.06862 18.3375 8.37137C17.5724 8.67412 16.916 9.19988 16.4535 9.88039C15.991 10.5609 15.7438 11.3647 15.744 12.1875C15.7451 12.449 15.7697 12.7099 15.8175 12.967C15.821 12.9857 15.8202 13.005 15.8152 13.0233C15.8102 13.0417 15.801 13.0586 15.7884 13.0729C15.7758 13.0872 15.7601 13.0984 15.7426 13.1057C15.725 13.113 15.706 13.1162 15.687 13.115C12.7183 12.9252 9.93504 11.6056 7.90898 9.42752C7.85044 9.36255 7.77578 9.31419 7.69256 9.28732C7.60934 9.26045 7.52049 9.25602 7.43501 9.27449C7.34953 9.29295 7.27044 9.33366 7.20573 9.39248C7.14102 9.45131 7.09298 9.52618 7.06648 9.60952C6.78651 10.3886 6.75611 11.2354 6.97949 12.0326C7.20287 12.8297 7.66895 13.5374 8.31298 14.0575C8.33388 14.0742 8.34871 14.0973 8.35521 14.1233C8.36171 14.1492 8.35951 14.1766 8.34895 14.2012C8.33839 14.2258 8.32005 14.2462 8.29675 14.2594C8.27346 14.2725 8.24648 14.2777 8.21998 14.274C7.98555 14.2421 7.75446 14.1892 7.52948 14.116C7.44737 14.0886 7.35948 14.0832 7.27463 14.1004C7.18977 14.1176 7.11092 14.1568 7.04598 14.214C6.97937 14.27 6.92944 14.3432 6.90166 14.4257C6.87388 14.5081 6.86932 14.5966 6.88848 14.6815C7.75748 18.0275 10.111 17.601 10.111 17.8545C10.111 18.026 9.64548 18.026 9.02148 18.0275C8.93703 18.0279 8.85409 18.05 8.78063 18.0917C8.70717 18.1333 8.64566 18.1932 8.60198 18.2655C8.55831 18.3378 8.53395 18.4201 8.53123 18.5045C8.52852 18.5889 8.54754 18.6726 8.58648 18.7475C8.91489 19.3122 9.37226 19.7911 9.92122 20.1451C10.4702 20.4992 11.0951 20.7183 11.745 20.7845C11.7702 20.7864 11.7943 20.7961 11.8139 20.8121C11.8335 20.8282 11.8477 20.8499 11.8546 20.8743C11.8614 20.8986 11.8606 20.9245 11.8523 20.9485C11.844 20.9724 11.8285 20.9932 11.808 21.008C10.6729 21.829 9.34604 22.345 7.95448 22.5065C7.84675 22.515 7.74497 22.5594 7.66533 22.6324C7.58569 22.7055 7.53278 22.803 7.51501 22.9096C7.49725 23.0162 7.51565 23.1257 7.56729 23.2206C7.61893 23.3156 7.70084 23.3905 7.79998 23.4335C9.21991 24.034 10.7463 24.3421 12.288 24.3395Z" fill="white"/>
</g>
<defs>
<linearGradient id="paint0_linear_199_4775" x1="7.6" y1="4.21143" x2="27.6" y2="32.2114" gradientUnits="userSpaceOnUse">
<stop stop-color="#81E4F7"/>
<stop offset="1" stop-color="#48C1ED"/>
</linearGradient>
<linearGradient id="paint1_linear_199_4775" x1="-4.33177e-07" y1="-5.38857" x2="14.4" y2="16.2114" gradientUnits="userSpaceOnUse">
<stop stop-color="#CFFBFB"/>
<stop offset="1" stop-color="#81E4F7"/>
</linearGradient>
<linearGradient id="paint2_linear_199_4775" x1="22" y1="15.4114" x2="32" y2="29.8114" gradientUnits="userSpaceOnUse">
<stop stop-color="#5FD5F7"/>
<stop offset="1" stop-color="#2FA4D1"/>
</linearGradient>
<clipPath id="clip0_199_4775">
<rect width="32" height="32" fill="white" transform="translate(0 0.211426)"/>
</clipPath>
</defs>
</svg>
