<svg width="32" height="33" viewBox="0 0 32 33" fill="none" xmlns="http://www.w3.org/2000/svg">
<g clip-path="url(#clip0_199_4776)">
<path fill-rule="evenodd" clip-rule="evenodd" d="M24 32.2114H8C5.8783 32.2113 3.84352 31.3684 2.34325 29.8682C0.842977 28.3679 9.28184e-05 26.3331 0 24.2114L0 8.21143C9.28184e-05 6.08972 0.842977 4.05494 2.34325 2.55467C3.84352 1.0544 5.8783 0.211519 8 0.211426L24 0.211426C26.1217 0.211426 28.1566 1.05428 29.6569 2.55457C31.1571 4.05486 32 6.08969 32 8.21143V24.2114C32 26.3332 31.1571 28.368 29.6569 29.8683C28.1566 31.3686 26.1217 32.2114 24 32.2114Z" fill="url(#paint0_linear_199_4776)"/>
<path fill-rule="evenodd" clip-rule="evenodd" d="M15 9.21143H24C25.1536 9.21135 26.2632 8.76825 27.0995 7.97363C27.9359 7.17901 28.4351 6.09355 28.4941 4.94143C28.5532 3.7893 28.1675 2.6585 27.4168 1.78256C26.666 0.906611 25.6076 0.352417 24.46 0.234426C24.307 0.225926 24.1555 0.211426 24 0.211426H8C5.8783 0.211519 3.84352 1.0544 2.34325 2.55467C0.842977 4.05494 9.28184e-05 6.08972 0 8.21143L0 24.2114C9.28219e-05 20.2332 1.58048 16.418 4.3935 13.6049C7.20653 10.7919 11.0218 9.21152 15 9.21143Z" fill="url(#paint1_linear_199_4776)"/>
<path fill-rule="evenodd" clip-rule="evenodd" d="M24 16.2114C22.4178 16.2114 20.871 16.6806 19.5554 17.5597C18.2398 18.4387 17.2145 19.6881 16.609 21.15C16.0035 22.6118 15.845 24.2203 16.1537 25.7721C16.4624 27.324 17.2243 28.7495 18.3431 29.8683C19.462 30.9871 20.8874 31.749 22.4393 32.0577C23.9911 32.3664 25.5997 32.208 27.0615 31.6025C28.5233 30.997 29.7727 29.9716 30.6518 28.656C31.5308 27.3404 32 25.7937 32 24.2114V8.21143C32 10.3332 31.1571 12.368 29.6569 13.8683C28.1566 15.3686 26.1217 16.2114 24 16.2114Z" fill="url(#paint2_linear_199_4776)"/>
<path fill-rule="evenodd" clip-rule="evenodd" d="M16.8645 18.9129C16.8645 18.9129 19.672 11.1984 20.52 8.86943C20.5901 8.67657 20.7179 8.50996 20.886 8.39224C21.054 8.27452 21.2543 8.21139 21.4595 8.21143H24.793C24.8919 8.21145 24.9885 8.24078 25.0707 8.29572C25.1529 8.35067 25.217 8.42875 25.2548 8.5201C25.2927 8.61145 25.3026 8.71197 25.2833 8.80894C25.264 8.90592 25.2164 8.995 25.1465 9.06493L24 10.2114V22.2114L25.1465 23.3579C25.2164 23.4279 25.264 23.5169 25.2833 23.6139C25.3026 23.7109 25.2927 23.8114 25.2548 23.9028C25.217 23.9941 25.1529 24.0722 25.0707 24.1271C24.9885 24.1821 24.8919 24.2114 24.793 24.2114H19.207C19.1081 24.2114 19.0115 24.1821 18.9293 24.1271C18.8471 24.0722 18.783 23.9941 18.7452 23.9028C18.7073 23.8114 18.6974 23.7109 18.7167 23.6139C18.736 23.5169 18.7836 23.4279 18.8535 23.3579L20 22.2114V13.2214C20 13.2214 16.932 21.6509 16.17 23.7449C16.1202 23.8816 16.0295 23.9997 15.9102 24.0832C15.791 24.1666 15.649 24.2114 15.5035 24.2114H15.503C15.353 24.2115 15.2062 24.1683 15.0801 24.0871C14.954 24.0059 14.854 23.89 14.792 23.7534L10 13.2114V20.2114C10 20.2114 11.296 22.2854 12.022 23.4464C12.0693 23.5221 12.0955 23.6091 12.0978 23.6983C12.1002 23.7875 12.0786 23.8757 12.0353 23.9538C11.9921 24.0319 11.9287 24.0969 11.8518 24.1422C11.7749 24.1875 11.6873 24.2114 11.598 24.2114H7C6.90714 24.2114 6.81612 24.1856 6.73713 24.1368C6.65815 24.0879 6.59431 24.0181 6.55279 23.935C6.51126 23.852 6.49368 23.759 6.50202 23.6665C6.51036 23.574 6.54429 23.4857 6.6 23.4114C7.4755 22.2439 9 20.2114 9 20.2114V11.2114C9 11.2114 7.9235 9.91993 7.1835 9.03143C7.1227 8.95842 7.08395 8.86961 7.0718 8.77538C7.05964 8.68116 7.07459 8.58542 7.11488 8.49938C7.15517 8.41334 7.21914 8.34056 7.2993 8.28956C7.37946 8.23856 7.47249 8.21146 7.5675 8.21143H11.356C11.548 8.21143 11.7359 8.26669 11.8974 8.3706C12.0588 8.4745 12.187 8.62268 12.2665 8.79743C13.2835 11.0349 16.8645 18.9129 16.8645 18.9129Z" fill="#171C2E"/>
</g>
<defs>
<linearGradient id="paint0_linear_199_4776" x1="-1.66893e-07" y1="-1.78857" x2="29.2" y2="43.0114" gradientUnits="userSpaceOnUse">
<stop stop-color="#EFF2FC"/>
<stop offset="1" stop-color="#DBDFEF"/>
</linearGradient>
<linearGradient id="paint1_linear_199_4776" x1="0" y1="0.211426" x2="8.8" y2="10.2114" gradientUnits="userSpaceOnUse">
<stop stop-color="white"/>
<stop offset="1" stop-color="#EFF2FC"/>
</linearGradient>
<linearGradient id="paint2_linear_199_4776" x1="16" y1="12.2114" x2="32" y2="40.6114" gradientUnits="userSpaceOnUse">
<stop stop-color="#EFF2FC"/>
<stop offset="0.984375" stop-color="#C2C8DE"/>
</linearGradient>
<clipPath id="clip0_199_4776">
<rect width="32" height="32" fill="white" transform="translate(0 0.211426)"/>
</clipPath>
</defs>
</svg>
