<svg width="91" height="160" viewBox="0 0 91 160" fill="none" xmlns="http://www.w3.org/2000/svg">
<g clip-path="url(#clip0_108_2570)">
<path d="M71.9335 2.00182C70.4674 1.738 68.9599 1.81891 67.5304 2.23815C66.1009 2.65738 64.7886 3.40344 63.6972 4.41733C60.1441 7.83007 61.2817 12.0923 61.9908 14.3601C62.6999 16.6279 62.7294 17.4847 62.2715 18.2013C61.8135 18.9178 59.7156 21.156 59.4349 21.8947C59.1542 22.6334 65.2558 25.8689 65.2558 25.8689L70.0942 23.0618C70.0942 23.0618 74.3564 25.6177 74.7848 25.47C75.2133 25.3222 76.6316 23.0618 77.9095 17.8024C79.1875 12.5429 78.8994 8.56876 77.1708 5.58446C75.4423 2.60016 71.9335 2.00182 71.9335 2.00182Z" fill="#F6BA99"/>
<path d="M69.097 13.3998C69.097 13.3998 68.3583 11.265 67.1025 13.1117C65.8468 14.9584 66.253 16.3841 66.8218 16.6648L67.3906 16.9529C67.2517 18.0282 67.4505 19.1201 67.9594 20.0775C68.5268 21.1571 69.243 22.1517 70.0868 23.0323" stroke="#393762" stroke-width="0.5" stroke-miterlimit="10"/>
<path d="M78.3379 8.65007C78.1065 7.58761 77.7207 6.56475 77.1929 5.61406C75.4866 2.6593 71.9335 2.06096 71.9335 2.06096C70.4673 1.79715 68.9599 1.87805 67.5304 2.29729C66.1009 2.71652 64.7886 3.46258 63.6971 4.47647C60.144 7.88922 61.2816 12.1515 61.9908 14.4192C62.5152 16.1034 62.6482 17.0046 62.5152 17.6473C63.6241 17.7566 64.7436 17.6741 65.8245 17.4035C66.217 17.2929 66.5837 17.1058 66.9036 16.8529C67.2236 16.6001 67.4904 16.2866 67.6888 15.9303C67.8871 15.5741 68.0132 15.1821 68.0596 14.777C68.106 14.3719 68.0719 13.9616 67.9593 13.5697C67.5309 12.7202 68.698 11.8634 68.698 11.8634C68.698 11.8634 69.5475 14.1385 70.5447 12.7202C71.542 11.302 69.8061 9.3075 71.5346 8.16992C73.2631 7.03234 75.0877 7.03234 77.2225 8.16992C77.5777 8.36601 77.9513 8.52683 78.3379 8.65007Z" fill="#393762"/>
<path d="M78.3379 8.65004C78.3379 8.65004 79.3204 9.30747 80.7461 7.46075C82.1717 5.61403 82.1643 2.34903 81.0268 3.19852C80.4809 3.59437 79.958 4.02104 79.4608 4.47645C79.4608 4.47645 78.3306 -0.494927 76.7646 0.0443162C76.3364 0.174359 75.9576 0.43096 75.6781 0.780362C75.3986 1.12976 75.2314 1.5556 75.1985 2.00184C75.1985 2.00184 72.2438 -0.265934 71.6528 0.443207C71.3691 0.818835 71.0333 1.15213 70.6556 1.43305C70.6556 1.43305 70.9437 1.58079 70.0868 1.86149C69.4637 2.14265 68.926 2.58352 68.5282 3.13942C68.5282 3.13942 73.2115 3.70821 74.6371 5.12649C76.0628 6.54478 78.3379 8.65004 78.3379 8.65004Z" fill="#393762"/>
<path d="M68.2401 32.2881C68.2401 32.2881 70.796 33.1376 70.9437 37.3998C71.0914 41.662 74.349 52.602 74.349 52.602C74.349 52.602 78.1828 48.3398 78.892 47.4829C79.6011 46.626 81.0268 46.3453 82.445 48.7608C83.8633 51.1764 83.4423 54.0203 81.3075 57.4331C79.1727 60.8458 75.1985 65.9501 71.9335 65.3813C68.6685 64.8126 63.2687 55.0397 63.1284 53.88C62.988 52.7202 65.6842 41.2336 66.0831 39.3869C66.482 37.5402 68.2401 32.2881 68.2401 32.2881Z" fill="url(#paint0_linear_108_2570)"/>
<path d="M36.9861 73.3444C36.9861 73.3444 34.9991 76.048 35.7082 78.6039C36.2003 80.3043 36.8175 81.966 37.5549 83.5753C37.5549 83.5753 32.8716 98.7775 31.7341 101.902C30.5965 105.027 31.446 105.315 28.4617 107.162C25.4774 109.008 18.9474 111.594 16.8125 118.382C15.2078 123.477 13.2657 128.46 10.9991 133.296C10.1422 135.003 9.72115 136 7.87442 136C6.0277 136 2.90305 135.143 2.61496 137.559C2.47033 139.829 2.47033 142.106 2.61496 144.377C2.61496 145.234 0.48751 146.652 1.337 149.636C2.18649 152.621 3.75255 155.317 4.60204 155.597C5.45153 155.878 7.01753 155.457 7.16527 154.748C7.313 154.039 5.59925 152.901 6.42658 150.316C7.25391 147.73 11.5457 143.668 13.9612 141.363C16.3767 139.058 22.0868 129.005 26.3195 124.462C30.5521 119.919 35.4127 114.231 38.8181 111.247C42.2234 108.262 49.1597 96.7609 50.6371 94.1976C52.1145 91.6344 53.5918 88.096 53.5918 88.096C53.5918 88.096 68.5134 90.9326 71.0692 91.361C72.7999 91.672 74.5076 92.0989 76.181 92.639C73.3866 95.2719 71.4551 98.6893 70.6408 102.441C69.5032 108.41 66.9474 119.202 65.6694 122.755C64.3915 126.308 63.446 128.465 62.5595 130.312C61.6731 132.159 60.2844 134.574 61.2816 135.712C62.2788 136.85 67.6713 137.559 70.3749 137.987C73.0785 138.416 78.3305 138.268 79.4607 137.248C80.5909 136.229 80.7461 135.682 80.0295 135.542C79.313 135.402 75.3463 132.838 74.2087 131.849C73.0711 130.859 72.2216 129.145 72.3619 128.436C72.5023 127.727 78.892 113.662 81.7359 107.982C84.5799 102.301 87.7045 92.3509 88.554 90.0831C89.4035 87.8153 89.6916 87.3795 88.8421 86.2493C87.9926 85.1191 82.7331 81.1302 73.9206 76.2992C65.108 71.4681 60.2844 71.3278 57.5882 70.9067C54.892 70.4857 50.3416 66.3564 44.2327 69.06C38.1237 71.7636 36.9861 73.3444 36.9861 73.3444Z" fill="#F6BA99"/>
<path d="M68.6685 30.8698C68.988 35.1817 68.8444 39.5155 68.2401 43.7969C67.2502 51.3315 61.8504 62.5522 61.422 65.2188C60.9935 67.8855 62.8402 69.6509 62.2714 70.4783C61.7027 71.3056 60.5725 71.6159 59.1468 71.6159C57.7211 71.6159 52.1883 70.1902 47.7858 71.0471C43.3832 71.9039 38.5522 75.8781 37.5549 75.4792C36.5577 75.0803 34.9991 73.3444 35.9963 71.6454C36.9935 69.9464 37.9834 68.9418 38.8329 67.2133C39.6824 65.4847 43.952 52.0185 44.9418 47.6159C45.9317 43.2133 45.5106 38.0942 45.3703 34.5411C45.2299 30.988 48.2068 25.1671 50.482 24.3176C52.7572 23.4681 59.1468 25.1671 59.856 25.1671C60.5651 25.1671 67.3906 27.3167 68.6685 30.8698Z" fill="url(#paint1_linear_108_2570)"/>
<path d="M65.2558 29.7322C65.2558 29.7322 68.5282 33.8541 68.9492 33.5734C69.3703 33.2927 70.9437 31.8671 69.6879 28.4543C68.4321 25.0416 65.4331 22.7738 62.301 20.0776C59.169 17.3814 55.9113 13.2595 53.7839 15.6455C51.6565 18.0314 47.675 23.6011 49.3518 25.4479C51.0286 27.2946 60.0111 27.723 61.9981 28.4026C63.9852 29.0822 65.2558 29.7322 65.2558 29.7322Z" fill="url(#paint2_linear_108_2570)"/>
<path d="M29.8873 59.5679C30.2385 60.8192 30.7632 62.0151 31.446 63.121C32.5835 64.9677 33.1524 66.9548 32.4432 67.6639C31.7341 68.373 31.7045 68.4026 28.8901 69.2299C26.0757 70.0572 24.916 69.5106 24.6279 68.8015C24.3398 68.0923 25.4774 67.2355 25.4774 67.2355C24.9621 67.1148 24.5015 66.8268 24.1673 66.4165C23.8332 66.0061 23.6445 65.4967 23.6306 64.9677C23.7202 63.1121 23.9101 61.2626 24.1994 59.4275L29.7396 58.9991L29.8873 59.5679Z" fill="#F6BA99"/>
<path d="M23.2096 56.5836C23.2096 56.5836 23.0693 59.4275 23.9483 60.1367C24.8274 60.8458 29.3481 60.1367 29.9169 59.5679C30.4857 58.9991 30.6556 55.3057 30.6556 55.3057L23.2096 56.5836Z" fill="url(#paint3_linear_108_2570)"/>
<path d="M57.7285 28.7423C56.3251 27.3484 54.626 26.288 52.7572 25.6399C49.8024 24.6426 40.3989 25.3518 33.8615 27.0581C27.3241 28.7645 24.6279 28.5946 23.6306 31.1579C22.6334 33.7211 21.0748 53.5992 21.3629 55.8744C21.651 58.1496 26.1939 58.2899 28.3213 57.7211C30.4488 57.1523 32.1551 55.734 32.8716 52.7497C33.5882 49.7654 33.433 39.1135 34.4303 37.976C35.4275 36.8384 47.217 37.5475 50.482 37.1191C53.747 36.6906 56.0221 35.7008 56.5909 34.8513" fill="url(#paint4_linear_108_2570)"/>
<path d="M80.7461 46.5004C80.7461 46.5004 78.3305 47.7784 78.7516 49.9058C79.1726 52.0332 81.3075 53.5992 82.1644 53.4589C83.0212 53.3185 84.7202 51.0434 84.7202 51.0434C84.7202 51.0434 85.0009 45.3629 80.7461 46.5004Z" fill="url(#paint5_linear_108_2570)"/>
<path d="M80.4358 48.0591C80.4358 48.0591 81.5734 51.3315 82.9917 51.4718C84.41 51.6122 85.1265 50.7331 86.8255 49.0563C88.5245 47.3795 90.2382 46.1015 90.2382 43.7968C90.2382 41.4921 89.6694 38.4044 88.3915 38.2567C87.621 38.1732 86.8417 38.2719 86.1163 38.5448C86.1163 38.5448 85.6953 37.6879 84.4174 38.6851C83.1394 39.6823 83.4201 40.3915 82.711 41.6399C82.0888 42.4907 81.8237 43.5511 81.9723 44.5946C82.046 45.1114 82.0928 45.6316 82.1127 46.1533L80.4358 48.0591Z" fill="#F6BA99"/>
<path d="M86.1385 38.5448C86.5669 39.2835 87.2761 43.0877 86.7073 43.6565C86.1385 44.2253 85.1487 45.3629 84.8606 44.085C84.5725 42.807 84.0111 40.9603 84.0111 40.9603" stroke="#393762" stroke-width="0.5" stroke-miterlimit="10"/>
<path d="M73.9206 76.3287C65.1154 71.4977 60.2844 71.3573 57.5882 70.9363C54.892 70.5152 50.3416 66.386 44.2327 69.0896C38.1237 71.7932 36.9861 73.3444 36.9861 73.3444C36.9861 73.3444 34.9991 76.048 35.7082 78.6039C36.2003 80.3043 36.8175 81.966 37.555 83.5752C37.555 83.5752 32.8717 98.7775 31.7341 101.902C31.675 102.065 31.638 102.19 31.5863 102.338C32.8421 102.774 34.3047 103.328 36.0185 104.03C38.228 104.923 40.0708 106.537 41.2484 108.609C44.6667 104.009 47.8044 99.2058 50.6445 94.2271C52.0702 91.6713 53.5993 88.1256 53.5993 88.1256C53.5993 88.1256 68.5208 90.9621 71.0767 91.3906C71.9335 91.5309 72.7904 91.723 73.5512 91.915C73.9863 89.1468 74.8801 86.4705 76.1958 83.9963C77.5993 81.47 78.8994 80.3028 79.8892 79.7562C78.109 78.6925 76.1293 77.5402 73.9206 76.3287Z" fill="url(#paint6_linear_108_2570)"/>
<path d="M79.4608 137.278C80.5983 136.281 80.7461 135.712 80.0296 135.572C79.313 135.431 75.3463 132.868 74.2087 131.878C73.0711 130.888 72.2216 129.175 72.362 128.465C72.4063 128.236 73.1007 126.611 74.1274 124.329C72.9132 124.7 71.6422 124.85 70.3749 124.772C68.6951 124.475 67.0511 124.002 65.47 123.361C64.2955 126.56 63.3647 128.569 62.5596 130.312C61.7544 132.055 60.2844 134.574 61.2816 135.712C62.2789 136.849 67.6713 137.559 70.3749 137.987C73.0785 138.415 78.3306 138.268 79.4608 137.278Z" fill="#DECBB6"/>
<path d="M80.0295 135.572C79.2908 135.431 75.3462 132.868 74.2087 131.878C73.0711 130.888 72.2216 129.174 72.3619 128.465C72.3619 128.465 71.7932 126.619 70.5152 126.338C69.2373 126.057 68.6685 129.891 68.6685 129.891L63.2539 128.805C63.0101 129.337 62.7811 129.839 62.5595 130.283C61.7027 132.129 60.2844 134.545 61.2816 135.682C62.2788 136.82 67.6713 137.529 70.3749 137.957C73.0785 138.386 78.3305 138.238 79.4607 137.219C80.5909 136.199 80.7461 135.704 80.0295 135.572Z" fill="url(#paint7_linear_108_2570)"/>
<path d="M12.698 138.127C11.5738 137.185 10.7581 135.926 10.3564 134.515C10.1429 134.987 9.78957 135.382 9.34431 135.646C8.89906 135.91 8.38335 136.031 7.86702 135.993C6.0203 135.993 2.89565 135.136 2.60756 137.551C2.46293 139.822 2.46293 142.099 2.60756 144.369C2.60756 145.226 0.48011 146.645 1.3296 149.629C2.17909 152.613 3.74515 155.309 4.59464 155.59C5.44413 155.871 7.01013 155.45 7.15787 154.741C7.3056 154.031 5.59185 152.894 6.41918 150.308C7.24651 147.723 11.5383 143.66 13.9538 141.356C14.5312 140.771 15.0576 140.139 15.5272 139.464C14.5174 139.176 13.5616 138.725 12.698 138.127Z" fill="#DECBB6"/>
<path d="M10.5115 144.813C10.3965 144.614 10.2708 144.421 10.1348 144.236C9.28531 143.099 7.86702 144.377 7.86702 144.377C6.99608 143.348 6.54041 142.031 6.58911 140.683C6.69991 139.029 8.1699 136.783 8.80517 135.86C8.49376 135.954 8.17011 136.001 7.84484 136C5.99812 136 2.87347 135.143 2.58538 137.559C2.44075 139.829 2.44075 142.106 2.58538 144.377C2.58538 145.234 0.457973 146.652 1.30746 149.636C2.15696 152.621 3.72296 155.317 4.57246 155.597C5.42195 155.878 6.98799 155.457 7.13573 154.748C7.28347 154.039 5.56971 152.901 6.39704 150.316C6.95106 148.816 8.68698 146.733 10.5115 144.813Z" fill="url(#paint8_linear_108_2570)"/>
</g>
<defs>
<linearGradient id="paint0_linear_108_2570" x1="58.8917" y1="82.6563" x2="85.6163" y2="81.3805" gradientUnits="userSpaceOnUse">
<stop stop-color="#266525"/>
<stop offset="1" stop-color="#02B3A9"/>
</linearGradient>
<linearGradient id="paint1_linear_108_2570" x1="28.7126" y1="102.25" x2="72.6783" y2="100.024" gradientUnits="userSpaceOnUse">
<stop stop-color="#9AE498"/>
<stop offset="1" stop-color="#02B3A9"/>
</linearGradient>
<linearGradient id="paint2_linear_108_2570" x1="44.495" y1="43.289" x2="72.4736" y2="40.7912" gradientUnits="userSpaceOnUse">
<stop stop-color="#BF93FE"/>
<stop offset="1" stop-color="#6E50E4"/>
</linearGradient>
<linearGradient id="paint3_linear_108_2570" x1="21.636" y1="63.1008" x2="31.4178" y2="61.9845" gradientUnits="userSpaceOnUse">
<stop stop-color="#BF93FE"/>
<stop offset="1" stop-color="#6E50E4"/>
</linearGradient>
<linearGradient id="paint4_linear_108_2570" x1="-4.43214" y1="66.1126" x2="44.7279" y2="79.6567" gradientUnits="userSpaceOnUse">
<stop stop-color="#9AE498"/>
<stop offset="1" stop-color="#31C8BF"/>
</linearGradient>
<linearGradient id="paint5_linear_108_2570" x1="77.4377" y1="57.1689" x2="85.4075" y2="56.6395" gradientUnits="userSpaceOnUse">
<stop stop-color="#BF93FE"/>
<stop offset="1" stop-color="#6E50E4"/>
</linearGradient>
<linearGradient id="paint6_linear_108_2570" x1="21.4427" y1="129.634" x2="85.0936" y2="123.664" gradientUnits="userSpaceOnUse">
<stop stop-color="#494746"/>
<stop offset="1" stop-color="#171C2E"/>
</linearGradient>
<linearGradient id="paint7_linear_108_2570" x1="70.7021" y1="126.323" x2="70.7021" y2="138.183" gradientUnits="userSpaceOnUse">
<stop stop-color="#212788"/>
<stop offset="1" stop-color="#010438"/>
</linearGradient>
<linearGradient id="paint8_linear_108_2570" x1="-0.738703" y1="145.522" x2="9.23361" y2="151.431" gradientUnits="userSpaceOnUse">
<stop stop-color="#010438"/>
<stop offset="1" stop-color="#191D65"/>
</linearGradient>
<clipPath id="clip0_108_2570">
<rect width="90.2604" height="160" fill="white"/>
</clipPath>
</defs>
</svg>
