<svg width="113" height="120" viewBox="0 0 113 120" fill="none" xmlns="http://www.w3.org/2000/svg">
<g clip-path="url(#clip0_108_2273)">
<path d="M29.908 17.587C28.7482 11.6368 32.2349 5.74076 38.234 3.50584C41.768 2.20243 47.1744 1.42617 49.8358 4.06908C54.7659 8.96859 33.4493 46.1066 33.4493 46.1066L28.1738 45.7456C28.1738 45.7456 30.6461 39.6077 31.7696 33.5636C32.3767 30.3177 31.0497 23.436 29.908 17.587Z" fill="#0C0C0C"/>
<path d="M112.357 34.1521C112.357 34.1521 113.357 40.6258 108.863 44.388C104.369 48.1501 78.8167 71.467 78.8167 71.467C78.8167 71.467 34.3364 109.739 23.0146 115.667C11.6927 121.596 1.37795 109.89 1.37795 109.89C1.37795 109.89 -0.65082 105.919 0.218134 101.9C0.218134 101.828 0.247222 101.756 0.265401 101.684C1.02528 98.528 10.7001 87.2668 16.0411 80.4429C17.619 78.4282 18.8152 76.7998 19.3133 75.8827C19.7387 75.0704 20.3277 73.3806 21.0294 71.124C22.062 67.7951 23.3309 63.2278 24.6652 58.4258C26.8867 50.3634 29.2608 41.6331 30.9188 36.9358C32.613 32.1446 32.2822 27.1007 31.5478 23.306C31.1587 21.2076 30.5645 19.1519 29.7735 17.1681C29.5408 15.2148 30.9297 13.0449 33.2275 11.0302C37.8013 7.03331 45.9746 3.70077 52.0754 4.02933C58.3617 4.36872 64.8771 2.05436 68.3493 0.570429C69.1664 0.220996 70.0536 0.0633198 70.9421 0.109657C71.8306 0.155994 72.6963 0.405094 73.4721 0.837605C76.7443 2.66815 82.3398 5.70824 85.2193 6.84917C89.455 8.52807 101.126 23.306 101.126 23.306L107.274 29.2201L112.357 34.1521Z" fill="#171C2E"/>
<path d="M62.8883 75.6517L18.5134 110.194L1.39977 109.89C1.11198 109.295 0.868933 108.68 0.672611 108.049C0.192686 106.515 -0.272685 104.215 0.229055 101.911C0.229055 101.839 0.258143 101.767 0.276322 101.698C1.26162 97.611 17.1973 79.923 19.3097 75.8972C19.7351 75.0849 20.3241 73.3951 21.0258 71.1385C22.0583 67.806 23.3272 63.2423 24.6616 58.4366C26.9848 62.1013 30.7224 66.8961 34.4782 67.1019C37.874 67.2825 42.9496 67.3619 47.4725 67.7013C51.0465 67.9685 54.2715 68.3945 56.0457 69.1455C60.0269 70.8786 62.8883 75.6517 62.8883 75.6517Z" fill="url(#paint0_linear_108_2273)"/>
<g style="mix-blend-mode:multiply" opacity="0.35">
<path d="M62.8883 75.6517L18.5134 110.194L4.1848 113.443C3.50127 112.382 1.39977 109.905 1.39977 109.905C1.11199 109.31 0.868937 108.694 0.672615 108.064C14.5141 101.261 37.0887 78.5474 47.4398 67.6832C51.0138 67.9504 54.2387 68.3765 56.013 69.1274C60.0269 70.8786 62.8883 75.6517 62.8883 75.6517Z" fill="#C97209"/>
</g>
<path d="M29.3954 81.5405C26.0359 87.5231 19.6078 91.65 9.80936 97.9215C4.41749 101.38 1.62883 102.023 0.218147 101.893C0.218147 101.821 0.247235 101.749 0.265414 101.676C1.25071 97.5893 17.1864 79.9049 19.2988 75.8755C19.7242 75.0631 20.3132 73.3734 21.0149 71.1168C23.1164 72.0158 32.3767 76.2221 29.3954 81.5405Z" fill="#494746"/>
<path d="M103.286 32.5598L86.6518 46.4749C85.9715 47.0451 85.1417 47.411 84.2596 47.5299C83.3775 47.6489 82.4795 47.5159 81.6708 47.1464C80.7556 46.731 80.0023 46.0299 79.5256 45.1498C77.635 41.6873 75.9407 36.9394 77.9513 33.1736C81.5544 26.4219 83.9104 21.4827 75.2754 20.006C66.6404 18.5293 45.2001 29.1515 42.1243 27.2776C40.9681 26.5555 39.2956 23.8079 37.6559 20.6306C36.9242 19.2172 36.5119 17.6622 36.4477 16.0742C36.3834 14.4863 36.6689 12.9035 37.284 11.4363C37.8991 9.96912 38.8292 8.6529 40.0093 7.5794C41.1894 6.50591 42.5911 5.70099 44.1167 5.22083C46.8508 4.37235 49.6176 3.92104 52.0536 4.05101C58.6308 4.41207 65.4588 1.85941 68.7782 0.393533C69.4223 0.108045 70.1242 -0.0254285 70.8288 0.00358867C71.5778 0.0280051 72.3098 0.231108 72.963 0.595723C76.1516 2.38294 82.158 5.67576 85.1829 6.87446C89.1023 8.42699 99.3843 21.1903 100.9 23.093C101.027 23.2535 101.166 23.4044 101.315 23.5443L103.515 25.6601C103.986 26.1118 104.357 26.6567 104.603 27.2597C104.85 27.8627 104.966 28.5102 104.944 29.1605C104.922 29.8108 104.764 30.4494 104.478 31.0349C104.192 31.6205 103.786 32.14 103.286 32.5598Z" fill="url(#paint1_linear_108_2273)"/>
<g style="mix-blend-mode:multiply" opacity="0.35">
<path d="M103.286 32.5599L86.6518 46.4749C85.9715 47.0451 85.1417 47.4111 84.2596 47.53C83.3775 47.6489 82.4795 47.5159 81.6708 47.1465C81.4999 32.9967 89.2769 19.4031 89.2769 15.7564C89.2769 13.0449 78.6131 5.28583 70.8434 0.00360107C71.5923 0.0280175 72.3244 0.23112 72.9776 0.595735C76.1662 2.38295 82.1725 5.67578 85.1975 6.87448C89.1169 8.42701 99.3989 21.1903 100.915 23.093C101.042 23.2536 101.18 23.4044 101.33 23.5443L103.529 25.6601C104 26.1128 104.37 26.6585 104.615 27.2621C104.86 27.8656 104.974 28.5134 104.951 29.1638C104.928 29.8141 104.768 30.4524 104.481 31.0374C104.194 31.6224 103.787 32.141 103.286 32.5599Z" fill="url(#paint2_linear_108_2273)"/>
</g>
<path d="M49.5704 32.6321C49.2977 37.1019 42.0806 45.6878 38.9648 49.858C35.8489 54.0282 34.0274 63.1303 29.9953 66.499C25.9632 69.8676 25.1488 77.2151 21.0367 79.4789C18.9679 80.6162 17.2446 80.674 16.0411 80.4465C17.3609 78.7568 18.4153 77.345 19.0043 76.3919C19.1243 76.2077 19.2188 76.0308 19.2988 75.8864C19.7242 75.074 20.3132 73.3843 21.0149 71.1277C22.0474 67.7952 23.3163 63.2314 24.6507 58.4258C26.8721 50.3671 29.2463 41.6368 30.9042 36.9395C32.5985 32.1483 32.2676 27.1007 31.5369 23.3133C35.5362 22.2987 39.9937 21.3852 42.6042 21.5585C43.2101 21.5642 43.8054 21.7167 44.3385 22.0026C46.0645 23.1711 47.4546 24.7656 48.3719 26.6293C49.2893 28.493 49.7023 30.5618 49.5704 32.6321Z" fill="#494746"/>
<g style="mix-blend-mode:screen" opacity="0.51">
<path d="M45.3601 30.2563C45.3601 36.0332 39.252 43.1676 35.6162 50.5476C31.9804 57.9275 28.061 63.9066 24.9779 66.044C21.8947 68.1815 23.2691 74.2761 20.7822 75.8611C20.2441 76.184 19.6325 76.3665 19.0043 76.3918C19.1243 76.2077 19.2188 76.0308 19.2988 75.8864C19.7242 75.074 20.3132 73.3843 21.0149 71.1277C21.6657 69.0263 22.411 66.434 23.1964 63.6105C23.6617 61.9497 24.1453 60.2058 24.6507 58.4258C26.8721 50.367 29.2463 41.6367 30.9042 36.9394C32.5985 32.1482 32.2677 27.1007 31.5369 23.3132C34.2078 22.6009 36.9221 22.0594 39.6628 21.6921C40.6373 21.5602 41.6217 21.5154 42.6042 21.5585C43.9313 23.9343 45.3601 27.1874 45.3601 30.2563Z" fill="#494746"/>
</g>
<g style="mix-blend-mode:screen" opacity="0.51">
<path d="M43.7058 28.5919C42.1606 33.7405 34.2528 41.7451 32.3804 48.5149C30.5079 55.2846 27.8901 61.2384 24.298 63.3759C23.9742 63.5807 23.5874 63.6639 23.2072 63.6105C23.6726 61.9497 24.1562 60.2058 24.6616 58.4258C26.883 50.3671 29.2572 41.6368 30.9151 36.9395C32.6094 32.1483 32.2785 27.1007 31.5478 23.3133C34.2187 22.6009 36.933 22.0594 39.6738 21.6921C41.997 23.1797 44.6075 25.5951 43.7058 28.5919Z" fill="#494746"/>
</g>
<path d="M38.9575 14.7129C39.092 14.6732 39.2593 14.7996 39.3211 14.9909L43.964 29.4114C44.0258 29.5992 43.964 29.7942 43.8295 29.8303L39.5101 31.0579C39.3756 31.0976 39.212 30.9676 39.1466 30.7798L34.5109 16.3557C34.4491 16.168 34.5109 15.9766 34.6491 15.9369L38.9648 14.7129H38.9575ZM38.394 12.969L34.0783 14.193C33.2566 14.4277 32.8857 15.5614 33.2602 16.7204L37.9104 31.1373C38.274 32.2891 39.2556 33.0401 40.0919 32.8054L44.4075 31.5778C45.2292 31.3467 45.6001 30.213 45.2292 29.0504L40.5791 14.6371C40.2155 13.4853 39.2302 12.7344 38.3976 12.969H38.394Z" fill="#FBD7C0"/>
<path d="M35.8962 17.0526C35.8962 17.0526 40.59 28.6064 40.0846 29.0143C39.5792 29.4223 32.5149 33.1267 31.7841 33.087C31.0533 33.0473 26.7885 22.4504 27.8829 20.9448C28.9773 19.4392 35.8962 17.0526 35.8962 17.0526Z" fill="#ED7F07"/>
<path d="M37.645 15.9766L42.1243 27.2812C42.1243 27.2812 64.1863 19.7533 66.5895 17.7458C68.9928 15.7384 71.1888 8.67253 69.4582 5.68301C67.7275 2.69348 66.7895 4.78759 57.5546 7.93959C48.3197 11.0916 37.645 15.9766 37.645 15.9766Z" fill="#ED7F07"/>
<path d="M21.8947 68.1995C21.5481 68.1124 21.1856 68.1078 20.8368 68.1863C20.488 68.2647 20.1628 68.4239 19.8878 68.6509C18.957 69.4271 18.3098 72.4058 18.3098 72.4058L19.8514 74.5974C20.1966 74.8665 20.6154 75.0259 21.0532 75.0549C21.4911 75.0839 21.9275 74.9811 22.3056 74.7599C23.6545 73.9836 23.3381 72.3336 22.7637 71.7271C22.1892 71.1205 21.5166 69.4777 21.5166 69.4777L21.8947 68.1995Z" fill="#FBD7C0"/>
<path d="M23.4872 63.3289C23.4872 63.3289 22.4837 63.134 22.0656 63.4734C21.6475 63.8127 21.7384 66.9142 21.7384 66.9142L22.9091 68.1671C22.9091 68.1671 25.4542 68.6797 26.0614 68.8097C26.6685 68.9397 26.963 67.7518 26.843 66.564C26.7231 65.3761 23.4872 63.3289 23.4872 63.3289Z" fill="#FBD7C0"/>
<path d="M25.1306 56.6639C25.1306 56.6639 24.3743 56.5303 23.5127 58.0178C22.651 59.5054 24.0217 60.686 24.0217 60.686C24.0217 60.686 26.7885 61.6031 27.2503 62.0905C27.712 62.5779 28.4791 63.5347 29.6935 63.3542C29.9054 63.3219 30.1075 63.2435 30.2853 63.1246C30.4632 63.0057 30.6123 62.8492 30.7221 62.6663C30.8319 62.4834 30.8996 62.2787 30.9204 62.0668C30.9412 61.8549 30.9146 61.6411 30.8424 61.4406C30.6315 60.9243 26.414 56.5195 25.1306 56.6639Z" fill="#FBD7C0"/>
<path d="M26.8176 50.5512C26.8176 50.5512 23.6217 52.6345 25.6505 54.7719L30.3988 55.1113C30.3988 55.1113 31.7041 55.411 32.1949 55.003C32.6858 54.595 32.2458 52.6128 30.4643 51.8618C28.6828 51.1108 26.8176 50.5512 26.8176 50.5512Z" fill="#FBD7C0"/>
<path d="M29.1736 41.4707C29.1736 41.4707 27.2066 44.7202 28.1738 45.7492C29.1409 46.7782 35.06 50.2335 36.3543 50.3021C37.6486 50.3707 38.2013 50.1938 38.2922 48.681C38.3831 47.1681 36.9069 46.7529 34.82 45.4965C32.733 44.24 29.1736 41.4707 29.1736 41.4707Z" fill="#FBD7C0"/>
<path d="M29.908 40.8208C29.908 40.8208 28.7882 39.3585 29.4463 38.196C29.8491 37.4963 30.4295 36.9137 31.1297 36.5062C31.1297 36.5062 38.0377 37.1886 38.9139 38.1093C39.7901 39.03 39.6192 40.3153 38.4994 40.745C37.3796 41.1746 29.908 40.8208 29.908 40.8208Z" fill="#FBD7C0"/>
<path d="M112.357 34.1521C112.357 34.1521 113.357 40.6258 108.863 44.388C104.369 48.1502 78.8167 71.4671 78.8167 71.4671C78.8167 71.4671 34.3364 109.739 23.0146 115.667C11.6927 121.596 6.28992 120.083 5.49005 118.841C4.78834 117.758 2.30874 114.375 1.43251 112.613C1.32027 112.396 1.22779 112.17 1.15619 111.938C0.938041 111.111 0.792604 110.443 1.37797 109.88C3.81395 109.999 10.7729 109.107 27.5811 96.7048C49.6104 80.4573 65.4334 59.036 75.7408 49.19C86.0483 39.3441 94.8142 32.2638 101.09 23.371C101.102 23.356 101.117 23.3438 101.135 23.3354C101.153 23.3271 101.172 23.3228 101.191 23.3228C101.211 23.3228 101.23 23.3271 101.248 23.3354C101.265 23.3438 101.281 23.356 101.293 23.371L102.835 24.9958L112.357 34.1521Z" fill="#FCF1E8"/>
<path d="M108.863 44.3844C104.365 48.1466 78.8167 71.4635 78.8167 71.4635C78.8167 71.4635 34.3364 109.735 23.0146 115.667C11.6927 121.599 6.28992 120.079 5.49004 118.841C5.12646 118.307 4.3484 117.195 3.53399 115.996C2.7697 114.909 2.06809 113.779 1.43251 112.613C3.25041 112.508 6.24993 111.754 11.2491 109.396C22.6583 104.031 46.2545 86.0284 55.5622 74.5866C64.8698 63.1448 83.3759 44.3555 91.3347 37.6977C97.1956 32.7946 101.086 28.1731 102.766 24.9886C102.782 24.957 102.806 24.9297 102.835 24.9089C102.864 24.8881 102.897 24.8743 102.933 24.8687C102.968 24.8631 103.004 24.8658 103.038 24.8766C103.073 24.8873 103.104 24.9059 103.129 24.9308L108.448 30.2852L109.495 31.3395L111.001 32.8523L112.339 34.1377C112.339 34.1377 113.357 40.6258 108.863 44.3844Z" fill="#F9AB81"/>
<g style="mix-blend-mode:multiply">
<path d="M84.3613 55.3496L84.6812 57.2993L94.1888 48.5654L93.8325 47.1646L84.3613 55.3496Z" fill="#EFC495"/>
</g>
<g style="mix-blend-mode:multiply">
<path d="M108.837 33.6683C107.972 35.21 101.475 41.5898 101.475 41.5898L100.893 40.3153C100.893 40.3153 106.79 34.3688 107.863 32.4985C108.936 30.6282 108.401 30.2744 108.467 30.2997L109.514 31.354C109.568 31.4442 109.597 31.4984 109.597 31.4984C109.597 31.4984 109.703 32.1266 108.837 33.6683Z" fill="#EFC495"/>
</g>
<path d="M112.357 34.1521C112.357 34.1521 113.357 40.6258 108.863 44.388C104.369 48.1502 78.8167 71.4671 78.8167 71.4671C78.8167 71.4671 34.3364 109.739 23.0146 115.667C11.6927 121.596 6.28991 120.083 5.49004 118.841C5.12646 118.307 4.3484 117.195 3.53398 115.996C6.11176 116.205 10.1802 116.043 15.2012 114.191C24.0435 110.909 50.1666 91.4009 56.5656 85.3965C62.9646 79.3922 84.6049 61.0254 85.7683 60.0541C86.9318 59.0829 108.154 42.4888 111.004 32.8992C111.018 32.8568 111.043 32.819 111.077 32.7901C111.111 32.7611 111.152 32.7422 111.197 32.7354C111.241 32.7287 111.286 32.7343 111.327 32.7518C111.369 32.7693 111.404 32.7978 111.43 32.8343L112.357 34.1521Z" fill="#4E0F04"/>
<g style="mix-blend-mode:screen" opacity="0.27">
<path d="M34.071 19.3272C34.071 19.3272 29.6063 20.6198 28.6791 21.5405C27.752 22.4612 30.9806 31.5128 32.1622 31.5128C33.3438 31.5128 36.587 30.3394 37.645 28.3536C38.703 26.3678 36.8887 19.3272 34.071 19.3272Z" fill="#ED7F07"/>
</g>
<g style="mix-blend-mode:screen" opacity="0.27">
<path d="M39.4702 17.4317L42.9169 25.4399C42.9169 25.4399 59.0671 21.1505 61.3394 17.4497C63.6118 13.7489 64.7934 8.69417 59.3397 9.77733C53.8861 10.8605 39.4702 17.4317 39.4702 17.4317Z" fill="url(#paint3_linear_108_2273)"/>
</g>
<g style="mix-blend-mode:screen" opacity="0.4">
<path d="M23.24 77.493C23.24 77.493 2.87954 95.0836 6.35899 96.5026C9.83844 97.9215 15.1103 92.5021 15.1103 92.5021C15.1103 92.5021 27.7156 83.0172 27.7156 80.5548C27.7156 78.0924 23.24 77.493 23.24 77.493Z" fill="#494746"/>
</g>
</g>
<defs>
<linearGradient id="paint0_linear_108_2273" x1="-18.8498" y1="159.881" x2="73.2934" y2="149.333" gradientUnits="userSpaceOnUse">
<stop stop-color="#F3BB4D"/>
<stop offset="1" stop-color="#F05F2E"/>
</linearGradient>
<linearGradient id="paint1_linear_108_2273" x1="15.8865" y1="93.2419" x2="115.76" y2="79.6892" gradientUnits="userSpaceOnUse">
<stop stop-color="#F3BB4D"/>
<stop offset="1" stop-color="#F05F2E"/>
</linearGradient>
<linearGradient id="paint2_linear_108_2273" x1="61.4448" y1="61.3792" x2="93.583" y2="62.7261" gradientUnits="userSpaceOnUse">
<stop stop-color="#F3BB4D"/>
<stop offset="1" stop-color="#F05F2E"/>
</linearGradient>
<linearGradient id="paint3_linear_108_2273" x1="63.2628" y1="7.94316" x2="45.0367" y2="7.52448" gradientUnits="userSpaceOnUse">
<stop stop-color="#F3BB4D"/>
<stop offset="1" stop-color="#F05F2E"/>
</linearGradient>
<clipPath id="clip0_108_2273">
<rect width="112.451" height="120" fill="white"/>
</clipPath>
</defs>
</svg>
