<svg width="136" height="73" viewBox="0 0 136 73" fill="none" xmlns="http://www.w3.org/2000/svg">
<path d="M108.794 36.2L113.383 35.9666C113.455 36.8627 113.777 37.7206 114.312 38.4427C114.848 39.1648 115.575 39.7219 116.412 40.0508L114.89 44.4058C113.198 43.7608 111.725 42.6458 110.645 41.1921C109.565 39.7384 108.923 38.0064 108.794 36.2Z" fill="url(#paint0_linear_108_2594)"/>
<path d="M81.8921 39.3263L77.6229 37.1323C78.74 34.8586 78.9797 32.2529 78.2962 29.8135L82.8822 28.5145C83.8907 32.1178 83.5383 35.9661 81.8921 39.3263Z" fill="url(#paint1_linear_108_2594)"/>
<path d="M126.328 58.3298L129.953 55.6539C132.316 58.849 134.307 62.3038 135.885 65.951L131.731 67.7175C130.297 64.391 128.484 61.241 126.328 58.3298Z" fill="#F3FAEB"/>
<path d="M65.7419 7.37417L64.1577 2.8831C66.1489 2.15749 68.043 1.18918 69.7973 0L72.419 3.96035C70.3426 5.36937 68.0999 6.51603 65.7419 7.37417Z" fill="#F3FAEB"/>
<path d="M100.506 20.3166C98.9831 20.302 97.516 19.7429 96.3697 18.7405C95.2235 17.738 94.4738 16.3584 94.2563 14.8513L99.8008 14.2573C99.8399 14.3709 99.9079 14.4723 99.9982 14.5515C100.089 14.6307 100.198 14.6849 100.316 14.7087L100.506 20.3166Z" fill="url(#paint2_linear_108_2594)"/>
<path d="M31.0729 20.2057L28.5145 15.4533C30.3027 14.4302 31.7596 12.9155 32.7125 11.089L37.4649 13.584C36.0101 16.3562 33.7921 18.654 31.0729 20.2057Z" fill="url(#paint3_linear_108_2594)"/>
<path d="M29.7105 44.7362L25.3462 47.5242C24.1945 45.7747 22.5366 44.418 20.5938 43.6352L22.471 38.8115C25.4276 40.0091 27.9518 42.0749 29.7105 44.7362Z" fill="url(#paint4_linear_108_2594)"/>
<path d="M1.14851 72.8468C1.13496 68.4159 0.750779 63.9939 0 59.6271L5.47323 58.6132C6.27488 63.2945 6.68816 68.034 6.70886 72.7834L1.14851 72.8468Z" fill="url(#paint5_linear_108_2594)"/>
<defs>
<linearGradient id="paint0_linear_108_2594" x1="114.161" y1="29.092" x2="106.36" y2="32.1378" gradientUnits="userSpaceOnUse">
<stop stop-color="#BF93FE"/>
<stop offset="1" stop-color="#6E50E4"/>
</linearGradient>
<linearGradient id="paint1_linear_108_2594" x1="76.4" y1="44.9484" x2="84.1273" y2="44.6216" gradientUnits="userSpaceOnUse">
<stop stop-color="#9AE498"/>
<stop offset="1" stop-color="#02B3A9"/>
</linearGradient>
<linearGradient id="paint2_linear_108_2594" x1="92.3815" y1="26.1336" x2="101.573" y2="25.2403" gradientUnits="userSpaceOnUse">
<stop stop-color="#F3BB4D"/>
<stop offset="1" stop-color="#F05F2E"/>
</linearGradient>
<linearGradient id="paint3_linear_108_2594" x1="26.6349" y1="24.9464" x2="38.4628" y2="24.0347" gradientUnits="userSpaceOnUse">
<stop stop-color="#9AE498"/>
<stop offset="1" stop-color="#02B3A9"/>
</linearGradient>
<linearGradient id="paint4_linear_108_2594" x1="17.8588" y1="55.8885" x2="31.264" y2="54.5667" gradientUnits="userSpaceOnUse">
<stop stop-color="#F3BB4D"/>
<stop offset="1" stop-color="#F05F2E"/>
</linearGradient>
<linearGradient id="paint5_linear_108_2594" x1="-1.40886" y1="80.2482" x2="7.49729" y2="79.9186" gradientUnits="userSpaceOnUse">
<stop stop-color="#74FCF2"/>
<stop offset="1" stop-color="#4EC4F0"/>
</linearGradient>
</defs>
</svg>
