<svg width="104" height="120" viewBox="0 0 104 120" fill="none" xmlns="http://www.w3.org/2000/svg">
<path d="M32.5375 58.2218C32.5375 58.2218 8.6706 56.8694 3.05406 41.6011C-0.955053 30.7247 8.5532 27.7868 14.3441 27.0091L14.4951 26.968C15.7871 26.7961 17.0889 26.7085 18.3922 26.7058L18.8724 34.2C18.8724 34.2 18.3022 34.0308 17.4194 33.8593C14.6748 33.3584 8.87079 32.9418 7.61053 38.2142C6.14289 44.3293 15.9514 52.0296 26.5461 54.2745C28.0307 54.6019 29.5394 54.8088 31.0574 54.8933L32.5375 58.2218Z" fill="#FFDE67"/>
<path d="M28.3867 56.8184C23.9664 55.6905 19.675 54.1068 15.5818 52.0927C9.94997 49.1457 4.78259 44.5124 4.32125 37.3625C3.8599 30.2125 13.9776 29.4674 13.9776 29.4674L14.3441 27.0091L14.3823 26.7366C14.3823 26.7366 14.4076 26.8296 14.4518 26.9922C15.5512 29.2344 16.5274 31.5349 17.3761 33.8835C14.6316 33.3827 8.8275 32.966 7.56724 38.2384C6.0996 44.3535 15.9081 52.0538 26.5028 54.2987C27.6331 55.8379 28.3867 56.8184 28.3867 56.8184Z" fill="url(#paint0_linear_108_2526)"/>
<path d="M94.7837 34.4254C92.3638 46.5777 78.2127 52.4018 71.6102 54.4612C69.5674 55.1172 68.2408 55.3784 68.2408 55.3784L69.1761 51.8917C81.0498 49.3457 92.468 38.3878 89.739 31.7554C87.9731 27.469 83.5807 27.7911 80.6962 28.5639C79.7669 28.806 78.8615 29.1319 77.9911 29.5374L77.7273 26.689L77.3039 22.0621C77.3039 22.0621 78.0199 21.942 79.1627 21.8306C84.1814 21.4253 97.3761 21.4399 94.7837 34.4254Z" fill="#C47212"/>
<path opacity="0.77" d="M94.7837 34.4255C92.3638 46.5778 78.2127 52.4018 71.6102 54.4613C73.2522 52.3503 75.4896 50.7805 78.0333 49.9548C84.4597 47.4316 87.82 43.2722 91.1544 37.8719C94.4889 32.4716 92.7691 26.75 88.3936 24.7963C84.0181 22.8426 80.9255 28.2145 80.694 28.602L76.556 31.4631C76.556 31.4631 77.0291 29.3501 77.7569 26.706C78.1716 25.158 78.6645 23.4389 79.1922 21.8476C84.1814 21.4254 97.3761 21.44 94.7837 34.4255Z" fill="url(#paint1_linear_108_2526)"/>
<path d="M81.3672 18.5599C81.3672 18.5599 82.1397 30.9788 75.4613 48.6207C73.7481 53.0576 71.0874 57.0672 67.6649 60.3698C64.2424 63.6724 60.1406 66.1885 55.6455 67.7425C54.9305 70.5923 54.5115 73.5083 54.3952 76.4441C54.3726 77.1132 54.3924 77.783 54.4545 78.4496C54.5114 78.6587 54.4987 78.8869 54.5323 79.1023C54.952 81.7041 55.7689 84.2259 56.9547 86.5795C71.9955 86.4534 73.2889 100.74 73.2889 100.74C79.4523 100.46 78.5122 103.149 78.5122 103.149C73.0608 109.849 62.3753 112.084 57.2255 112.787C55.4459 113.035 54.3253 113.09 54.3253 113.09C54.3253 113.09 44.7208 114.07 36.3326 111.175C33.6218 110.296 31.115 108.882 28.961 107.016C28.961 107.016 27.5534 104.504 33.7434 103.818C33.7434 103.818 32.8217 89.5675 47.6048 87.3028L47.6862 87.2806C48.6362 84.3895 49.0269 81.3438 48.8372 78.3065C48.7943 77.8267 48.7269 77.3494 48.6351 76.8765C48.0635 73.9932 47.1964 71.1765 46.0474 68.4709C41.3639 67.6388 36.9187 65.794 33.0223 63.0653C29.126 60.3365 25.8725 56.7898 23.4894 52.673C14.1517 36.2962 12.9884 23.9088 12.9884 23.9088C14.4132 21.9683 16.1426 20.2711 18.1096 18.8831C22.72 15.4192 30.8137 11.1818 43.9067 9.6766C44.6671 9.5819 45.4571 9.50413 46.2619 9.4348C71.6352 7.65657 81.3672 18.5599 81.3672 18.5599Z" fill="url(#paint2_linear_108_2526)"/>
<path opacity="0.68" d="M50.1729 67.8096C50.1729 67.8096 51.1986 74.0072 51.8107 79.4189C52.203 82.9686 52.4011 86.1718 52.0574 87.064C51.4178 88.6109 49.839 88.5415 47.8343 88.925C46.7732 89.1094 45.7488 89.4641 44.8008 89.9754C41.4331 91.8157 37.231 100.859 38.3438 103.801C39.3205 106.38 44.7615 108.58 46.1099 109.087C44.4721 108.572 36.579 106.166 35.2826 107.317C34.4417 108.033 35.3575 109.793 36.3295 111.163C33.6187 110.285 31.1119 108.871 28.9579 107.005C28.9579 107.005 27.5502 104.493 33.7403 103.806C33.7403 103.806 32.8186 89.5559 47.6017 87.2911L47.683 87.269C48.8001 83.924 49.1133 80.3629 48.5972 76.8743C48.0256 73.9911 47.1584 71.1744 46.0095 68.4688C41.326 67.6367 36.8807 65.7918 32.9843 63.0631C29.088 60.3344 25.8346 56.7877 23.4514 52.6708C14.1138 36.294 12.9505 23.9066 12.9505 23.9066C14.3752 21.9661 16.1046 20.269 18.0716 18.881C18.0716 18.881 19.0199 41.7098 31.2513 53.5426C43.4826 65.3754 50.1729 67.8096 50.1729 67.8096Z" fill="url(#paint3_linear_108_2526)"/>
<path opacity="0.77" d="M81.3672 18.56C81.3672 18.56 82.1398 30.9789 75.4613 48.6208C73.7481 53.0577 71.0874 57.0673 67.6649 60.3699C64.2425 63.6725 60.1406 66.1886 55.6455 67.7426C54.9305 70.5924 54.5115 73.5084 54.3953 76.4442C54.3726 77.1133 54.3924 77.7831 54.4545 78.4497C54.5114 78.6588 54.4987 78.8869 54.5324 79.1024C54.952 81.7042 55.769 84.226 56.9547 86.5795C71.9955 86.4535 73.2889 100.74 73.2889 100.74C79.4524 100.46 78.5123 103.149 78.5123 103.149C73.0608 109.849 62.3753 112.084 57.2255 112.787C57.2258 109.855 66.789 109.136 64.893 107.58C62.997 106.025 54.8272 108.149 54.8272 108.149C54.8272 108.149 61.6951 105.506 62.3285 99.3058C62.9619 93.1058 54.6093 88.5533 53.7648 87.6975C53.3859 87.314 52.8524 83.1538 52.3919 78.7117C52.316 78.4329 52.3362 78.1403 52.2951 77.852C51.7705 72.716 51.3494 67.5019 51.3494 67.5019C51.3494 67.5019 55.443 62.6437 61.2983 46.012C64.7843 36.0975 64.7368 25.2828 61.1637 15.3992C59.3343 13.8321 57.2669 12.5666 55.0391 11.6504C50.6002 9.60167 43.8518 9.70412 43.8518 9.70412C44.6122 9.60942 45.4022 9.53165 46.207 9.46232C71.6352 7.65665 81.3672 18.56 81.3672 18.56Z" fill="url(#paint4_linear_108_2526)"/>
<defs>
<linearGradient id="paint0_linear_108_2526" x1="15.3852" y1="37.0799" x2="1.67089" y2="43.0799" gradientUnits="userSpaceOnUse">
<stop stop-color="#D4A205"/>
<stop offset="1" stop-color="#C88738" stop-opacity="0"/>
</linearGradient>
<linearGradient id="paint1_linear_108_2526" x1="83.0995" y1="22.9371" x2="61.2423" y2="59.7942" gradientUnits="userSpaceOnUse">
<stop stop-color="#F9BF05"/>
<stop offset="1" stop-color="#C88738" stop-opacity="0"/>
</linearGradient>
<linearGradient id="paint2_linear_108_2526" x1="27.3852" y1="19.5085" x2="64.6709" y2="37.0799" gradientUnits="userSpaceOnUse">
<stop stop-color="#FFE65A"/>
<stop offset="1" stop-color="#F9BF05"/>
</linearGradient>
<linearGradient id="paint3_linear_108_2526" x1="12.8137" y1="20.7942" x2="57.3852" y2="82.937" gradientUnits="userSpaceOnUse">
<stop stop-color="#FFFAC9"/>
<stop offset="1" stop-color="#F3E77F" stop-opacity="0"/>
</linearGradient>
<linearGradient id="paint4_linear_108_2526" x1="52.827" y1="7.26082" x2="79.9957" y2="107.063" gradientUnits="userSpaceOnUse">
<stop stop-color="#EBAC31"/>
<stop offset="1" stop-color="#A8821A"/>
</linearGradient>
</defs>
</svg>
