<svg width="80" height="81" viewBox="0 0 80 81" fill="none" xmlns="http://www.w3.org/2000/svg">
<path d="M39.8312 39.6268L40.1853 39.6253C41.6569 39.6253 42.9986 39.7115 43.8732 39.8413L44.4171 39.955C44.7051 40.0183 45.0331 40.1015 45.2005 40.1882C45.813 40.5057 46.1919 41.1264 46.1919 41.7907L46.1919 41.8486C46.1776 42.2816 45.7975 43.1915 45.7843 43.1915C45.1701 44.6554 43.3162 47.4798 41.9945 48.7843L41.5977 49.1634C41.4902 49.2626 41.3629 49.3741 41.2637 49.4434C40.9575 49.6746 40.5785 49.7903 40.1996 49.7903C39.7766 49.7903 39.3834 49.6605 39.0617 49.415L38.6414 49.0256L38.5517 48.9383C37.2685 47.7547 35.17 44.6642 34.5279 43.0475L34.4343 42.8034C34.329 42.5096 34.2035 42.0981 34.1919 41.8486C34.1919 41.5311 34.2657 41.2278 34.4111 40.9388C34.6149 40.5777 34.9365 40.2897 35.3154 40.1304C35.5776 40.0289 36.3652 39.8697 36.3795 39.8697C37.1736 39.7237 38.4267 39.639 39.8312 39.6268ZM40.1923 31.7903C41.0306 31.7903 41.7102 32.4634 41.7102 33.2935L41.3831 36.9928C41.3831 37.644 40.8499 38.172 40.1923 38.172C39.5336 38.172 39.0016 37.644 39.0016 36.9928L38.6744 33.2935C38.6744 32.4634 39.3541 31.7903 40.1923 31.7903Z" fill="white"/>
<g opacity="0.1">
<mask id="path-2-outside-1_127_318" maskUnits="userSpaceOnUse" x="-10.2145" y="-8.26653" width="99.2043" height="99.2043" fill="black">
<rect fill="white" x="-10.2145" y="-8.26653" width="99.2043" height="99.2043"/>
<path d="M34.3802 9.47943C42.3748 8.05324 50.6126 9.71994 57.4241 14.1417C64.2355 18.5635 69.111 25.4097 71.0624 33.2925C73.0139 41.1754 71.8952 49.5054 67.9332 56.5942C63.9713 63.683 57.4623 69.0002 49.7257 71.4684C41.989 73.9365 33.6033 73.3708 26.2682 69.886C18.933 66.4011 13.1972 60.2579 10.2232 52.7012C7.24916 45.1445 7.2594 36.7398 10.2519 29.1904C13.2443 21.641 18.9951 15.5117 26.3387 12.0448L40.0001 40.9821L34.3802 9.47943Z"/>
</mask>
<path d="M34.3802 9.47943C42.3748 8.05324 50.6126 9.71994 57.4241 14.1417C64.2355 18.5635 69.111 25.4097 71.0624 33.2925C73.0139 41.1754 71.8952 49.5054 67.9332 56.5942C63.9713 63.683 57.4623 69.0002 49.7257 71.4684C41.989 73.9365 33.6033 73.3708 26.2682 69.886C18.933 66.4011 13.1972 60.2579 10.2232 52.7012C7.24916 45.1445 7.2594 36.7398 10.2519 29.1904C13.2443 21.641 18.9951 15.5117 26.3387 12.0448L40.0001 40.9821L34.3802 9.47943Z" stroke="url(#paint0_linear_127_318)" stroke-width="16" mask="url(#path-2-outside-1_127_318)"/>
</g>
<defs>
<linearGradient id="paint0_linear_127_318" x1="30.2089" y1="67.8639" x2="38.3896" y2="14.151" gradientUnits="userSpaceOnUse">
<stop stop-color="white"/>
<stop offset="1" stop-color="white" stop-opacity="0"/>
</linearGradient>
</defs>
</svg>
