<svg width="81" height="81" viewBox="0 0 81 81" fill="none" xmlns="http://www.w3.org/2000/svg">
<path d="M38.8366 40.3607L38.835 40.0066C38.835 38.535 38.9212 37.1933 39.051 36.3187L39.1648 35.7748C39.228 35.4868 39.3112 35.1588 39.3979 34.9914C39.7154 34.3789 40.3361 34 41.0005 34H41.0583C41.4914 34.0143 42.4012 34.3943 42.4012 34.4076C43.8652 35.0218 46.6895 36.8757 47.994 38.1974L48.3731 38.5942C48.4723 38.7017 48.5839 38.829 48.6531 38.9282C48.8844 39.2344 49 39.6134 49 39.9923C49 40.4153 48.8702 40.8085 48.6247 41.1302L48.2353 41.5505L48.148 41.6402C46.9644 42.9234 43.8739 45.0218 42.2572 45.664L42.0131 45.7576C41.7194 45.8629 41.3078 45.9884 41.0583 46C40.7408 46 40.4376 45.9262 40.1485 45.7808C39.7874 45.577 39.4994 45.2554 39.3401 44.8764C39.2387 44.6143 39.0794 43.8267 39.0794 43.8124C38.9334 43.0183 38.8487 41.7652 38.8366 40.3607ZM31 39.9996C31 39.1613 31.6731 38.4817 32.5033 38.4817L36.2025 38.8088C36.8537 38.8088 37.3817 39.3419 37.3817 39.9996C37.3817 40.6583 36.8537 41.1903 36.2025 41.1903L32.5033 41.5175C31.6731 41.5175 31 40.8378 31 39.9996Z" fill="white"/>
<g opacity="0.1">
<mask id="path-2-outside-1_108_2367" maskUnits="userSpaceOnUse" x="-9.05679" y="-8.79797" width="99.2043" height="99.2043" fill="black">
<rect fill="white" x="-9.05679" y="-8.79797" width="99.2043" height="99.2043"/>
<path d="M8.68918 45.8117C7.26299 37.8171 8.92969 29.5793 13.3515 22.7678C17.7733 15.9564 24.6194 11.0809 32.5023 9.12946C40.3852 7.17803 48.7151 8.29667 55.8039 12.2586C62.8927 16.2206 68.21 22.7296 70.6781 30.4662C73.1462 38.2029 72.5805 46.5886 69.0957 53.9237C65.6109 61.2589 59.4676 66.9947 51.9109 69.9687C44.3543 72.9427 35.9495 72.9325 28.4001 69.94C20.8508 66.9476 14.7215 61.1968 11.2545 53.8532L40.1918 40.1918L8.68918 45.8117Z"/>
</mask>
<path d="M8.68918 45.8117C7.26299 37.8171 8.92969 29.5793 13.3515 22.7678C17.7733 15.9564 24.6194 11.0809 32.5023 9.12946C40.3852 7.17803 48.7151 8.29667 55.8039 12.2586C62.8927 16.2206 68.21 22.7296 70.6781 30.4662C73.1462 38.2029 72.5805 46.5886 69.0957 53.9237C65.6109 61.2589 59.4676 66.9947 51.9109 69.9687C44.3543 72.9427 35.9495 72.9325 28.4001 69.94C20.8508 66.9476 14.7215 61.1968 11.2545 53.8532L40.1918 40.1918L8.68918 45.8117Z" stroke="url(#paint0_linear_108_2367)" stroke-width="16" mask="url(#path-2-outside-1_108_2367)"/>
</g>
<defs>
<linearGradient id="paint0_linear_108_2367" x1="67.0737" y1="49.983" x2="13.3608" y2="41.8023" gradientUnits="userSpaceOnUse">
<stop stop-color="white"/>
<stop offset="1" stop-color="white" stop-opacity="0"/>
</linearGradient>
</defs>
</svg>
