<svg width="16" height="12" viewBox="0 0 16 12" fill="none" xmlns="http://www.w3.org/2000/svg">
<path d="M15.7712 9.96479L12.1053 0.786878C12.0584 0.675505 11.9822 0.57882 11.8768 0.496853C11.7712 0.414702 11.6598 0.373718 11.5426 0.373718H8.56242C8.63854 0.373718 8.70594 0.401492 8.76454 0.457132C8.8231 0.512927 8.85534 0.578728 8.86128 0.654906L8.99319 2.34292C8.99907 2.42498 8.9757 2.49238 8.92314 2.54504C8.87024 2.59778 8.80583 2.62411 8.72956 2.62411H7.27023C7.19405 2.62411 7.12966 2.59778 7.07689 2.54504C7.02414 2.49242 7.00071 2.42498 7.00665 2.34292L7.13853 0.654906C7.14432 0.578728 7.1765 0.512927 7.23522 0.457132C7.29381 0.401585 7.36115 0.373718 7.43743 0.373718H4.45715C4.33996 0.373718 4.22859 0.414702 4.12307 0.496853C4.01764 0.578728 3.94152 0.675505 3.89456 0.786878L0.228565 9.96479C0.076178 10.3281 0 10.668 0 10.9846C0 11.4124 0.134774 11.6263 0.404415 11.6263H6.59337C6.51719 11.6263 6.45281 11.5985 6.4 11.5429C6.34725 11.487 6.32382 11.4213 6.32976 11.345L6.50552 9.09472C6.51137 9.01841 6.54361 8.95255 6.60221 8.89682C6.66077 8.84106 6.72824 8.81347 6.80441 8.81347H9.19549C9.27179 8.81347 9.33901 8.84106 9.39779 8.89682C9.45639 8.95255 9.48863 9.01841 9.49445 9.09472L9.67042 11.345C9.67642 11.4213 9.65271 11.487 9.60015 11.5429C9.54747 11.5985 9.48296 11.6263 9.40669 11.6263H15.5956C15.8651 11.6263 16 11.4124 16 10.9846C16 10.6682 15.9237 10.3282 15.7712 9.96479ZM9.32753 6.87903C9.33322 6.94941 9.30982 7.00798 9.25714 7.05478C9.20455 7.10177 9.14281 7.12517 9.07254 7.12517H6.92746C6.8571 7.12517 6.79545 7.10177 6.74283 7.05478C6.69002 7.0078 6.66662 6.9492 6.67244 6.87903V6.84383L6.88349 4.03085C6.88934 3.95464 6.92158 3.88875 6.98017 3.83304C7.03877 3.77734 7.1062 3.74954 7.18238 3.74954H8.8174C8.89371 3.74954 8.96114 3.77725 9.0197 3.83304C9.07827 3.88875 9.11054 3.95464 9.11645 4.03085L9.32743 6.84383V6.87903H9.32753Z" fill="#1BC7B0"/>
</svg>
