<svg width="180" height="180" viewBox="0 0 180 180" fill="none" xmlns="http://www.w3.org/2000/svg">
<circle cx="90" cy="90" r="90" fill="url(#paint0_radial_129_934)"/>
<circle opacity="0.25" cx="90" cy="90" r="60" fill="url(#paint1_linear_129_934)"/>
<path d="M135.32 93.1402V86.4302" stroke="#FFE65A" stroke-width="1.48" stroke-miterlimit="10" stroke-linecap="round"/>
<path d="M140.79 105.29V98.5801" stroke="#FFE65A" stroke-width="1.48" stroke-miterlimit="10" stroke-linecap="round"/>
<path d="M136.76 105.29V98.5801" stroke="#FFE65A" stroke-width="1.48" stroke-miterlimit="10" stroke-linecap="round"/>
<path d="M152.594 89.1938H84.1845C82.673 89.1938 81.4476 90.4192 81.4476 91.9308V102.744C81.4476 104.255 82.673 105.48 84.1845 105.48H152.594C154.105 105.48 155.331 104.255 155.331 102.744V91.9308C155.331 90.4192 154.105 89.1938 152.594 89.1938Z" fill="#FFC305"/>
<path d="M152.675 105.494H84.1171C83.4601 105.481 82.8304 105.229 82.3463 104.784C81.8621 104.34 81.557 103.734 81.4881 103.081H81.8656H132.249C134.368 103.007 136.374 102.103 137.834 100.565C139.294 99.027 140.092 96.9769 140.055 94.8564V89.1938H153.052C153.699 89.3119 154.284 89.6559 154.701 90.1646C155.118 90.6732 155.341 91.3134 155.331 91.9712V102.649C155.351 103.012 155.297 103.375 155.173 103.717C155.049 104.059 154.857 104.372 154.609 104.638C154.361 104.904 154.062 105.116 153.729 105.264C153.397 105.411 153.038 105.489 152.675 105.494Z" fill="#FFA50A"/>
<path d="M118.268 101.76V92.7129" stroke="#FFE65A" stroke-width="1.48" stroke-miterlimit="10" stroke-linecap="round"/>
<path d="M112.834 101.76V92.7129" stroke="#FFE65A" stroke-width="1.48" stroke-miterlimit="10" stroke-linecap="round"/>
<path d="M107.401 101.76V92.7129" stroke="#FFE65A" stroke-width="1.48" stroke-miterlimit="10" stroke-linecap="round"/>
<path d="M101.968 101.76V92.7129" stroke="#FFE65A" stroke-width="1.48" stroke-miterlimit="10" stroke-linecap="round"/>
<path d="M96.5343 101.76V92.7129" stroke="#FFE65A" stroke-width="1.48" stroke-miterlimit="10" stroke-linecap="round"/>
<path d="M91.1009 101.76V92.7129" stroke="#FFE65A" stroke-width="1.48" stroke-miterlimit="10" stroke-linecap="round"/>
<path d="M85.6676 101.76V92.7129" stroke="#FFE65A" stroke-width="1.48" stroke-miterlimit="10" stroke-linecap="round"/>
<path d="M150.868 101.705V92.6721" stroke="#FFE65A" stroke-width="1.48" stroke-miterlimit="10" stroke-linecap="round"/>
<path d="M145.435 101.705V92.6721" stroke="#FFE65A" stroke-width="1.48" stroke-miterlimit="10" stroke-linecap="round"/>
<path d="M140.001 101.705V92.6721" stroke="#FFE65A" stroke-width="1.48" stroke-miterlimit="10" stroke-linecap="round"/>
<path d="M134.568 101.705V92.6721" stroke="#FFE65A" stroke-width="1.48" stroke-miterlimit="10" stroke-linecap="round"/>
<path d="M129.134 101.705V92.6721" stroke="#FFE65A" stroke-width="1.48" stroke-miterlimit="10" stroke-linecap="round"/>
<path d="M123.701 101.705V92.6721" stroke="#FFE65A" stroke-width="1.48" stroke-miterlimit="10" stroke-linecap="round"/>
<g style="mix-blend-mode:lighten" opacity="0.38">
<path d="M112.888 89.2344H96.0355C94.6058 89.2344 93.4469 90.3933 93.4469 91.823V102.892C93.4469 104.322 94.6058 105.481 96.0355 105.481H112.888C114.318 105.481 115.477 104.322 115.477 102.892V91.823C115.477 90.3933 114.318 89.2344 112.888 89.2344Z" fill="white"/>
</g>
<path d="M157.663 105.575H89.2539C87.7424 105.575 86.517 106.8 86.517 108.312V119.124C86.517 120.636 87.7424 121.861 89.2539 121.861H157.663C159.175 121.861 160.4 120.636 160.4 119.124V108.312C160.4 106.8 159.175 105.575 157.663 105.575Z" fill="#FFC305"/>
<path d="M157.73 121.875H89.1864C88.5294 121.862 87.8997 121.61 87.4156 121.165C86.9315 120.721 86.6262 120.115 86.5574 119.461C86.6828 119.475 86.8095 119.475 86.9349 119.461H137.318C139.44 119.405 141.453 118.508 142.914 116.969C144.375 115.429 145.165 113.373 145.111 111.251V105.588H158.108C158.763 105.687 159.358 106.023 159.781 106.533C160.203 107.043 160.424 107.69 160.4 108.352V119.03C160.42 119.394 160.366 119.759 160.241 120.101C160.116 120.444 159.923 120.758 159.674 121.024C159.424 121.289 159.123 121.502 158.789 121.648C158.455 121.795 158.095 121.872 157.73 121.875Z" fill="#FFA50A"/>
<path d="M123.337 118.14V109.094" stroke="#FFE65A" stroke-width="1.48" stroke-miterlimit="10" stroke-linecap="round"/>
<path d="M117.904 118.14V109.094" stroke="#FFE65A" stroke-width="1.48" stroke-miterlimit="10" stroke-linecap="round"/>
<path d="M112.47 118.14V109.094" stroke="#FFE65A" stroke-width="1.48" stroke-miterlimit="10" stroke-linecap="round"/>
<path d="M107.037 118.14V109.094" stroke="#FFE65A" stroke-width="1.48" stroke-miterlimit="10" stroke-linecap="round"/>
<path d="M101.604 118.14V109.094" stroke="#FFE65A" stroke-width="1.48" stroke-miterlimit="10" stroke-linecap="round"/>
<path d="M96.1703 118.14V109.094" stroke="#FFE65A" stroke-width="1.48" stroke-miterlimit="10" stroke-linecap="round"/>
<path d="M90.737 118.14V109.094" stroke="#FFE65A" stroke-width="1.48" stroke-miterlimit="10" stroke-linecap="round"/>
<path d="M155.937 118.1V109.053" stroke="#FFE65A" stroke-width="1.48" stroke-miterlimit="10" stroke-linecap="round"/>
<path d="M150.504 118.1V109.053" stroke="#FFE65A" stroke-width="1.48" stroke-miterlimit="10" stroke-linecap="round"/>
<path d="M145.071 118.1V109.053" stroke="#FFE65A" stroke-width="1.48" stroke-miterlimit="10" stroke-linecap="round"/>
<path d="M139.637 118.1V109.053" stroke="#FFE65A" stroke-width="1.48" stroke-miterlimit="10" stroke-linecap="round"/>
<path d="M134.204 118.1V109.053" stroke="#FFE65A" stroke-width="1.48" stroke-miterlimit="10" stroke-linecap="round"/>
<path d="M128.771 118.1V109.053" stroke="#FFE65A" stroke-width="1.48" stroke-miterlimit="10" stroke-linecap="round"/>
<g style="mix-blend-mode:lighten" opacity="0.38">
<path d="M117.944 105.615H101.091C99.6617 105.615 98.5028 106.774 98.5028 108.204V119.273C98.5028 120.702 99.6617 121.861 101.091 121.861H117.944C119.374 121.861 120.533 120.702 120.533 119.273V108.204C120.533 106.774 119.374 105.615 117.944 105.615Z" fill="white"/>
</g>
<path d="M148.67 121.7H80.2612C78.7497 121.7 77.5243 122.925 77.5243 124.437V135.25C77.5243 136.761 78.7497 137.987 80.2612 137.987H148.67C150.182 137.987 151.407 136.761 151.407 135.25V124.437C151.407 122.925 150.182 121.7 148.67 121.7Z" fill="#FFC305"/>
<path d="M148.765 138H80.2208C79.5638 137.987 78.934 137.735 78.4499 137.291C77.9658 136.846 77.6606 136.24 77.5917 135.587C77.7174 135.594 77.8435 135.594 77.9692 135.587H128.353C130.47 135.509 132.472 134.604 133.929 133.067C135.386 131.529 136.182 129.481 136.145 127.362V121.7H149.142C149.791 121.812 150.378 122.152 150.798 122.659C151.218 123.166 151.444 123.806 151.434 124.464V135.142C151.456 135.507 151.404 135.873 151.28 136.217C151.156 136.561 150.963 136.877 150.713 137.144C150.464 137.412 150.162 137.625 149.827 137.772C149.492 137.92 149.131 137.997 148.765 138Z" fill="#FFA50A"/>
<path d="M114.344 134.265V125.219" stroke="#FFE65A" stroke-width="1.48" stroke-miterlimit="10" stroke-linecap="round"/>
<path d="M108.911 134.265V125.219" stroke="#FFE65A" stroke-width="1.48" stroke-miterlimit="10" stroke-linecap="round"/>
<path d="M103.478 134.265V125.219" stroke="#FFE65A" stroke-width="1.48" stroke-miterlimit="10" stroke-linecap="round"/>
<path d="M98.0443 134.265V125.219" stroke="#FFE65A" stroke-width="1.48" stroke-miterlimit="10" stroke-linecap="round"/>
<path d="M92.611 134.265V125.219" stroke="#FFE65A" stroke-width="1.48" stroke-miterlimit="10" stroke-linecap="round"/>
<path d="M87.1776 134.265V125.219" stroke="#FFE65A" stroke-width="1.48" stroke-miterlimit="10" stroke-linecap="round"/>
<path d="M81.7443 134.265V125.219" stroke="#FFE65A" stroke-width="1.48" stroke-miterlimit="10" stroke-linecap="round"/>
<path d="M146.931 134.211V125.165" stroke="#FFE65A" stroke-width="1.48" stroke-miterlimit="10" stroke-linecap="round"/>
<path d="M141.498 134.211V125.165" stroke="#FFE65A" stroke-width="1.48" stroke-miterlimit="10" stroke-linecap="round"/>
<path d="M136.064 134.211V125.165" stroke="#FFE65A" stroke-width="1.48" stroke-miterlimit="10" stroke-linecap="round"/>
<path d="M130.631 134.211V125.165" stroke="#FFE65A" stroke-width="1.48" stroke-miterlimit="10" stroke-linecap="round"/>
<path d="M125.198 134.211V125.165" stroke="#FFE65A" stroke-width="1.48" stroke-miterlimit="10" stroke-linecap="round"/>
<path d="M119.764 134.211V125.165" stroke="#FFE65A" stroke-width="1.48" stroke-miterlimit="10" stroke-linecap="round"/>
<g style="mix-blend-mode:lighten" opacity="0.38">
<path d="M108.951 121.74H92.0986C90.669 121.74 89.51 122.899 89.51 124.329V135.398C89.51 136.827 90.669 137.986 92.0986 137.986H108.951C110.381 137.986 111.54 136.827 111.54 135.398V124.329C111.54 122.899 110.381 121.74 108.951 121.74Z" fill="white"/>
</g>
<path d="M122.582 105.588V105.494C122.434 104.24 122.312 102.973 122.259 101.692C122.077 97.4696 122.596 93.2464 123.796 89.1938H84.0497V138H140.554V137.622C135.594 133.731 131.453 128.898 128.369 123.4C125.285 117.902 123.318 111.849 122.582 105.588Z" fill="#FA870A"/>
<path d="M98.3679 121.7H29.9588C28.4473 121.7 27.2219 122.925 27.2219 124.437V135.25C27.2219 136.761 28.4473 137.987 29.9588 137.987H98.3679C99.8795 137.987 101.105 136.761 101.105 135.25V124.437C101.105 122.925 99.8795 121.7 98.3679 121.7Z" fill="#FFC305"/>
<path d="M98.4488 138H29.8913C29.2367 137.984 28.6102 137.73 28.1289 137.286C27.6476 136.842 27.3444 136.238 27.2758 135.587C27.4015 135.594 27.5276 135.594 27.6533 135.587H78.0231C80.1426 135.513 82.1483 134.609 83.6084 133.071C85.0684 131.533 85.866 129.483 85.8294 127.362V121.7H98.8802C99.5325 121.802 100.125 122.139 100.545 122.649C100.965 123.158 101.183 123.804 101.159 124.464V135.142C101.181 135.51 101.127 135.88 101.001 136.227C100.874 136.574 100.678 136.891 100.424 137.159C100.17 137.427 99.8634 137.64 99.5237 137.784C99.1839 137.929 98.818 138.003 98.4488 138Z" fill="#FFA50A"/>
<path d="M64.042 134.265V125.219" stroke="#FFE65A" stroke-width="1.48" stroke-miterlimit="10" stroke-linecap="round"/>
<path d="M58.6086 134.265V125.219" stroke="#FFE65A" stroke-width="1.48" stroke-miterlimit="10" stroke-linecap="round"/>
<path d="M53.1753 134.265V125.219" stroke="#FFE65A" stroke-width="1.48" stroke-miterlimit="10" stroke-linecap="round"/>
<path d="M47.7419 134.265V125.219" stroke="#FFE65A" stroke-width="1.48" stroke-miterlimit="10" stroke-linecap="round"/>
<path d="M42.3086 134.265V125.219" stroke="#FFE65A" stroke-width="1.48" stroke-miterlimit="10" stroke-linecap="round"/>
<path d="M36.8752 134.265V125.219" stroke="#FFE65A" stroke-width="1.48" stroke-miterlimit="10" stroke-linecap="round"/>
<path d="M31.4418 134.265V125.219" stroke="#FFE65A" stroke-width="1.48" stroke-miterlimit="10" stroke-linecap="round"/>
<path d="M96.6422 134.211V125.165" stroke="#FFE65A" stroke-width="1.48" stroke-miterlimit="10" stroke-linecap="round"/>
<path d="M91.2088 134.211V125.165" stroke="#FFE65A" stroke-width="1.48" stroke-miterlimit="10" stroke-linecap="round"/>
<path d="M85.7755 134.211V125.165" stroke="#FFE65A" stroke-width="1.48" stroke-miterlimit="10" stroke-linecap="round"/>
<path d="M80.3421 134.211V125.165" stroke="#FFE65A" stroke-width="1.48" stroke-miterlimit="10" stroke-linecap="round"/>
<path d="M74.9088 134.211V125.165" stroke="#FFE65A" stroke-width="1.48" stroke-miterlimit="10" stroke-linecap="round"/>
<path d="M69.4754 134.211V125.165" stroke="#FFE65A" stroke-width="1.48" stroke-miterlimit="10" stroke-linecap="round"/>
<g style="mix-blend-mode:lighten" opacity="0.38">
<path d="M58.6626 121.74H41.8097C40.3801 121.74 39.2211 122.899 39.2211 124.329V135.398C39.2211 136.827 40.3801 137.986 41.8097 137.986H58.6626C60.0922 137.986 61.2512 136.827 61.2512 135.398V124.329C61.2512 122.899 60.0922 121.74 58.6626 121.74Z" fill="white"/>
</g>
<path d="M89.146 105.359H20.7369C19.2254 105.359 18 106.584 18 108.096V118.909C18 120.42 19.2254 121.646 20.7369 121.646H89.146C90.6576 121.646 91.8829 120.42 91.8829 118.909V108.096C91.8829 106.584 90.6576 105.359 89.146 105.359Z" fill="#FFC305"/>
<path d="M89.2134 121.659H20.683C20.0259 121.646 19.3962 121.394 18.9121 120.95C18.428 120.505 18.1228 119.899 18.0539 119.246C18.1794 119.259 18.3059 119.259 18.4314 119.246H68.8147C70.9366 119.189 72.9492 118.293 74.4104 116.753C75.8716 115.214 76.6618 113.157 76.6075 111.035V105.373H89.6044C90.2591 105.471 90.8546 105.808 91.2773 106.318C91.7 106.827 91.9204 107.475 91.8964 108.136V118.814C91.9165 119.18 91.8621 119.545 91.7365 119.889C91.6108 120.232 91.4167 120.547 91.1657 120.813C90.9147 121.079 90.6122 121.291 90.2765 121.437C89.9409 121.582 89.5792 121.658 89.2134 121.659Z" fill="#FFA50A"/>
<path d="M54.8201 117.925V108.878" stroke="#FFE65A" stroke-width="1.48" stroke-miterlimit="10" stroke-linecap="round"/>
<path d="M49.3868 117.925V108.878" stroke="#FFE65A" stroke-width="1.48" stroke-miterlimit="10" stroke-linecap="round"/>
<path d="M43.9534 117.925V108.878" stroke="#FFE65A" stroke-width="1.48" stroke-miterlimit="10" stroke-linecap="round"/>
<path d="M38.52 117.925V108.878" stroke="#FFE65A" stroke-width="1.48" stroke-miterlimit="10" stroke-linecap="round"/>
<path d="M33.0867 117.925V108.878" stroke="#FFE65A" stroke-width="1.48" stroke-miterlimit="10" stroke-linecap="round"/>
<path d="M27.6533 117.925V108.878" stroke="#FFE65A" stroke-width="1.48" stroke-miterlimit="10" stroke-linecap="round"/>
<path d="M22.22 117.925V108.878" stroke="#FFE65A" stroke-width="1.48" stroke-miterlimit="10" stroke-linecap="round"/>
<path d="M87.4203 117.871V108.838" stroke="#FFE65A" stroke-width="1.48" stroke-miterlimit="10" stroke-linecap="round"/>
<path d="M81.987 117.871V108.838" stroke="#FFE65A" stroke-width="1.48" stroke-miterlimit="10" stroke-linecap="round"/>
<path d="M76.5535 117.871V108.838" stroke="#FFE65A" stroke-width="1.48" stroke-miterlimit="10" stroke-linecap="round"/>
<path d="M71.1202 117.871V108.838" stroke="#FFE65A" stroke-width="1.48" stroke-miterlimit="10" stroke-linecap="round"/>
<path d="M65.6869 117.871V108.838" stroke="#FFE65A" stroke-width="1.48" stroke-miterlimit="10" stroke-linecap="round"/>
<path d="M60.2535 117.871V108.838" stroke="#FFE65A" stroke-width="1.48" stroke-miterlimit="10" stroke-linecap="round"/>
<g style="mix-blend-mode:lighten" opacity="0.38">
<path d="M49.4272 105.4H32.5744C31.1447 105.4 29.9858 106.559 29.9858 107.988V119.057C29.9858 120.487 31.1447 121.646 32.5744 121.646H49.4272C50.8569 121.646 52.0158 120.487 52.0158 119.057V107.988C52.0158 106.559 50.8569 105.4 49.4272 105.4Z" fill="white"/>
</g>
<path d="M115.652 89.2073H47.243C45.7315 89.2073 44.5061 90.4326 44.5061 91.9442V102.757C44.5061 104.269 45.7315 105.494 47.243 105.494H115.652C117.164 105.494 118.389 104.269 118.389 102.757V91.9442C118.389 90.4326 117.164 89.2073 115.652 89.2073Z" fill="#FFC305"/>
<path d="M115.733 105.508H47.1757C46.5231 105.492 45.8983 105.24 45.4173 104.799C44.9363 104.357 44.6317 103.757 44.5601 103.108C44.6858 103.115 44.8119 103.115 44.9376 103.108H95.3075C97.427 103.034 99.4327 102.13 100.893 100.592C102.353 99.0541 103.15 97.004 103.114 94.8835V89.2209H116.111C116.751 89.3214 117.334 89.6493 117.752 90.1445C118.171 90.6397 118.397 91.2691 118.389 91.9174V102.595C118.419 102.964 118.372 103.334 118.253 103.684C118.133 104.034 117.943 104.355 117.694 104.628C117.445 104.901 117.142 105.12 116.805 105.272C116.467 105.423 116.103 105.503 115.733 105.508Z" fill="#FFA50A"/>
<path d="M81.3262 101.773V92.7397" stroke="#FFE65A" stroke-width="1.48" stroke-miterlimit="10" stroke-linecap="round"/>
<path d="M75.8929 101.773V92.7397" stroke="#FFE65A" stroke-width="1.48" stroke-miterlimit="10" stroke-linecap="round"/>
<path d="M70.4595 101.773V92.7397" stroke="#FFE65A" stroke-width="1.48" stroke-miterlimit="10" stroke-linecap="round"/>
<path d="M65.0262 101.773V92.7397" stroke="#FFE65A" stroke-width="1.48" stroke-miterlimit="10" stroke-linecap="round"/>
<path d="M59.5928 101.773V92.7397" stroke="#FFE65A" stroke-width="1.48" stroke-miterlimit="10" stroke-linecap="round"/>
<path d="M54.1595 101.773V92.7397" stroke="#FFE65A" stroke-width="1.48" stroke-miterlimit="10" stroke-linecap="round"/>
<path d="M48.7261 101.773V92.7397" stroke="#FFE65A" stroke-width="1.48" stroke-miterlimit="10" stroke-linecap="round"/>
<path d="M113.926 101.732V92.6858" stroke="#FFE65A" stroke-width="1.48" stroke-miterlimit="10" stroke-linecap="round"/>
<path d="M108.493 101.732V92.6858" stroke="#FFE65A" stroke-width="1.48" stroke-miterlimit="10" stroke-linecap="round"/>
<path d="M103.06 101.732V92.6858" stroke="#FFE65A" stroke-width="1.48" stroke-miterlimit="10" stroke-linecap="round"/>
<path d="M97.6264 101.732V92.6858" stroke="#FFE65A" stroke-width="1.48" stroke-miterlimit="10" stroke-linecap="round"/>
<path d="M92.1931 101.732V92.6858" stroke="#FFE65A" stroke-width="1.48" stroke-miterlimit="10" stroke-linecap="round"/>
<path d="M86.7597 101.732V92.6858" stroke="#FFE65A" stroke-width="1.48" stroke-miterlimit="10" stroke-linecap="round"/>
<g style="mix-blend-mode:lighten" opacity="0.38">
<path d="M75.9469 89.248H59.094C57.6644 89.248 56.5054 90.407 56.5054 91.8366V102.906C56.5054 104.335 57.6644 105.494 59.094 105.494H75.9469C77.3765 105.494 78.5355 104.335 78.5355 102.906V91.8366C78.5355 90.407 77.3765 89.248 75.9469 89.248Z" fill="white"/>
</g>
<path d="M118.823 51.2952C110.734 44.4327 91.0902 40.5094 74.9789 42.5317L75.1138 42.6531L74.9789 42.5317C58.8676 44.5541 52.3692 51.7536 60.472 58.6026C68.5749 65.4516 88.1915 69.3885 104.303 67.3526C120.414 65.3168 126.913 58.1442 118.823 51.2952ZM101.728 65.1416C88.5151 66.7999 72.3498 63.5776 65.7166 57.9555C59.0698 52.3199 64.3684 46.4012 77.6349 44.7429C90.8476 43.098 107.013 46.3203 113.66 51.9424C120.306 57.5645 114.9 63.4832 101.728 65.1416Z" fill="#FFE65A"/>
<path d="M74.9789 42.5317L77.5945 44.7429C64.3818 46.4012 59.0294 52.3199 65.6762 57.9555L60.472 58.6026C52.3692 51.7536 58.8676 44.5541 74.9789 42.5317Z" fill="#F4EF89"/>
<path d="M77.5945 44.7429C90.8071 43.098 106.972 46.3203 113.619 51.9424C120.266 57.5645 114.967 63.4833 101.687 65.1416C88.4072 66.7999 72.3095 63.5776 65.6762 57.9555C59.0429 52.3334 64.3818 46.4012 77.5945 44.7429Z" fill="#F9BF05"/>
<path d="M76.8934 46.6304C90.1061 44.9721 106.271 48.1944 112.918 53.8165C115.062 55.6366 115.938 57.4837 115.722 59.2094C117.152 56.9848 116.558 54.4366 113.619 51.9424C106.972 46.3203 90.8071 43.098 77.5945 44.7429C68.6422 45.8754 63.3032 48.9493 62.8583 52.5626C64.6245 49.7852 69.5456 47.5472 76.8934 46.6304Z" fill="#D4A205"/>
<path d="M57.0071 52.1177L55.7801 63.3619C55.5509 65.4382 56.643 67.6627 59.2316 69.8469L60.472 58.6027C57.8834 56.4185 56.7779 54.1939 57.0071 52.1177Z" fill="#FFC72E"/>
<path d="M122.275 57.7803C121.398 65.7213 104.748 67.8651 95.6203 67.8785C84.6592 67.8785 68.3322 65.263 60.4721 58.6027L59.2316 69.8469C71.3657 80.1339 106.528 82.4798 118.014 73.6489C118.79 73.1206 119.453 72.4432 119.965 71.6562C120.476 70.8693 120.826 69.9884 120.994 69.065L122.275 57.7803Z" fill="#FFA50A"/>
<g style="mix-blend-mode:multiply" opacity="0.25">
<g style="mix-blend-mode:multiply" opacity="0.25">
<path d="M80.5067 62.1351C79.1585 62.1351 78.5652 62.2025 77.2709 62.2295C77.2709 61.8789 77.4866 60.7734 77.635 59.7352C77.7833 58.6971 77.8506 58.0769 77.945 57.3084C77.945 57.0253 77.945 56.6748 78.0933 55.9602C78.2416 55.2456 78.2956 54.3288 78.4978 52.8323L82.0976 52.5222C81.8684 53.8704 81.6797 55.0164 81.5448 55.8119C81.41 56.6073 81.3291 56.9983 81.2617 57.3623C81.1403 58.0499 81.019 58.7915 80.8707 59.7622C80.7224 60.7329 80.5606 61.7845 80.5067 62.1351ZM90.2274 60.3554C89.1409 60.883 88.0833 61.4681 87.0591 62.1081C86.38 60.4135 85.0977 59.0303 83.4593 58.2252C82.8011 57.8893 82.1098 57.6227 81.3965 57.4298C82.3088 57.0636 83.1845 56.6122 84.012 56.0815C85.7177 54.9901 87.1518 53.5237 88.205 51.7942C88.9649 52.3038 89.7627 52.7545 90.5914 53.1424C89.6053 54.271 88.45 55.2397 87.1669 56.0141C86.529 56.4228 85.8514 56.7661 85.1446 57.0388C85.6949 57.2103 86.2351 57.4129 86.7625 57.6455C88.1413 58.2253 89.3382 59.1661 90.2274 60.3689V60.3554Z" fill="#A8821A"/>
</g>
<g style="mix-blend-mode:multiply" opacity="0.25">
<path d="M104.492 59.9375C103.275 60.3556 102.09 60.8603 100.946 61.4475C100.571 60.6297 100.065 59.8784 99.4493 59.223C98.3619 58.1486 97.0559 57.321 95.6203 56.7962V56.7287C95.8629 56.7287 96.1866 56.6344 96.591 56.5535C96.9387 56.4885 97.2811 56.3984 97.6157 56.2838C97.8395 56.2126 98.0493 56.1031 98.2358 55.9603C98.3098 55.9011 98.3682 55.8246 98.4058 55.7377C98.4434 55.6507 98.4591 55.5558 98.4516 55.4614C98.44 55.3377 98.4013 55.218 98.3384 55.1109C98.2755 55.0037 98.1899 54.9117 98.0875 54.8412C97.8132 54.6033 97.4844 54.4366 97.1303 54.3559C96.7874 54.2606 96.4344 54.2063 96.0787 54.1941H95.0675H94.6091H94.4069C94.3352 54.7263 94.2902 55.2617 94.272 55.7984C94.272 56.176 94.272 56.4321 94.272 56.6613C94.3081 57.2495 94.3081 57.8393 94.272 58.4275C94.2046 59.3713 94.0563 60.5307 93.9485 61.2857L90.5375 61.5015C90.6319 60.8004 90.7801 59.8297 90.9015 58.9938C91.0228 58.1579 91.0903 57.4164 91.1307 56.6748C91.1307 56.4861 91.1307 56.2434 91.1307 55.7445C91.1307 55.2457 91.2251 54.612 91.6161 51.9021L92.789 51.8212C93.3957 51.8212 93.9755 51.7403 94.5013 51.7268C95.35 51.6783 96.2008 51.6783 97.0495 51.7268C97.7778 51.8019 98.4936 51.9695 99.1796 52.2257C99.9946 52.5076 100.736 52.9683 101.35 53.5739C101.759 53.9455 102.018 54.4538 102.078 55.003C102.078 55.4884 101.795 55.7715 101.229 56.0142C100.681 56.2508 100.112 56.4358 99.5302 56.5669C100.507 56.9063 101.45 57.3351 102.348 57.8478C103.23 58.3487 103.968 59.0684 104.492 59.9375Z" fill="#A8821A"/>
</g>
</g>
<path d="M79.1584 60.7868C77.8102 60.7868 77.217 60.8542 75.9227 60.8812C75.9227 60.5307 76.1384 59.4251 76.2867 58.387C76.435 57.3488 76.5024 56.7287 76.5968 55.9602C76.5968 55.677 76.5968 55.3265 76.7451 54.6119C76.8934 53.8974 76.9474 52.9806 77.1496 51.484L80.7493 51.1739C80.5202 52.5222 80.3314 53.6682 80.1966 54.4636C80.0618 55.2591 79.9809 55.6501 79.9135 56.0141C79.7921 56.7017 79.6708 57.4432 79.5225 58.4139C79.3742 59.3846 79.2124 60.4363 79.1584 60.7868ZM88.8791 59.0071C87.7926 59.5347 86.7351 60.1198 85.7108 60.7599C85.0318 59.0653 83.7495 57.6821 82.1111 56.877C81.4529 56.5411 80.7615 56.2745 80.0482 56.0815C80.9606 55.7154 81.8363 55.264 82.6638 54.7333C84.3695 53.6418 85.8035 52.1755 86.8568 50.4459C87.6167 50.9555 88.4145 51.4062 89.2432 51.7942C88.257 52.9227 87.1018 53.8914 85.8187 54.6658C85.1807 55.0745 84.5032 55.4178 83.7964 55.6905C84.3467 55.8621 84.8868 56.0646 85.4142 56.2972C86.7931 56.877 87.99 57.8178 88.8791 59.0206V59.0071Z" fill="#FFE65A"/>
<path d="M103.143 58.5893C101.927 59.0074 100.742 59.512 99.5976 60.0993C99.2227 59.2815 98.7173 58.5301 98.1011 57.8747C97.0137 56.8004 95.7077 55.9727 94.2721 55.4479V55.3805C94.5147 55.3805 94.8384 55.2861 95.2428 55.2052C95.5905 55.1403 95.9329 55.0501 96.2675 54.9356C96.4913 54.8643 96.7011 54.7548 96.8876 54.612C96.9616 54.5528 97.02 54.4764 97.0576 54.3894C97.0952 54.3024 97.1109 54.2076 97.1034 54.1131C97.0918 53.9894 97.0531 53.8698 96.9902 53.7626C96.9274 53.6555 96.8417 53.5634 96.7393 53.493C96.465 53.255 96.1363 53.0883 95.7822 53.0076C95.4392 52.9123 95.0862 52.858 94.7305 52.8458H93.7193H93.2609H93.0587C92.987 53.378 92.942 53.9135 92.9238 54.4502C92.9238 54.8277 92.9238 55.0839 92.9238 55.3131C92.9599 55.9012 92.9599 56.4911 92.9238 57.0792C92.8564 58.023 92.7081 59.1825 92.6003 59.9375L89.1893 60.1532C89.2837 59.4521 89.4319 58.4814 89.5533 57.6455C89.6746 56.8096 89.7421 56.0681 89.7825 55.3266C89.7825 55.1378 89.7825 54.8951 89.7825 54.3963C89.7825 53.8974 89.8769 53.2638 90.2679 50.5538L91.4408 50.4729C92.0475 50.4729 92.6273 50.392 93.1531 50.3785C94.0018 50.33 94.8526 50.33 95.7013 50.3785C96.4296 50.4536 97.1454 50.6213 97.8314 50.8774C98.6464 51.1593 99.3881 51.62 100.002 52.2256C100.411 52.5972 100.67 53.1055 100.73 53.6547C100.73 54.1401 100.447 54.4232 99.8807 54.6659C99.3329 54.9025 98.7641 55.0876 98.182 55.2187C99.1586 55.5581 100.102 55.9868 101 56.4995C101.882 57.0004 102.62 57.7201 103.143 58.5893Z" fill="#FFE65A"/>
<path d="M150.935 86.3088H82.5262C81.0147 86.3088 79.7893 87.5342 79.7893 89.0457V99.8585C79.7893 101.37 81.0147 102.595 82.5262 102.595H150.935C152.447 102.595 153.672 101.37 153.672 99.8585V89.0457C153.672 87.5342 152.447 86.3088 150.935 86.3088Z" fill="#FFC305"/>
<path d="M151.003 102.595H82.4588C81.8018 102.583 81.1721 102.33 80.688 101.886C80.2038 101.442 79.8986 100.836 79.8298 100.182C79.9555 100.189 80.0816 100.189 80.2073 100.182H130.591C132.708 100.105 134.71 99.2 136.167 97.6621C137.624 96.1243 138.42 94.0762 138.383 91.9579V86.2954H151.326C151.976 86.4106 152.563 86.7534 152.983 87.2623C153.403 87.7712 153.629 88.413 153.618 89.0728V99.7373C153.64 100.098 153.589 100.459 153.469 100.8C153.348 101.141 153.16 101.454 152.916 101.72C152.672 101.987 152.377 102.202 152.048 102.352C151.72 102.503 151.364 102.585 151.003 102.595Z" fill="#FFA50A"/>
<path d="M116.609 98.874V89.8274" stroke="#FFE65A" stroke-width="1.48" stroke-miterlimit="10" stroke-linecap="round"/>
<path d="M111.176 98.874V89.8274" stroke="#FFE65A" stroke-width="1.48" stroke-miterlimit="10" stroke-linecap="round"/>
<path d="M105.743 98.874V89.8274" stroke="#FFE65A" stroke-width="1.48" stroke-miterlimit="10" stroke-linecap="round"/>
<path d="M100.309 98.874V89.8274" stroke="#FFE65A" stroke-width="1.48" stroke-miterlimit="10" stroke-linecap="round"/>
<path d="M94.876 98.874V89.8274" stroke="#FFE65A" stroke-width="1.48" stroke-miterlimit="10" stroke-linecap="round"/>
<path d="M89.4426 98.874V89.8274" stroke="#FFE65A" stroke-width="1.48" stroke-miterlimit="10" stroke-linecap="round"/>
<path d="M84.0093 98.874V89.8274" stroke="#FFE65A" stroke-width="1.48" stroke-miterlimit="10" stroke-linecap="round"/>
<path d="M143.776 98.8203V89.7737" stroke="#FFE65A" stroke-width="1.48" stroke-miterlimit="10" stroke-linecap="round"/>
<path d="M138.343 98.8203V89.7737" stroke="#FFE65A" stroke-width="1.48" stroke-miterlimit="10" stroke-linecap="round"/>
<path d="M132.91 98.8203V89.7737" stroke="#FFE65A" stroke-width="1.48" stroke-miterlimit="10" stroke-linecap="round"/>
<path d="M127.476 98.8203V89.7737" stroke="#FFE65A" stroke-width="1.48" stroke-miterlimit="10" stroke-linecap="round"/>
<path d="M122.043 98.8203V89.7737" stroke="#FFE65A" stroke-width="1.48" stroke-miterlimit="10" stroke-linecap="round"/>
<g style="mix-blend-mode:lighten" opacity="0.38">
<path d="M111.217 86.3491H94.3637C92.9341 86.3491 91.7751 87.5081 91.7751 88.9377V100.007C91.7751 101.436 92.9341 102.595 94.3637 102.595H111.217C112.646 102.595 113.805 101.436 113.805 100.007V88.9377C113.805 87.5081 112.646 86.3491 111.217 86.3491Z" fill="white"/>
</g>
<path d="M158.31 102.69H89.901C88.3895 102.69 87.1641 103.915 87.1641 105.427V116.239C87.1641 117.751 88.3895 118.976 89.901 118.976H158.31C159.822 118.976 161.047 117.751 161.047 116.239V105.427C161.047 103.915 159.822 102.69 158.31 102.69Z" fill="#FFC305"/>
<path d="M158.391 118.976H89.8336C89.179 118.96 88.5525 118.706 88.0712 118.262C87.5899 117.818 87.2866 117.214 87.2181 116.563C87.3435 116.577 87.4701 116.577 87.5955 116.563H137.965C140.083 116.489 142.086 115.588 143.546 114.052C145.006 112.517 145.805 110.47 145.772 108.352V102.69H158.769C159.421 102.792 160.013 103.129 160.433 103.639C160.853 104.148 161.071 104.794 161.047 105.454V116.131C161.067 116.494 161.013 116.858 160.889 117.2C160.766 117.541 160.574 117.855 160.326 118.12C160.078 118.386 159.778 118.599 159.446 118.746C159.113 118.893 158.755 118.971 158.391 118.976Z" fill="#FFA50A"/>
<path d="M123.984 115.255V106.209" stroke="#FFE65A" stroke-width="1.48" stroke-miterlimit="10" stroke-linecap="round"/>
<path d="M118.551 115.255V106.209" stroke="#FFE65A" stroke-width="1.48" stroke-miterlimit="10" stroke-linecap="round"/>
<path d="M113.118 115.255V106.209" stroke="#FFE65A" stroke-width="1.48" stroke-miterlimit="10" stroke-linecap="round"/>
<path d="M107.684 115.255V106.209" stroke="#FFE65A" stroke-width="1.48" stroke-miterlimit="10" stroke-linecap="round"/>
<path d="M102.251 115.255V106.209" stroke="#FFE65A" stroke-width="1.48" stroke-miterlimit="10" stroke-linecap="round"/>
<path d="M96.8175 115.255V106.209" stroke="#FFE65A" stroke-width="1.48" stroke-miterlimit="10" stroke-linecap="round"/>
<path d="M91.3841 115.255V106.209" stroke="#FFE65A" stroke-width="1.48" stroke-miterlimit="10" stroke-linecap="round"/>
<path d="M145.718 115.201V106.155" stroke="#FFE65A" stroke-width="1.48" stroke-miterlimit="10" stroke-linecap="round"/>
<path d="M140.284 115.201V106.155" stroke="#FFE65A" stroke-width="1.48" stroke-miterlimit="10" stroke-linecap="round"/>
<path d="M134.851 115.201V106.155" stroke="#FFE65A" stroke-width="1.48" stroke-miterlimit="10" stroke-linecap="round"/>
<path d="M129.418 115.201V106.155" stroke="#FFE65A" stroke-width="1.48" stroke-miterlimit="10" stroke-linecap="round"/>
<g style="mix-blend-mode:lighten" opacity="0.38">
<path d="M118.605 102.73H101.752C100.322 102.73 99.1634 103.889 99.1634 105.319V116.388C99.1634 117.817 100.322 118.976 101.752 118.976H118.605C120.034 118.976 121.193 117.817 121.193 116.388V105.319C121.193 103.889 120.034 102.73 118.605 102.73Z" fill="white"/>
</g>
<path d="M147.12 119.071H78.7108C77.1992 119.071 75.9738 120.296 75.9738 121.807V132.62C75.9738 134.132 77.1992 135.357 78.7108 135.357H147.12C148.631 135.357 149.857 134.132 149.857 132.62V121.807C149.857 120.296 148.631 119.071 147.12 119.071Z" fill="#FFC305"/>
<path d="M147.187 135.357H78.6434C77.9747 135.361 77.3284 135.116 76.8301 134.67C76.3318 134.224 76.0171 133.609 75.9469 132.944C76.0724 132.957 76.1989 132.957 76.3244 132.944H126.708C128.829 132.887 130.842 131.991 132.303 130.451C133.765 128.912 134.555 126.855 134.5 124.733V119.071H147.497C148.14 119.168 148.726 119.495 149.148 119.99C149.569 120.486 149.797 121.117 149.789 121.767V132.445C149.819 132.809 149.774 133.175 149.657 133.521C149.541 133.867 149.356 134.186 149.112 134.459C148.869 134.731 148.573 134.951 148.242 135.106C147.911 135.26 147.552 135.346 147.187 135.357Z" fill="#FFA50A"/>
<path d="M112.794 131.636V122.59" stroke="#FFE65A" stroke-width="1.48" stroke-miterlimit="10" stroke-linecap="round"/>
<path d="M107.361 131.636V122.59" stroke="#FFE65A" stroke-width="1.48" stroke-miterlimit="10" stroke-linecap="round"/>
<path d="M101.927 131.636V122.59" stroke="#FFE65A" stroke-width="1.48" stroke-miterlimit="10" stroke-linecap="round"/>
<path d="M96.4939 131.636V122.59" stroke="#FFE65A" stroke-width="1.48" stroke-miterlimit="10" stroke-linecap="round"/>
<path d="M91.0605 131.636V122.59" stroke="#FFE65A" stroke-width="1.48" stroke-miterlimit="10" stroke-linecap="round"/>
<path d="M85.6272 131.636V122.59" stroke="#FFE65A" stroke-width="1.48" stroke-miterlimit="10" stroke-linecap="round"/>
<path d="M80.1938 131.636V122.59" stroke="#FFE65A" stroke-width="1.48" stroke-miterlimit="10" stroke-linecap="round"/>
<path d="M145.394 131.582V122.549" stroke="#FFE65A" stroke-width="1.48" stroke-miterlimit="10" stroke-linecap="round"/>
<path d="M139.961 131.582V122.549" stroke="#FFE65A" stroke-width="1.48" stroke-miterlimit="10" stroke-linecap="round"/>
<path d="M134.527 131.582V122.549" stroke="#FFE65A" stroke-width="1.48" stroke-miterlimit="10" stroke-linecap="round"/>
<path d="M129.094 131.582V122.549" stroke="#FFE65A" stroke-width="1.48" stroke-miterlimit="10" stroke-linecap="round"/>
<path d="M123.661 131.582V122.549" stroke="#FFE65A" stroke-width="1.48" stroke-miterlimit="10" stroke-linecap="round"/>
<path d="M118.227 131.582V122.549" stroke="#FFE65A" stroke-width="1.48" stroke-miterlimit="10" stroke-linecap="round"/>
<g style="mix-blend-mode:lighten" opacity="0.38">
<path d="M107.401 119.111H90.5482C89.1185 119.111 87.9596 120.27 87.9596 121.7V132.769C87.9596 134.198 89.1185 135.357 90.5482 135.357H107.401C108.831 135.357 109.99 134.198 109.99 132.769V121.7C109.99 120.27 108.831 119.111 107.401 119.111Z" fill="white"/>
</g>
<defs>
<radialGradient id="paint0_radial_129_934" cx="0" cy="0" r="1" gradientUnits="userSpaceOnUse" gradientTransform="translate(90 90) rotate(92.5448) scale(90.0888)">
<stop offset="0.375" stop-color="#FFE65A" stop-opacity="0.5"/>
<stop offset="1" stop-color="#FFE65A" stop-opacity="0"/>
</radialGradient>
<linearGradient id="paint1_linear_129_934" x1="-6" y1="265.2" x2="170.595" y2="248.559" gradientUnits="userSpaceOnUse">
<stop stop-color="#F3BB4D"/>
<stop offset="1" stop-color="#F4EF89"/>
</linearGradient>
</defs>
</svg>
