<svg width="123" height="48" viewBox="0 0 123 48" fill="none" xmlns="http://www.w3.org/2000/svg">
<path d="M34.1094 44.2188C32.1302 44.2188 30.7136 43.7812 29.8594 42.9062C29.6615 42.7083 29.4844 42.4844 29.3281 42.2344C28.2761 40.6302 28.2031 38.0729 29.1094 34.5625L32.3281 22.0625C32.4531 21.6146 32.7656 21.3854 33.2656 21.375H36.0469C36.1823 21.375 36.3021 21.4062 36.4063 21.4688C36.6771 21.6458 36.7656 21.9375 36.6719 22.3438L33.5156 34.9062C33.0156 36.8958 32.8073 38.3438 32.8906 39.25C32.9844 40.2917 33.4844 40.8125 34.3906 40.8125C34.8906 40.8125 35.3333 40.6406 35.7188 40.2969C36.5104 39.5677 37.2761 37.7396 38.0156 34.8125L41.2656 22.0625C41.3906 21.6146 41.7031 21.3854 42.2031 21.375H44.7344C44.8698 21.375 44.9896 21.4062 45.0938 21.4688C45.3646 21.6458 45.4531 21.9375 45.3594 22.3438L42.2969 34.4688C41.6198 37.1458 40.8698 39.1875 40.0469 40.5938C38.6198 43.0104 36.6406 44.2188 34.1094 44.2188Z" fill="#EFF2FC"/>
<path d="M48.15 22.0625C48.275 21.6146 48.5875 21.3854 49.0875 21.375H51.6656C51.874 21.375 52.0667 21.4479 52.2438 21.5938C52.2854 21.625 52.3271 21.6667 52.3688 21.7188C52.4208 21.7917 52.4938 22 52.5875 22.3438L55.3063 34.3125L58.4313 22.0625C58.5563 21.6146 58.8688 21.3854 59.3688 21.375H62.025C62.15 21.375 62.2698 21.4062 62.3844 21.4688C62.6656 21.6458 62.7542 21.9375 62.65 22.3438L57.3063 43.3125C57.1813 43.7604 56.8688 43.9896 56.3688 44H53.7125C53.4938 44 53.3375 43.9375 53.2438 43.8125C53.1604 43.6875 53.0979 43.5417 53.0563 43.375L50.2125 30.7969L47.025 43.3125C46.9 43.7604 46.5875 43.9896 46.0875 44H43.4313C43.3063 44 43.1865 43.9688 43.0719 43.9062C42.7906 43.7292 42.7021 43.4375 42.8063 43.0312L48.15 22.0625Z" fill="#EFF2FC"/>
<path d="M66.6438 22.0625C66.7688 21.6146 67.0813 21.3854 67.5813 21.375H70.1594C70.3677 21.375 70.5604 21.4479 70.7375 21.5938C70.7792 21.625 70.8208 21.6667 70.8625 21.7188C70.9146 21.7917 70.9875 22 71.0813 22.3438L73.8 34.3125L76.925 22.0625C77.05 21.6146 77.3625 21.3854 77.8625 21.375H80.5188C80.6438 21.375 80.7636 21.4062 80.8781 21.4688C81.1594 21.6458 81.2479 21.9375 81.1438 22.3438L75.8 43.3125C75.675 43.7604 75.3625 43.9896 74.8625 44H72.2063C71.9875 44 71.8313 43.9375 71.7375 43.8125C71.6542 43.6875 71.5917 43.5417 71.55 43.375L68.7063 30.7969L65.5188 43.3125C65.3938 43.7604 65.0813 43.9896 64.5813 44H61.925C61.8 44 61.6802 43.9688 61.5656 43.9062C61.2844 43.7292 61.1958 43.4375 61.3 43.0312L66.6438 22.0625Z" fill="#EFF2FC"/>
<path d="M85.1219 22.0625C85.2469 21.6146 85.5594 21.3854 86.0594 21.375H88.7156C88.8511 21.375 88.9708 21.4062 89.075 21.4688C89.3458 21.6458 89.4344 21.9375 89.3406 22.3438L83.9969 43.3125C83.8719 43.7604 83.5594 43.9896 83.0594 44H80.4031C80.2677 44 80.1479 43.9688 80.0438 43.9062C79.7729 43.7292 79.6844 43.4375 79.7781 43.0312L85.1219 22.0625Z" fill="#EFF2FC"/>
<path d="M93.6625 22.0625C93.7875 21.6146 94.1 21.3854 94.6 21.375H97.1781C97.3865 21.375 97.5792 21.4479 97.7563 21.5938C97.7979 21.625 97.8396 21.6667 97.8813 21.7188C97.9333 21.7917 98.0063 22 98.1 22.3438L100.819 34.3125L103.944 22.0625C104.069 21.6146 104.381 21.3854 104.881 21.375H107.538C107.663 21.375 107.782 21.4062 107.897 21.4688C108.178 21.6458 108.267 21.9375 108.163 22.3438L102.819 43.3125C102.694 43.7604 102.381 43.9896 101.881 44H99.225C99.0063 44 98.85 43.9375 98.7563 43.8125C98.6729 43.6875 98.6104 43.5417 98.5688 43.375L95.725 30.7969L92.5375 43.3125C92.4125 43.7604 92.1 43.9896 91.6 44H88.9438C88.8188 44 88.699 43.9688 88.5844 43.9062C88.3031 43.7292 88.2146 43.4375 88.3188 43.0312L93.6625 22.0625Z" fill="#EFF2FC"/>
<path d="M113.875 33.0938C113.875 33.0938 116.115 33.0938 120.594 33.0938C120.917 33.1042 121.01 33.3333 120.875 33.7812L120.375 35.5312C120.25 35.9479 120.115 36.2135 119.969 36.3281C119.938 36.4427 119.896 36.5729 119.844 36.7188C119.375 38.1875 118.797 39.4635 118.109 40.5469C116.578 42.974 114.708 44.1875 112.5 44.1875C110.979 44.1771 109.781 43.7865 108.906 43.0156C107.677 41.9115 107.063 39.9375 107.063 37.0938C107.063 35.5 107.354 33.5521 107.938 31.25C108.635 28.4583 109.651 26.1615 110.984 24.3594C112.589 22.2031 114.385 21.125 116.375 21.125C117.531 21.1562 118.563 21.4271 119.469 21.9375C119.74 22.1042 119.99 22.3073 120.219 22.5469C121.135 23.5052 121.594 25.1562 121.594 27.5C121.594 28 121.385 28.3333 120.969 28.5L117.438 29.5625C117.375 29.5833 117.313 29.5938 117.25 29.5938C117 29.6042 116.885 29.4271 116.906 29.0625C116.948 28.0729 116.969 27.5 116.969 27.3438C116.958 26.3542 116.75 25.8021 116.344 25.6875C116.25 25.6562 116.156 25.6406 116.063 25.6406C114.781 25.599 113.552 27.8021 112.375 32.25C111.865 34.2083 111.604 35.9323 111.594 37.4219C111.594 38.9948 111.885 39.8542 112.469 40C112.802 40.0729 113.161 39.9844 113.547 39.7344C114.37 39.1719 115.031 38.0625 115.531 36.4062H113.219C112.854 36.3854 112.729 36.0938 112.844 35.5312L113.406 33.4688C113.417 33.4271 113.432 33.3802 113.453 33.3281C113.526 33.1719 113.667 33.0938 113.875 33.0938Z" fill="#EFF2FC"/>
<path d="M40.0625 6.53125C40.125 6.30729 40.2812 6.19271 40.5312 6.1875H41.8594C41.9219 6.1875 41.9818 6.20312 42.0391 6.23438C42.1797 6.32292 42.224 6.46875 42.1719 6.67188L41.1328 10.7422L44.2812 6.39062C44.3229 6.33333 44.3698 6.28646 44.4219 6.25C44.4844 6.20833 44.5937 6.1875 44.75 6.1875H46.2812C46.4062 6.1875 46.5 6.22396 46.5625 6.29688C46.6562 6.42188 46.625 6.57812 46.4687 6.76562L42.6875 11.75L43.9844 17.0312C44.0729 17.3333 43.9531 17.4896 43.625 17.5H42.3906C42.0885 17.5 41.8958 17.3698 41.8125 17.1094L40.7109 12.4141L39.5 17.1562C39.4375 17.3802 39.2812 17.4948 39.0312 17.5H37.7031C37.6406 17.5 37.5807 17.4844 37.5234 17.4531C37.3828 17.3646 37.3385 17.2188 37.3906 17.0156L40.0625 6.53125Z" fill="#EB6233"/>
<path d="M47.4937 13.4219C47.7958 13.2292 48.0693 12.9349 48.3141 12.5391C48.6526 11.9922 48.8219 11.474 48.8219 10.9844C48.8219 10.8906 48.8167 10.8125 48.8062 10.75C48.7854 10.625 48.7229 10.5625 48.6187 10.5625C48.5927 10.5625 48.5641 10.5729 48.5328 10.5938C48.3922 10.6979 48.2542 10.9323 48.1187 11.2969C47.9156 11.8177 47.7073 12.526 47.4937 13.4219ZM47.1266 15.125C47.0953 15.2865 47.0797 15.4089 47.0797 15.4922C47.0797 15.6016 47.15 15.6875 47.2906 15.75C47.2906 15.75 47.3375 15.7344 47.4312 15.7031C47.6031 15.6302 47.8714 15.3854 48.2359 14.9688C48.2828 14.9219 48.3297 14.8776 48.3766 14.8359C48.4547 14.7578 48.551 14.7552 48.6656 14.8281L49.4312 15.2969C49.5042 15.3385 49.551 15.3932 49.5719 15.4609C49.5979 15.5391 49.5979 15.599 49.5719 15.6406C49.5354 15.7031 49.4911 15.7708 49.4391 15.8438C49.1734 16.2083 48.7802 16.599 48.2594 17.0156C47.6656 17.4844 47.2516 17.7188 47.0172 17.7188H46.9312C45.9208 17.4583 45.3531 17.0312 45.2281 16.4375C45.1969 16.2917 45.1812 16.0495 45.1812 15.7109C45.1812 14.8203 45.387 13.7422 45.7984 12.4766C46.2255 11.1328 46.6552 10.2604 47.0875 9.85938C47.2333 9.71875 47.387 9.59375 47.5484 9.48438C47.9859 9.18229 48.4052 9.03125 48.8062 9.03125C49.0198 9.03125 49.2385 9.07812 49.4625 9.17188C50.1604 9.48958 50.5094 10.0208 50.5094 10.7656C50.5094 10.9219 50.4911 11.0885 50.4547 11.2656C50.3089 12.0312 49.9052 12.7969 49.2437 13.5625C48.5875 14.3177 47.8818 14.8385 47.1266 15.125Z" fill="#EB6233"/>
<path d="M52.6125 13.4219C52.9146 13.2292 53.188 12.9349 53.4328 12.5391C53.7714 11.9922 53.9406 11.474 53.9406 10.9844C53.9406 10.8906 53.9354 10.8125 53.925 10.75C53.9042 10.625 53.8417 10.5625 53.7375 10.5625C53.7115 10.5625 53.6828 10.5729 53.6516 10.5938C53.5109 10.6979 53.3729 10.9323 53.2375 11.2969C53.0344 11.8177 52.826 12.526 52.6125 13.4219ZM52.2453 15.125C52.2141 15.2865 52.1984 15.4089 52.1984 15.4922C52.1984 15.6016 52.2687 15.6875 52.4094 15.75C52.4094 15.75 52.4562 15.7344 52.55 15.7031C52.7219 15.6302 52.9901 15.3854 53.3547 14.9688C53.4016 14.9219 53.4484 14.8776 53.4953 14.8359C53.5734 14.7578 53.6698 14.7552 53.7844 14.8281L54.55 15.2969C54.6229 15.3385 54.6698 15.3932 54.6906 15.4609C54.7167 15.5391 54.7167 15.599 54.6906 15.6406C54.6542 15.7031 54.6099 15.7708 54.5578 15.8438C54.2922 16.2083 53.899 16.599 53.3781 17.0156C52.7844 17.4844 52.3703 17.7188 52.1359 17.7188H52.05C51.0396 17.4583 50.4719 17.0312 50.3469 16.4375C50.3156 16.2917 50.3 16.0495 50.3 15.7109C50.3 14.8203 50.5057 13.7422 50.9172 12.4766C51.3443 11.1328 51.774 10.2604 52.2062 9.85938C52.3521 9.71875 52.5057 9.59375 52.6672 9.48438C53.1047 9.18229 53.524 9.03125 53.925 9.03125C54.1385 9.03125 54.3573 9.07812 54.5812 9.17188C55.2792 9.48958 55.6281 10.0208 55.6281 10.7656C55.6281 10.9219 55.6099 11.0885 55.5734 11.2656C55.4276 12.0312 55.024 12.7969 54.3625 13.5625C53.7062 14.3177 53.0005 14.8385 52.2453 15.125Z" fill="#EB6233"/>
<path d="M56.0203 20.625H54.8172C54.6974 20.625 54.5958 20.5938 54.5125 20.5312C54.3979 20.4427 54.3641 20.3073 54.4109 20.125L57.1609 9.40625C57.2182 9.1875 57.3745 9.07292 57.6297 9.0625H58.9266C59.2182 9.06771 59.3328 9.1875 59.2703 9.42188L58.9734 10.5703L59.3484 10.125C59.562 9.86979 59.7234 9.6849 59.8328 9.57031C60.1349 9.26302 60.4057 9.10938 60.6453 9.10938H60.7547C60.9318 9.11979 61.1922 9.29167 61.5359 9.625C61.937 10.0312 62.1375 10.4792 62.1375 10.9688C62.1375 11.0312 62.1323 11.1094 62.1219 11.2031C61.9917 12.3958 61.674 13.638 61.1687 14.9297C60.7104 16.0964 60.2755 16.8385 59.8641 17.1562C59.5099 17.4219 59.0932 17.5573 58.6141 17.5625C58.1505 17.5625 57.713 17.4115 57.3016 17.1094L56.4891 20.2812C56.4318 20.5104 56.2755 20.625 56.0203 20.625ZM57.6609 15.8281C57.6818 15.8333 57.7026 15.8411 57.7234 15.8516C57.9161 15.9089 58.0776 15.9349 58.2078 15.9297C58.3276 15.9297 58.4214 15.9062 58.4891 15.8594C58.6714 15.7188 58.9083 15.2812 59.2 14.5469C59.5958 13.5469 59.8589 12.6823 59.9891 11.9531C60.0203 11.776 60.0359 11.6589 60.0359 11.6016C60.0359 11.5234 59.9943 11.4844 59.9109 11.4844C59.838 11.4844 59.7312 11.5625 59.5906 11.7188C59.4187 11.9062 59.2495 12.1406 59.0828 12.4219C58.5307 13.375 58.0828 14.4323 57.7391 15.5938L57.6609 15.8281Z" fill="#EB6233"/>
<path d="M31.7314 15.7866C34.2471 15.7866 36.2865 13.7472 36.2865 11.2315C36.2865 8.71578 34.2471 6.67639 31.7314 6.67639C29.2157 6.67639 27.1763 8.71578 27.1763 11.2315C27.1763 13.7472 29.2157 15.7866 31.7314 15.7866Z" fill="url(#paint0_linear_88_330)"/>
<path d="M30.0358 16.5054C28.727 16.1416 27.6123 15.2806 26.9295 14.1062C26.2468 12.9318 26.0502 11.5371 26.3816 10.2197C26.3974 10.1566 26.4149 10.0872 26.4323 10.0178C24.3142 8.70061 21.3243 8.02321 17.4781 8.00295C14.9099 8.01307 12.3472 8.24239 9.81805 8.68844C9.35566 8.77536 8.91492 8.95251 8.52099 9.20977C8.12706 9.46703 7.78766 9.79936 7.52216 10.1878C7.25667 10.5762 7.07028 11.0131 6.97363 11.4736C6.87699 11.934 6.87199 12.409 6.95891 12.8714C7.04584 13.3338 7.22299 13.7745 7.48024 14.1685C7.7375 14.5624 8.06984 14.9018 8.45826 15.1673C8.84669 15.4328 9.28359 15.6192 9.74405 15.7158C10.2045 15.8125 10.6795 15.8175 11.1419 15.7305C17.169 14.6012 21.8943 14.5404 22.8819 16.2445C23.9947 18.8121 18.4573 20.9568 13.8278 22.6922C11.2636 23.6582 10.2151 26.8971 11.4242 29.4285C12.6334 31.9598 16.1404 39.8993 16.1404 39.8993C16.6134 40.9603 17.2024 41.9656 17.8967 42.8969C18.4846 43.5478 18.5048 43.8682 20.5054 44.3709C20.9987 44.5089 21.5237 44.4801 21.9989 44.2888C22.4741 44.0976 22.8727 43.7546 23.1328 43.3134C23.4942 42.7788 23.7271 42.168 23.8133 41.5285C23.8995 40.889 23.8366 40.2383 23.6295 39.6271L21.669 33.143C20.9674 31.1552 20.0411 28.3259 20.0411 28.3259C20.0411 28.3259 22.1911 26.6586 23.8623 25.4011C28.4022 21.9658 29.9035 18.9279 30.0358 16.5054Z" fill="#EFF2FC"/>
<rect opacity="0.5" x="3.74417" y="28.9901" width="4.88046" height="2.44023" rx="1.22011" fill="#EFF2FC"/>
<rect opacity="0.5" x="1.30371" y="34.8467" width="9.76092" height="2.44023" rx="1.22012" fill="#EFF2FC"/>
<rect opacity="0.5" x="4.72025" y="40.7032" width="7.80873" height="2.44023" rx="1.22011" fill="#EFF2FC"/>
<defs>
<linearGradient id="paint0_linear_88_330" x1="27.1763" y1="6.12734" x2="33.6266" y2="15.4002" gradientUnits="userSpaceOnUse">
<stop stop-color="#FF9537"/>
<stop offset="1" stop-color="#DA3E09"/>
</linearGradient>
</defs>
</svg>
