<svg width="202" height="41" viewBox="0 0 202 41" fill="none" xmlns="http://www.w3.org/2000/svg">
<g clip-path="url(#clip0_197_3984)">
<path d="M20.8 9.43433V30.9886" stroke="#EB6233" stroke-width="2" stroke-linecap="square"/>
<path d="M23.4249 5.32446L18.175 35.0982" stroke="#EB6233" stroke-width="2" stroke-linecap="square"/>
<path d="M27.8463 8.00684L13.7537 32.416" stroke="#936FFF" stroke-width="2" stroke-linecap="square"/>
<path d="M32.7173 6.00903L8.88274 34.4139" stroke="#EB6233" stroke-width="2" stroke-linecap="square"/>
<path d="M28.1335 17.5422L13.4664 22.8806" stroke="#EB6233" stroke-width="2" stroke-linecap="square"/>
<path d="M31.1373 20.2114L10.4627 20.2114" stroke="#5FD5F7" stroke-width="2" stroke-linecap="square"/>
<path d="M37.8823 23.2234L3.71775 17.1993" stroke="#EB6233" stroke-width="2" stroke-linecap="square"/>
<path d="M26.5504 22.3044L15.0495 18.1185" stroke="#EB6233" stroke-width="2" stroke-linecap="square"/>
<path d="M36.1102 29.0508L5.48973 11.372" stroke="#5FD5F7" stroke-width="2" stroke-linecap="square"/>
<path d="M31.4799 29.1729L10.12 11.2498" stroke="#EB6233" stroke-width="2" stroke-linecap="square"/>
<path d="M29.8086 30.9475L11.7914 9.47549" stroke="#5FD5F7" stroke-width="2" stroke-linecap="square"/>
<path d="M29.3221 34.9722L12.2779 5.45081" stroke="#936FFF" stroke-width="2" stroke-linecap="square"/>
<path d="M21.7042 22.6958L19.8958 17.7273" stroke="#5FD5F7" stroke-width="2" stroke-linecap="square"/>
<path d="M21.6244 24.887L19.9756 15.5361" stroke="#936FFF" stroke-width="2" stroke-linecap="square"/>
<path d="M20.8 40.1848L20.8 0.238091" stroke="#5FD5F7" stroke-width="2" stroke-linecap="square"/>
<path d="M18.0162 35.9993L23.5838 4.42359" stroke="#5FD5F7" stroke-width="2" stroke-linecap="square"/>
<path d="M16.9915 30.6753L24.6085 9.74751" stroke="#5FD5F7" stroke-width="2" stroke-linecap="square"/>
<path d="M12.4682 34.6426L29.1318 5.78039" stroke="#EB6233" stroke-width="2" stroke-linecap="square"/>
<path d="M7.08582 28.1294L34.5142 12.2936" stroke="#936FFF" stroke-width="2" stroke-linecap="square"/>
<path d="M15.6607 22.082L25.9393 18.3409" stroke="#EB6233" stroke-width="2" stroke-linecap="square"/>
<path d="M1.3381 16.7798L40.2619 23.6431" stroke="#5FD5F7" stroke-width="2" stroke-linecap="square"/>
<path d="M10.3334 14.1685L31.2665 26.2542" stroke="#5FD5F7" stroke-width="2" stroke-linecap="square"/>
<path d="M17.6277 16.4309L23.9723 23.992" stroke="#5FD5F7" stroke-width="2" stroke-linecap="square"/>
<path d="M15.5671 11.1479L26.0328 29.275" stroke="#5FD5F7" stroke-width="2" stroke-linecap="square"/>
<path d="M18.0953 12.7803L23.5047 27.6425" stroke="#5FD5F7" stroke-width="2" stroke-linecap="square"/>
<path d="M19.9896 15.6155L21.6104 24.8076" stroke="#5FD5F7" stroke-width="2" stroke-linecap="square"/>
<path d="M20.8 11.5176V28.9052" stroke="#936FFF" stroke-width="2" stroke-linecap="square"/>
<path d="M23.6107 4.271L17.9893 36.1516" stroke="#936FFF" stroke-width="2" stroke-linecap="square"/>
<path d="M23.5646 12.6157L18.0354 27.807" stroke="#5FD5F7" stroke-width="2" stroke-linecap="square"/>
<path d="M28.3328 7.16406L13.2671 33.2587" stroke="#5FD5F7" stroke-width="2" stroke-linecap="square"/>
<path d="M33.1036 5.54858L8.49628 34.8745" stroke="#EB6233" stroke-width="2" stroke-linecap="square"/>
<path d="M23.2643 18.1436L18.3357 22.2791" stroke="#EB6233" stroke-width="2" stroke-linecap="square"/>
<path d="M34.2885 12.4238L7.31146 27.999" stroke="#EB6233" stroke-width="2" stroke-linecap="square"/>
<path d="M23.9026 19.0823L17.6974 21.3408" stroke="#936FFF" stroke-width="2" stroke-linecap="square"/>
<path d="M33.4492 17.981L8.15084 22.4417" stroke="#EB6233" stroke-width="2" stroke-linecap="square"/>
<path d="M30.7274 20.2114L10.8725 20.2114" stroke="#5FD5F7" stroke-width="2" stroke-linecap="square"/>
<path d="M35.4761 22.7993L6.12391 17.6237" stroke="#5FD5F7" stroke-width="2" stroke-linecap="square"/>
<path d="M53.6 28.3534H67.008V24.7023H58.0284V7.40796H53.6V28.3534Z" fill="#EFF2FC"/>
<path d="M76.0924 28.6604C80.8584 28.6604 83.8244 25.3979 83.8244 20.5604C83.8244 15.6922 80.8584 12.4399 76.0924 12.4399C71.3268 12.4399 68.3608 15.6922 68.3608 20.5604C68.3608 25.3979 71.3268 28.6604 76.0924 28.6604ZM76.1128 25.2854C73.914 25.2854 72.7892 23.2706 72.7892 20.5297C72.7892 17.7888 73.914 15.7638 76.1128 15.7638C78.2708 15.7638 79.396 17.7888 79.396 20.5297C79.396 23.2706 78.2708 25.2854 76.1128 25.2854Z" fill="#EFF2FC"/>
<path d="M92.8704 34.5718C97.3604 34.5718 100.551 32.5263 100.551 28.507V12.6445H96.2252V15.2831H96.0616C95.4784 14.0047 94.2 12.4399 91.5716 12.4399C88.1252 12.4399 85.2104 15.1195 85.2104 20.4683C85.2104 25.6945 88.0432 28.1286 91.582 28.1286C94.0876 28.1286 95.4888 26.8706 96.0616 25.5718H96.2456V28.4456C96.2456 30.6036 94.8648 31.4422 92.9728 31.4422C91.05 31.4422 90.0784 30.6036 89.7204 29.6525L85.6912 30.1945C86.2128 32.6695 88.6364 34.5718 92.8704 34.5718ZM92.9628 24.8559C90.8252 24.8559 89.6592 23.1581 89.6592 20.4479C89.6592 17.7786 90.8048 15.907 92.9628 15.907C95.0796 15.907 96.266 17.6968 96.266 20.4479C96.266 23.2195 95.0592 24.8559 92.9628 24.8559Z" fill="#EFF2FC"/>
<path d="M110.252 28.6604C115.018 28.6604 117.984 25.3979 117.984 20.5604C117.984 15.6922 115.018 12.4399 110.252 12.4399C105.486 12.4399 102.52 15.6922 102.52 20.5604C102.52 25.3979 105.486 28.6604 110.252 28.6604ZM110.272 25.2854C108.074 25.2854 106.949 23.2706 106.949 20.5297C106.949 17.7888 108.074 15.7638 110.272 15.7638C112.43 15.7638 113.556 17.7888 113.556 20.5297C113.556 23.2706 112.43 25.2854 110.272 25.2854Z" fill="#EFF2FC"/>
<path d="M119.953 28.3535H124.31V12.6444H119.953V28.3535ZM122.142 10.6194C123.44 10.6194 124.504 9.62735 124.504 8.41031C124.504 7.20347 123.44 6.21143 122.142 6.21143C120.853 6.21143 119.789 7.20347 119.789 8.41031C119.789 9.62735 120.853 10.6194 122.142 10.6194Z" fill="#EFF2FC"/>
<path d="M126.936 34.2445H131.292V25.8377H131.426C132.029 27.1468 133.348 28.6093 135.884 28.6093C139.464 28.6093 142.256 25.7763 142.256 20.5195C142.256 15.1195 139.341 12.4399 135.895 12.4399C133.266 12.4399 132.008 14.0047 131.426 15.2831H131.231V12.6445H126.936V34.2445ZM131.2 20.4991C131.2 17.6968 132.387 15.907 134.504 15.907C136.662 15.907 137.807 17.7786 137.807 20.4991C137.807 23.2399 136.641 25.1422 134.504 25.1422C132.407 25.1422 131.2 23.3013 131.2 20.4991Z" fill="#EFF2FC"/>
<path d="M157.367 17.1241C156.978 14.2297 154.647 12.4399 150.678 12.4399C146.659 12.4399 144.01 14.3013 144.02 17.3286C144.01 19.6809 145.493 21.2047 148.562 21.8183L151.282 22.3604C152.652 22.6365 153.276 23.1377 153.297 23.9252C153.276 24.8559 152.264 25.5206 150.74 25.5206C149.185 25.5206 148.152 24.8559 147.886 23.5775L143.601 23.8025C144.01 26.8093 146.567 28.6604 150.73 28.6604C154.8 28.6604 157.715 26.5843 157.725 23.4854C157.715 21.2149 156.232 19.8547 153.184 19.2309L150.341 18.6581C148.878 18.3411 148.336 17.8399 148.347 17.0831C148.336 16.1422 149.4 15.5286 150.75 15.5286C152.264 15.5286 153.164 16.357 153.378 17.3695L157.367 17.1241Z" fill="#EFF2FC"/>
<path d="M169.678 21.6647C169.689 23.7716 168.246 24.8761 166.682 24.8761C165.035 24.8761 163.972 23.7204 163.961 21.8693V12.6443H159.604V22.6466C159.615 26.3181 161.762 28.5579 164.923 28.5579C167.285 28.5579 168.983 27.3409 169.689 25.5H169.852V28.3534H174.035V12.6443H169.678V21.6647Z" fill="#EFF2FC"/>
<path d="M176.656 28.3536H181.013V18.9241C181.013 17.1854 182.118 16.0297 183.57 16.0297C185.002 16.0297 185.963 17.0115 185.963 18.5559V28.3536H190.187V18.7604C190.187 17.1343 191.118 16.0297 192.703 16.0297C194.094 16.0297 195.137 16.8991 195.137 18.6479V28.3536H199.484V17.7888C199.484 14.3831 197.458 12.4399 194.534 12.4399C192.232 12.4399 190.442 13.6161 189.798 15.4161H189.634C189.134 13.5956 187.528 12.4399 185.37 12.4399C183.253 12.4399 181.647 13.5649 180.992 15.4161H180.808V12.6445H176.656V28.3536Z" fill="#EFF2FC"/>
</g>
<defs>
<clipPath id="clip0_197_3984">
<rect width="201.2" height="40" fill="white" transform="translate(0.799988 0.211426)"/>
</clipPath>
</defs>
</svg>
