<svg width="223" height="65" viewBox="0 0 223 65" fill="none" xmlns="http://www.w3.org/2000/svg">
<path fill-rule="evenodd" clip-rule="evenodd" d="M37.2108 5.39281C35.1324 3.31541 31.7637 3.31609 29.6863 5.39435L12.3488 22.739L12.334 22.7347L12.2792 22.7405C12.3018 22.7514 12.3239 22.7621 12.3456 22.7729C9.30427 23.0915 8.01387 24.0055 7.99926 25.1792C8.00441 25.6158 8.18354 26.0873 8.51256 26.5767L8.49675 26.5926C11.2617 30.7628 24.9589 36.2638 34.6494 32.5367C27.3867 36.168 10.283 36.8877 5.25932 29.8371C4.16834 31.0174 3.71188 32.5684 3.88378 34.0589C5.21089 41.3735 20.048 43.3691 34.8853 32.7711L38.096 35.9818C34.1008 40.0865 28.1993 63.9285 36.9682 60.2883C37.1762 60.1471 37.3528 60.0208 37.5929 59.8391L37.9838 59.4701C37.9612 59.4757 37.9388 59.481 37.9166 59.4862L61.4018 37.3148C63.5824 35.2561 63.6318 31.803 61.5107 29.6828L37.2108 5.39281ZM34.6533 12.6183L35.4559 9.40755L36.2585 12.6183L38.6666 13.4209L36.2585 14.2236L35.4559 17.4343L34.6533 14.2236L32.2452 13.4209L34.6533 12.6183ZM24.7181 23.0995L25.2532 20.9589L25.7883 23.0995L27.3937 23.6346L25.7883 24.1697L25.2532 26.3102L24.7181 24.1697L23.1128 23.6346L24.7181 23.0995ZM43.3554 41.1543L42.8204 43.2947L41.2151 43.8299L42.8204 44.365L43.3554 46.5054L43.8905 44.365L45.496 43.8299L43.8905 43.2947L43.3554 41.1543Z" fill="#7F4AEE"/>
<path d="M76.5755 17.2903H71.5917V39.7782H85.3884V35.3718H76.5755V17.2903Z" fill="#7F4AEE"/>
<path d="M85.8644 32.1506C85.8644 36.9521 89.0857 40.143 93.9479 40.143C98.7799 40.143 102.001 36.9521 102.001 32.1506C102.001 27.3491 98.7799 24.1279 93.9479 24.1279C89.0857 24.1279 85.8644 27.3491 85.8644 32.1506ZM90.5748 32.1203C90.5748 29.841 91.9118 28.3216 93.9479 28.3216C95.9536 28.3216 97.2907 29.841 97.2907 32.1203C97.2907 34.4298 95.9536 35.9493 93.9479 35.9493C91.9118 35.9493 90.5748 34.4298 90.5748 32.1203Z" fill="#7F4AEE"/>
<path d="M102.754 31.9076C102.754 36.4962 105.732 39.5959 109.956 39.5959C111.992 39.5959 113.755 38.8666 114.636 37.6815V39.7783C114.636 41.8751 113.329 43.2731 111.02 43.2731C108.953 43.2731 107.525 42.3006 107.434 40.5684H102.693C103.118 44.7318 106.34 47.5276 110.746 47.5276C115.943 47.5276 119.225 44.1544 119.225 38.8058V24.5837H115.001L114.758 26.1335C113.907 24.8876 112.114 24.0671 110.047 24.0671C105.793 24.0671 102.754 27.258 102.754 31.9076ZM107.495 31.786C107.495 29.598 108.953 28.1392 110.807 28.1392C112.965 28.1392 114.545 29.5675 114.545 31.786C114.545 34.0044 112.995 35.5238 110.837 35.5238C108.984 35.5238 107.495 34.0044 107.495 31.786Z" fill="#7F4AEE"/>
<path d="M120.589 32.1506C120.589 36.9521 123.81 40.143 128.672 40.143C133.504 40.143 136.725 36.9521 136.725 32.1506C136.725 27.3491 133.504 24.1279 128.672 24.1279C123.81 24.1279 120.589 27.3491 120.589 32.1506ZM125.299 32.1203C125.299 29.841 126.636 28.3216 128.672 28.3216C130.678 28.3216 132.015 29.841 132.015 32.1203C132.015 34.4298 130.678 35.9493 128.672 35.9493C126.636 35.9493 125.299 34.4298 125.299 32.1203Z" fill="#7F4AEE"/>
<path d="M140.761 22.2134C142.219 22.2134 143.404 21.0283 143.404 19.5392C143.404 18.05 142.219 16.8953 140.761 16.8953C139.271 16.8953 138.086 18.05 138.086 19.5392C138.086 21.0283 139.271 22.2134 140.761 22.2134ZM138.39 39.7783H143.101V24.5837H138.39V39.7783Z" fill="#7F4AEE"/>
<path d="M145.842 47.0716H150.461V38.2588C151.343 39.4136 153.348 40.2037 155.446 40.2037C159.973 40.2037 162.708 36.7394 162.586 31.9378C162.465 27.0452 159.639 24.0974 155.415 24.0974C153.257 24.0974 151.222 25.0395 150.37 26.4374L150.127 24.5837H145.842V47.0716ZM150.553 32.1809C150.553 29.9018 152.072 28.3824 154.26 28.3824C156.478 28.3824 157.876 29.9321 157.876 32.1809C157.876 34.4298 156.478 35.9796 154.26 35.9796C152.072 35.9796 150.553 34.4601 150.553 32.1809Z" fill="#7F4AEE"/>
<path d="M163.085 34.9767C163.206 38.0461 165.638 40.1732 169.467 40.1732C173.145 40.1732 175.698 38.2283 175.698 35.0983C175.698 32.8496 174.359 31.3604 171.867 30.7527L169.163 30.0841C168.19 29.841 167.583 29.5979 167.583 28.8078C167.583 28.0177 168.221 27.501 169.163 27.501C170.227 27.501 170.925 28.2 170.895 29.2333H175.12C174.998 26.0728 172.598 24.0974 169.254 24.0974C165.881 24.0974 163.359 26.1031 163.359 29.142C163.359 31.1782 164.484 32.8496 167.492 33.6397L170.166 34.3385C170.956 34.5513 171.29 34.9159 171.29 35.4326C171.29 36.1923 170.591 36.6786 169.406 36.6786C168.038 36.6786 167.309 36.0404 167.309 34.9767H163.085Z" fill="#7F4AEE"/>
<path d="M182.86 40.1733C184.715 40.1733 186.568 39.3225 187.51 38.0765L187.814 39.7783H192.221V24.5837H187.54V32.485C187.54 34.7641 186.871 36.0101 184.715 36.0101C183.042 36.0101 181.949 35.2503 181.949 32.4242V24.5837H177.268V34.1259C177.268 37.7423 179.275 40.1733 182.86 40.1733Z" fill="#7F4AEE"/>
<path d="M199.642 39.7783V31.4821C199.642 28.9293 201.01 28.2 202.347 28.2C203.835 28.2 204.808 29.1117 204.808 30.9958V39.7783H209.427V31.4821C209.427 28.899 210.764 28.1697 212.101 28.1697C213.59 28.1697 214.593 29.0813 214.593 30.9958V39.7783H219.152V29.8411C219.152 26.3767 217.328 24.0671 213.407 24.0671C211.22 24.0671 209.427 25.1308 208.637 26.7717C207.725 25.1308 206.145 24.0671 203.622 24.0671C201.951 24.0671 200.402 24.8268 199.49 26.0424L199.308 24.5837H194.931V39.7783H199.642Z" fill="#7F4AEE"/>
<path fill-rule="evenodd" clip-rule="evenodd" d="M63.2103 7.51758C58.1895 7.51758 53.4281 9.74771 50.2137 13.6048L38.7786 27.3271L45.3817 17.4223L34.421 22.1198C33.029 22.7164 32.6798 24.5299 33.7506 25.6008L37.2778 29.1279L35.4769 31.289L39.4389 35.2509L41.5999 33.45L45.1271 36.9772C46.1979 38.048 48.0116 37.6988 48.608 36.3069L53.3055 25.3462L43.4008 31.9493L57.1231 20.5141C60.9802 17.2999 63.2103 12.5384 63.2103 7.51758ZM52.3152 18.4131C53.4092 19.507 55.1829 19.507 56.277 18.4131C57.371 17.3189 57.371 15.5452 56.277 14.4512C55.1829 13.3571 53.4092 13.3571 52.3152 14.4512C51.221 15.5452 51.221 17.3189 52.3152 18.4131Z" fill="#A3A2FF"/>
<path opacity="0.6" d="M5.1319 29.6526C7.75515 38.6401 23.704 38.1715 34.6463 32.538C27.3191 36.1994 9.98619 36.8986 5.1319 29.6526Z" fill="#424242"/>
<path opacity="0.6" d="M36.9682 60.2885C29.5793 63.3558 32.6068 46.91 36.1329 39.2021C33.5626 46.0532 31.3685 61.156 37.9838 59.4703L37.5929 59.8392C37.3528 60.0209 37.1762 60.1473 36.9682 60.2885Z" fill="#424242"/>
</svg>
