<svg width="224" height="49" viewBox="0 0 224 49" fill="none" xmlns="http://www.w3.org/2000/svg">
<path d="M35.8704 21.6051C35.264 22.2152 34.7997 22.9515 34.5104 23.7614C34.2211 24.5715 34.1141 25.4353 34.1968 26.2915L34.168 26.2627C34.2531 27.2705 34.1171 28.2846 33.7698 29.2345C33.4224 30.1843 32.872 31.0468 32.157 31.762C31.4418 32.4771 30.5792 33.0276 29.6293 33.3748C28.6795 33.7222 27.6653 33.8582 26.6576 33.7731L26.6864 33.8019C25.481 33.6897 24.2702 33.952 23.2192 34.5531C22.1683 35.1542 21.3283 36.0648 20.8139 37.1608C20.2995 38.2568 20.1355 39.4846 20.3445 40.6772C20.5536 41.8697 21.1253 42.9688 21.9818 43.8244C22.8382 44.6801 23.9378 45.2508 25.1304 45.4587C26.3232 45.6667 27.5509 45.5016 28.6464 44.9862C29.7419 44.4707 30.6517 43.63 31.2518 42.5785C31.852 41.527 32.1133 40.3161 32 39.1107L32.0304 39.1395C31.9453 38.1318 32.0811 37.1176 32.4285 36.1676C32.7758 35.2179 33.3264 34.3553 34.0414 33.6401C34.7566 32.9251 35.6192 32.3745 36.569 32.0273C37.5189 31.68 38.533 31.544 39.5408 31.6291L39.5104 31.6003C40.495 31.6888 41.4862 31.5273 42.392 31.1308C43.2976 30.7344 44.0886 30.1156 44.6915 29.3321C45.2944 28.5486 45.6899 27.6254 45.841 26.6484C45.9922 25.6713 45.8942 24.672 45.5563 23.7427C45.2184 22.8136 44.6514 21.9848 43.9078 21.3331C43.1643 20.6814 42.2683 20.228 41.3029 20.0148C40.3374 19.8017 39.3338 19.8356 38.385 20.1136C37.4362 20.3916 36.573 20.9046 35.8752 21.6051H35.8704Z" fill="#EFF2FC"/>
<path d="M24.0672 30.0291L24.0368 30.0003C24.8933 30.0866 25.7582 29.9814 26.5693 29.6925C27.3802 29.4035 28.1168 28.9381 28.7258 28.3296C29.3346 27.7211 29.8008 26.9848 30.0902 26.1741C30.3798 25.3634 30.4856 24.4986 30.4 23.6419L30.4304 23.6707C30.3453 22.6629 30.4813 21.6488 30.8285 20.6989C31.1758 19.7491 31.7264 18.8866 32.4414 18.1714C33.1566 17.4563 34.0192 16.9058 34.969 16.5586C35.9189 16.2111 36.933 16.0752 37.9408 16.1603L37.9104 16.1315C39.116 16.2448 40.327 15.9833 41.3786 15.3829C42.4302 14.7825 43.2709 13.8723 43.7861 12.7765C44.3013 11.6807 44.4659 10.4527 44.2576 9.25984C44.0493 8.06702 43.4781 6.96753 42.6218 6.11131C41.7656 5.2551 40.6661 4.68384 39.4733 4.47549C38.2805 4.26712 37.0525 4.43177 35.9566 4.94701C34.8608 5.46222 33.9507 6.30294 33.3502 7.35448C32.7498 8.406 32.4883 9.61715 32.6016 10.8227L32.5728 10.7923C32.6581 11.8001 32.5224 12.8144 32.1752 13.7644C31.828 14.7143 31.2774 15.5771 30.5624 16.2923C29.8472 17.0074 28.9845 17.5579 28.0346 17.9051C27.0845 18.2523 26.0702 18.388 25.0624 18.3027L25.0912 18.3331C24.2347 18.2469 23.3696 18.352 22.5587 18.641C21.7478 18.9298 21.0112 19.3954 20.4022 20.0038C19.7933 20.6123 19.3272 21.3486 19.0376 22.1594C18.7482 22.9701 18.6424 23.8349 18.728 24.6915L18.6992 24.6627C18.784 25.6704 18.6478 26.6845 18.3005 27.6342C17.953 28.5838 17.4026 29.4464 16.6875 30.1614C15.9724 30.8765 15.1099 31.4269 14.1603 31.7744C13.2106 32.1218 12.1965 32.2579 11.1888 32.1731L11.2176 32.2019C10.012 32.0886 8.80088 32.3501 7.74934 32.9506C6.69782 33.551 5.8571 34.4611 5.34188 35.557C4.82665 36.6528 4.66198 37.8808 4.87035 39.0736C5.07872 40.2664 5.64998 41.3659 6.50619 42.2221C7.36241 43.0784 8.4619 43.6496 9.65472 43.8579C10.8475 44.0662 12.0756 43.9016 13.1714 43.3864C14.2671 42.8712 15.1773 42.0306 15.7778 40.979C16.3782 39.9274 16.6397 38.7163 16.5264 37.5107L16.5568 37.5395C16.4717 36.5317 16.6077 35.5176 16.955 34.5677C17.3022 33.6179 17.8528 32.7554 18.5678 32.0402C19.283 31.3251 20.1456 30.7746 21.0954 30.4274C22.0453 30.08 23.0594 29.944 24.0672 30.0291Z" fill="#EFF2FC"/>
<path d="M13.344 26.8179C13.9504 26.208 14.4147 25.4717 14.7037 24.6616C14.9928 23.8515 15.0994 22.9875 15.016 22.1315L15.0464 22.1603C14.9613 21.1523 15.0972 20.1378 15.4447 19.1877C15.7923 18.2376 16.343 17.3749 17.0586 16.6597C17.7741 15.9445 18.637 15.3941 19.5872 15.047C20.5374 14.6999 21.552 14.5644 22.56 14.6499L22.5296 14.6211C23.7347 14.734 24.9454 14.4725 25.9965 13.8721C27.0475 13.2717 27.8877 12.3617 28.4027 11.2663C28.9176 10.1708 29.0821 8.94324 28.8738 7.75087C28.6654 6.5585 28.0942 5.45943 27.2384 4.60352C26.3826 3.74762 25.2834 3.17655 24.091 2.9682C22.8987 2.75983 21.671 2.92434 20.5757 3.43925C19.4802 3.95416 18.5702 4.79444 17.9699 5.84548C17.3694 6.89652 17.1078 8.10717 17.2208 9.31232L17.192 9.28352C17.2771 10.2913 17.1411 11.3055 16.7938 12.2553C16.4464 13.2051 15.896 14.0677 15.1809 14.7828C14.4658 15.498 13.6032 16.0484 12.6534 16.3957C11.7035 16.743 10.6894 16.879 9.6816 16.7939L9.7104 16.8227C8.72571 16.7344 7.73466 16.8962 6.82909 17.2928C5.92352 17.6894 5.13272 18.3083 4.52999 19.092C3.92725 19.8755 3.53208 20.7987 3.38107 21.7757C3.23008 22.7528 3.32815 23.7522 3.66618 24.6811C4.00421 25.6102 4.5713 26.4389 5.31487 27.0904C6.05843 27.7421 6.95443 28.1954 7.91984 28.4085C8.88523 28.6214 9.8888 28.5874 10.8376 28.3094C11.7863 28.0314 12.6495 27.5184 13.3472 26.8179H13.344Z" fill="#EFF2FC"/>
<path d="M62.9072 10.8594H67.6592V33.9842H62.9072V10.8594Z" fill="#EFF2FC"/>
<path d="M70.3504 26.0657C70.3438 24.404 70.8306 22.7774 71.749 21.3925C72.6674 20.0075 73.9762 18.9262 75.5096 18.2857C77.043 17.6451 78.732 17.4741 80.3627 17.7942C81.9934 18.1144 83.4925 18.9112 84.6699 20.084C85.8474 21.2566 86.6502 22.7525 86.977 24.3819C87.3037 26.0113 87.1394 27.7011 86.505 29.2371C85.8706 30.7729 84.7946 32.0862 83.4133 33.0101C82.0318 33.9341 80.4075 34.4273 78.7456 34.4273C77.6426 34.44 76.548 34.2325 75.5259 33.8171C74.5038 33.4017 73.5749 32.7869 72.7933 32.0085C72.0115 31.2299 71.393 30.3033 70.9736 29.283C70.5541 28.2627 70.3422 27.1689 70.3504 26.0657ZM82.3888 26.0657C82.369 25.3494 82.1384 24.6549 81.7261 24.0688C81.3136 23.4829 80.7376 23.0313 80.0701 22.771C79.4024 22.5105 78.673 22.4526 77.9726 22.6046C77.2723 22.7566 76.6323 23.1115 76.1326 23.6253C75.6331 24.1389 75.2958 24.7885 75.1635 25.4928C75.031 26.1969 75.109 26.9246 75.3878 27.5848C75.6667 28.2449 76.1339 28.8081 76.731 29.2041C77.3283 29.6001 78.0291 29.8113 78.7456 29.8113C79.2363 29.8245 79.7245 29.7357 80.1794 29.5507C80.6341 29.3657 81.0456 29.0886 81.3878 28.7368C81.7301 28.3848 81.9958 27.9657 82.168 27.5061C82.3403 27.0464 82.4155 26.556 82.3888 26.0657Z" fill="#EFF2FC"/>
<path d="M106.08 18.1457V33.1857C106.08 38.5073 101.93 40.7569 97.7168 40.7569C96.2336 40.868 94.7483 40.5683 93.424 39.891C92.0998 39.2136 90.9877 38.1846 90.2096 36.9169L94.264 34.5729C94.591 35.2337 95.1122 35.7788 95.7574 36.1355C96.4029 36.492 97.1418 36.643 97.8752 36.5681C98.344 36.6331 98.8214 36.5918 99.2722 36.4473C99.7227 36.3028 100.135 36.0588 100.479 35.7336C100.823 35.4081 101.089 35.0097 101.258 34.5675C101.426 34.1254 101.494 33.651 101.454 33.1793V31.7313C100.898 32.4121 100.19 32.9531 99.3864 33.3107C98.583 33.6683 97.7072 33.8326 96.8288 33.7905C94.7389 33.7246 92.7566 32.8481 91.3016 31.3464C89.8466 29.8448 89.033 27.8358 89.033 25.7449C89.033 23.654 89.8466 21.6451 91.3016 20.1435C92.7566 18.6417 94.7389 17.7652 96.8288 17.6993C97.7072 17.6572 98.583 17.8216 99.3864 18.1792C100.19 18.5368 100.898 19.0777 101.454 19.7585V18.1425L106.08 18.1457ZM101.456 25.7473C101.488 24.9816 101.29 24.2236 100.888 23.5713C100.485 22.9188 99.8966 22.4019 99.1979 22.0868C98.4992 21.7716 97.7222 21.6729 96.9669 21.8032C96.2115 21.9334 95.5125 22.2867 94.9595 22.8177C94.4067 23.3486 94.0254 24.0328 93.8646 24.7822C93.704 25.5316 93.7712 26.3121 94.0579 27.023C94.3445 27.7339 94.8373 28.3428 95.4728 28.7713C96.1083 29.1998 96.8576 29.4283 97.624 29.4273C98.1234 29.4622 98.6243 29.3921 99.0949 29.2216C99.5654 29.051 99.995 28.7836 100.356 28.4371C100.717 28.0904 101.001 27.672 101.191 27.2086C101.38 26.7454 101.471 26.2476 101.456 25.7473Z" fill="#EFF2FC"/>
<path d="M108.771 26.0657C108.765 24.404 109.251 22.7774 110.17 21.3925C111.088 20.0075 112.397 18.9262 113.93 18.2857C115.464 17.6451 117.153 17.4741 118.784 17.7942C120.414 18.1144 121.913 18.9112 123.091 20.084C124.268 21.2566 125.071 22.7525 125.398 24.3819C125.724 26.0113 125.56 27.7011 124.926 29.2371C124.291 30.7729 123.215 32.0862 121.834 33.0101C120.453 33.9341 118.828 34.4273 117.166 34.4273C116.063 34.44 114.969 34.2325 113.947 33.8171C112.925 33.4017 111.996 32.7869 111.214 32.0085C110.432 31.2299 109.814 30.3033 109.394 29.283C108.975 28.2627 108.763 27.1689 108.771 26.0657ZM120.81 26.0657C120.79 25.3494 120.559 24.6549 120.147 24.0688C119.734 23.4829 119.158 23.0313 118.491 22.771C117.823 22.5105 117.094 22.4526 116.393 22.6046C115.693 22.7566 115.053 23.1115 114.553 23.6253C114.054 24.1389 113.717 24.7885 113.584 25.4928C113.452 26.1969 113.53 26.9246 113.809 27.5848C114.088 28.2449 114.555 28.8081 115.152 29.2041C115.749 29.6001 116.45 29.8113 117.166 29.8113C117.657 29.8245 118.145 29.7357 118.6 29.5507C119.055 29.3657 119.466 29.0886 119.809 28.7368C120.151 28.3848 120.417 27.9657 120.589 27.5061C120.761 27.0464 120.836 26.556 120.81 26.0657Z" fill="#EFF2FC"/>
<path d="M127.778 13.901C127.778 13.3371 127.945 12.7858 128.258 12.317C128.571 11.8481 129.017 11.4826 129.538 11.2668C130.059 11.051 130.632 10.9946 131.185 11.1046C131.738 11.2146 132.246 11.4862 132.645 11.8849C133.044 12.2836 133.315 12.7917 133.425 13.3448C133.535 13.8978 133.479 14.4711 133.263 14.9921C133.047 15.5131 132.682 15.9584 132.213 16.2717C131.744 16.585 131.193 16.7522 130.629 16.7522C129.875 16.7447 129.154 16.442 128.621 15.9088C128.088 15.3757 127.785 14.6549 127.778 13.901ZM128.258 18.1458H133.011V33.9858H128.251L128.258 18.1458Z" fill="#EFF2FC"/>
<path d="M153.53 26.0659C153.584 27.1127 153.432 28.1601 153.081 29.1478C152.729 30.1355 152.186 31.0439 151.483 31.8211C150.779 32.598 149.929 33.2284 148.981 33.6758C148.033 34.123 147.006 34.3785 145.958 34.4275C145.078 34.4755 144.198 34.327 143.381 33.9927C142.565 33.6583 141.834 33.1467 141.24 32.4947V40.3203H136.488V18.1459H141.24V19.6339C141.834 18.9823 142.566 18.471 143.382 18.1371C144.198 17.803 145.078 17.6547 145.958 17.7027C147.006 17.7515 148.033 18.0068 148.981 18.4542C149.93 18.9015 150.78 19.5319 151.484 20.3092C152.188 21.0865 152.731 21.9953 153.082 22.9833C153.433 23.9711 153.585 25.0188 153.53 26.0659ZM148.778 26.0659C148.759 25.3246 148.522 24.6052 148.097 23.9977C147.671 23.3903 147.076 22.9219 146.386 22.6511C145.696 22.3803 144.941 22.319 144.216 22.4751C143.491 22.6311 142.828 22.9975 142.31 23.5284C141.793 24.0595 141.443 24.7311 141.305 25.4599C141.168 26.1886 141.248 26.9415 141.536 27.6249C141.824 28.3083 142.307 28.8913 142.925 29.3014C143.543 29.7113 144.268 29.93 145.01 29.9299C145.519 29.9526 146.027 29.8673 146.501 29.6798C146.975 29.4924 147.404 29.2068 147.759 28.842C148.115 28.4771 148.39 28.0412 148.565 27.5628C148.741 27.0844 148.813 26.5742 148.778 26.0659Z" fill="#EFF2FC"/>
<path d="M168.194 29.2323C168.194 32.8755 165.027 34.4275 161.606 34.4275C160.224 34.5526 158.836 34.2604 157.622 33.5883C156.408 32.9163 155.423 31.8955 154.795 30.6579L158.912 28.3139C159.079 28.8859 159.436 29.3836 159.925 29.7236C160.414 30.0638 161.006 30.2259 161.6 30.1827C162.739 30.1827 163.31 29.8339 163.31 29.2019C163.31 27.4579 155.517 28.3779 155.517 22.8979C155.517 19.4435 158.432 17.7027 161.726 17.7027C162.965 17.6635 164.19 17.9572 165.277 18.5532C166.363 19.1494 167.27 20.0259 167.902 21.0915L163.848 23.2771C163.67 22.8622 163.374 22.5088 162.997 22.2609C162.619 22.0131 162.178 21.8819 161.726 21.8835C160.902 21.8835 160.395 22.2035 160.395 22.7699C160.402 24.5763 168.194 23.3715 168.194 29.2323Z" fill="#EFF2FC"/>
<path d="M185.552 18.1458V33.9858H180.8V32.4962C180.251 33.1534 179.555 33.6714 178.768 34.0074C177.981 34.3434 177.126 34.4878 176.272 34.429C173.072 34.429 170.352 32.149 170.352 27.869V18.1458H175.104V27.173C175.064 27.5502 175.107 27.9317 175.23 28.2906C175.352 28.6496 175.552 28.9776 175.814 29.2517C176.077 29.5258 176.395 29.7394 176.749 29.8778C177.101 30.0162 177.48 30.076 177.859 30.053C179.602 30.053 180.805 29.0402 180.805 26.7906V18.1506L185.552 18.1458Z" fill="#EFF2FC"/>
<path d="M212.8 24.2594V33.9842H208.048V24.6706C208.048 23.0866 207.288 22.0738 205.768 22.0738C204.184 22.0738 203.296 23.1826 203.296 25.0514V33.9842H198.546V24.6706C198.546 23.0866 197.786 22.0738 196.264 22.0738C194.68 22.0738 193.794 23.1826 193.794 25.0514V33.9842H189.042V18.1442H193.794V19.6002C194.286 18.9543 194.933 18.442 195.674 18.1103C196.416 17.7785 197.229 17.6378 198.038 17.701C198.851 17.6612 199.661 17.8329 200.389 18.1991C201.115 18.5652 201.734 19.1137 202.187 19.7906C202.714 19.0823 203.411 18.5191 204.214 18.1537C205.018 17.7882 205.901 17.6326 206.781 17.701C210.418 17.7026 212.8 20.2994 212.8 24.2594Z" fill="#EFF2FC"/>
<path d="M216.819 18.0482C218.766 18.0482 220.346 16.4693 220.346 14.5218C220.346 12.5742 218.766 10.9954 216.819 10.9954C214.872 10.9954 213.293 12.5742 213.293 14.5218C213.293 16.4693 214.872 18.0482 216.819 18.0482Z" fill="#EFF2FC"/>
</svg>
