<svg width="257" height="49" viewBox="0 0 257 49" fill="none" xmlns="http://www.w3.org/2000/svg">
<g clip-path="url(#clip0_197_3945)">
<path d="M101.373 9.63745H96V33.8823H110.875V29.1317H101.373V9.63745Z" fill="#7F4AEE"/>
<path d="M111.388 25.6586C111.388 30.8353 114.861 34.2754 120.103 34.2754C125.312 34.2754 128.785 30.8353 128.785 25.6586C128.785 20.482 125.312 17.009 120.103 17.009C114.861 17.009 111.388 20.482 111.388 25.6586ZM116.466 25.6258C116.466 23.1686 117.908 21.5305 120.103 21.5305C122.265 21.5305 123.707 23.1686 123.707 25.6258C123.707 28.1159 122.265 29.7541 120.103 29.7541C117.908 29.7541 116.466 28.1159 116.466 25.6258Z" fill="#7F4AEE"/>
<path d="M129.597 25.3966C129.597 30.3437 132.808 33.6856 137.362 33.6856C139.557 33.6856 141.457 32.8993 142.407 31.6216V33.8822C142.407 36.1429 140.998 37.6499 138.508 37.6499C136.28 37.6499 134.741 36.6016 134.642 34.7341H129.531C129.99 39.2227 133.463 42.2368 138.213 42.2368C143.816 42.2368 147.354 38.6002 147.354 32.8337V17.5006H142.8L142.538 19.1714C141.621 17.8282 139.688 16.9436 137.46 16.9436C132.873 16.9436 129.597 20.3837 129.597 25.3966ZM134.708 25.2655C134.708 22.9064 136.28 21.3338 138.279 21.3338C140.605 21.3338 142.309 22.8737 142.309 25.2655C142.309 27.6572 140.638 29.2954 138.312 29.2954C136.313 29.2954 134.708 27.6572 134.708 25.2655Z" fill="#7F4AEE"/>
<path d="M148.825 25.6586C148.825 30.8353 152.298 34.2754 157.54 34.2754C162.75 34.2754 166.223 30.8353 166.223 25.6586C166.223 20.482 162.75 17.009 157.54 17.009C152.298 17.009 148.825 20.482 148.825 25.6586ZM153.903 25.6258C153.903 23.1686 155.344 21.5305 157.54 21.5305C159.702 21.5305 161.143 23.1686 161.143 25.6258C161.143 28.1159 159.702 29.7541 157.54 29.7541C155.344 29.7541 153.903 28.1159 153.903 25.6258Z" fill="#7F4AEE"/>
<path d="M170.572 14.945C172.144 14.945 173.423 13.6672 173.423 12.0618C173.423 10.4564 172.144 9.21143 170.572 9.21143C168.967 9.21143 167.689 10.4564 167.689 12.0618C167.689 13.6672 168.967 14.945 170.572 14.945ZM168.016 33.8822H173.096V17.5006H168.016V33.8822Z" fill="#7F4AEE"/>
<path d="M176.052 41.7454H181.032V32.2441C181.982 33.4891 184.144 34.3409 186.405 34.3409C191.286 34.3409 194.235 30.6059 194.104 25.4293C193.972 20.1544 190.926 16.9763 186.372 16.9763C184.045 16.9763 181.851 17.992 180.933 19.4992L180.67 17.5006H176.052V41.7454ZM181.129 25.6913C181.129 23.2342 182.767 21.596 185.127 21.596C187.518 21.596 189.025 23.2669 189.025 25.6913C189.025 28.1159 187.518 29.7868 185.127 29.7868C182.767 29.7868 181.129 28.1486 181.129 25.6913Z" fill="#7F4AEE"/>
<path d="M194.642 28.7056C194.772 32.0147 197.394 34.3081 201.522 34.3081C205.487 34.3081 208.239 32.2112 208.239 28.8367C208.239 26.4122 206.798 24.8068 204.11 24.1514L201.195 23.4307C200.147 23.1686 199.491 22.9064 199.491 22.0546C199.491 21.2027 200.178 20.6458 201.195 20.6458C202.341 20.6458 203.094 21.3994 203.063 22.5133H207.617C207.485 19.1059 204.897 16.9763 201.293 16.9763C197.657 16.9763 194.937 19.1387 194.937 22.415C194.937 24.6101 196.149 26.4122 199.392 27.2641L202.275 28.0175C203.127 28.2469 203.487 28.64 203.487 29.197C203.487 30.0161 202.734 30.5404 201.456 30.5404C199.982 30.5404 199.196 29.8523 199.196 28.7056H194.642Z" fill="#7F4AEE"/>
<path d="M215.961 34.308C217.961 34.308 219.958 33.3906 220.974 32.0473L221.303 33.8821H226.053V17.5005H221.007V26.019C221.007 28.4761 220.287 29.8194 217.961 29.8194C216.158 29.8194 214.979 29.0004 214.979 25.9534V17.5005H209.933V27.7881C209.933 31.687 212.096 34.308 215.961 34.308Z" fill="#7F4AEE"/>
<path d="M234.054 33.8822V24.9379C234.054 22.1857 235.528 21.3994 236.97 21.3994C238.575 21.3994 239.623 22.3823 239.623 24.4136V33.8822H244.604V24.9379C244.604 22.153 246.045 21.3667 247.487 21.3667C249.092 21.3667 250.173 22.3495 250.173 24.4136V33.8822H255.089V23.1686C255.089 19.4336 253.122 16.9436 248.895 16.9436C246.537 16.9436 244.604 18.0902 243.752 19.8595C242.769 18.0902 241.065 16.9436 238.346 16.9436C236.544 16.9436 234.873 17.7626 233.891 19.0732L233.694 17.5006H228.975V33.8822H234.054Z" fill="#7F4AEE"/>
<path d="M0 24.2114C0 10.9566 10.7452 0.211426 24 0.211426H55.5C68.7549 0.211426 79.5 10.9566 79.5 24.2114V48.2114H24C10.7452 48.2114 0 37.4663 0 24.2114Z" fill="#7F4AEE"/>
<path d="M55.5 9.21143H24C15.7157 9.21143 9 15.9272 9 24.2114C9 32.4957 15.7157 39.2114 24 39.2114H55.5C63.7843 39.2114 70.5 32.4957 70.5 24.2114C70.5 15.9272 63.7843 9.21143 55.5 9.21143Z" fill="#A5B4FC"/>
<path d="M24 31.7114C28.1421 31.7114 31.5 28.3536 31.5 24.2114C31.5 20.0693 28.1421 16.7114 24 16.7114C19.8579 16.7114 16.5 20.0693 16.5 24.2114C16.5 28.3536 19.8579 31.7114 24 31.7114Z" fill="black"/>
<path d="M21 22.7114C21.8284 22.7114 22.5 22.0399 22.5 21.2114C22.5 20.383 21.8284 19.7114 21 19.7114C20.1716 19.7114 19.5 20.383 19.5 21.2114C19.5 22.0399 20.1716 22.7114 21 22.7114Z" fill="white"/>
<path d="M57 31.7114C61.1421 31.7114 64.5 28.3536 64.5 24.2114C64.5 20.0693 61.1421 16.7114 57 16.7114C52.8579 16.7114 49.5 20.0693 49.5 24.2114C49.5 28.3536 52.8579 31.7114 57 31.7114Z" fill="black"/>
<path d="M54 22.7114C54.8284 22.7114 55.5 22.0399 55.5 21.2114C55.5 20.383 54.8284 19.7114 54 19.7114C53.1716 19.7114 52.5 20.383 52.5 21.2114C52.5 22.0399 53.1716 22.7114 54 22.7114Z" fill="white"/>
</g>
<defs>
<clipPath id="clip0_197_3945">
<rect width="256.5" height="48" fill="white" transform="translate(0 0.211426)"/>
</clipPath>
</defs>
</svg>
