<svg width="202" height="41" viewBox="0 0 202 41" fill="none" xmlns="http://www.w3.org/2000/svg">
<g clip-path="url(#clip0_197_3961)">
<path d="M0.0499878 0.211426H20.05L0.0499878 20.2114V0.211426Z" fill="#936FFF"/>
<path d="M20.05 20.2114H0.0499878V40.2114H20.05V20.2114Z" fill="#5FD5F7"/>
<path d="M52.85 28.3534H66.258V24.7023H57.2784V7.40796H52.85V28.3534Z" fill="#EFF2FC"/>
<path d="M75.3424 28.6604C80.1084 28.6604 83.0744 25.3979 83.0744 20.5604C83.0744 15.6922 80.1084 12.4399 75.3424 12.4399C70.5768 12.4399 67.6108 15.6922 67.6108 20.5604C67.6108 25.3979 70.5768 28.6604 75.3424 28.6604ZM75.3628 25.2854C73.164 25.2854 72.0392 23.2706 72.0392 20.5297C72.0392 17.7888 73.164 15.7638 75.3628 15.7638C77.5208 15.7638 78.646 17.7888 78.646 20.5297C78.646 23.2706 77.5208 25.2854 75.3628 25.2854Z" fill="#EFF2FC"/>
<path d="M92.1204 34.5718C96.6104 34.5718 99.8012 32.5263 99.8012 28.507V12.6445H95.4752V15.2831H95.3116C94.7284 14.0047 93.45 12.4399 90.8216 12.4399C87.3752 12.4399 84.4604 15.1195 84.4604 20.4683C84.4604 25.6945 87.2932 28.1286 90.832 28.1286C93.3376 28.1286 94.7388 26.8706 95.3116 25.5718H95.4956V28.4456C95.4956 30.6036 94.1148 31.4422 92.2228 31.4422C90.3 31.4422 89.3284 30.6036 88.9704 29.6525L84.9412 30.1945C85.4628 32.6695 87.8864 34.5718 92.1204 34.5718ZM92.2128 24.8559C90.0752 24.8559 88.9092 23.1581 88.9092 20.4479C88.9092 17.7786 90.0548 15.907 92.2128 15.907C94.3296 15.907 95.516 17.6968 95.516 20.4479C95.516 23.2195 94.3092 24.8559 92.2128 24.8559Z" fill="#EFF2FC"/>
<path d="M109.502 28.6604C114.268 28.6604 117.234 25.3979 117.234 20.5604C117.234 15.6922 114.268 12.4399 109.502 12.4399C104.736 12.4399 101.77 15.6922 101.77 20.5604C101.77 25.3979 104.736 28.6604 109.502 28.6604ZM109.522 25.2854C107.324 25.2854 106.199 23.2706 106.199 20.5297C106.199 17.7888 107.324 15.7638 109.522 15.7638C111.68 15.7638 112.806 17.7888 112.806 20.5297C112.806 23.2706 111.68 25.2854 109.522 25.2854Z" fill="#EFF2FC"/>
<path d="M119.203 28.3535H123.56V12.6444H119.203V28.3535ZM121.392 10.6194C122.69 10.6194 123.754 9.62735 123.754 8.41031C123.754 7.20347 122.69 6.21143 121.392 6.21143C120.103 6.21143 119.039 7.20347 119.039 8.41031C119.039 9.62735 120.103 10.6194 121.392 10.6194Z" fill="#EFF2FC"/>
<path d="M126.186 34.2445H130.542V25.8377H130.676C131.279 27.1468 132.598 28.6093 135.134 28.6093C138.714 28.6093 141.506 25.7763 141.506 20.5195C141.506 15.1195 138.591 12.4399 135.145 12.4399C132.516 12.4399 131.258 14.0047 130.676 15.2831H130.481V12.6445H126.186V34.2445ZM130.45 20.4991C130.45 17.6968 131.637 15.907 133.754 15.907C135.912 15.907 137.057 17.7786 137.057 20.4991C137.057 23.2399 135.891 25.1422 133.754 25.1422C131.657 25.1422 130.45 23.3013 130.45 20.4991Z" fill="#EFF2FC"/>
<path d="M156.617 17.1241C156.228 14.2297 153.897 12.4399 149.928 12.4399C145.909 12.4399 143.26 14.3013 143.27 17.3286C143.26 19.6809 144.743 21.2047 147.812 21.8183L150.532 22.3604C151.902 22.6365 152.526 23.1377 152.547 23.9252C152.526 24.8559 151.514 25.5206 149.99 25.5206C148.435 25.5206 147.402 24.8559 147.136 23.5775L142.851 23.8025C143.26 26.8093 145.817 28.6604 149.98 28.6604C154.05 28.6604 156.965 26.5843 156.975 23.4854C156.965 21.2149 155.482 19.8547 152.434 19.2309L149.591 18.6581C148.128 18.3411 147.586 17.8399 147.597 17.0831C147.586 16.1422 148.65 15.5286 150 15.5286C151.514 15.5286 152.414 16.357 152.628 17.3695L156.617 17.1241Z" fill="#EFF2FC"/>
<path d="M168.928 21.6647C168.939 23.7716 167.496 24.8761 165.932 24.8761C164.285 24.8761 163.222 23.7204 163.211 21.8693V12.6443H158.854V22.6466C158.865 26.3181 161.012 28.5579 164.173 28.5579C166.535 28.5579 168.233 27.3409 168.939 25.5H169.102V28.3534H173.285V12.6443H168.928V21.6647Z" fill="#EFF2FC"/>
<path d="M175.906 28.3536H180.263V18.9241C180.263 17.1854 181.368 16.0297 182.82 16.0297C184.252 16.0297 185.213 17.0115 185.213 18.5559V28.3536H189.437V18.7604C189.437 17.1343 190.368 16.0297 191.953 16.0297C193.344 16.0297 194.387 16.8991 194.387 18.6479V28.3536H198.734V17.7888C198.734 14.3831 196.708 12.4399 193.784 12.4399C191.482 12.4399 189.692 13.6161 189.048 15.4161H188.884C188.384 13.5956 186.778 12.4399 184.62 12.4399C182.503 12.4399 180.897 13.5649 180.242 15.4161H180.058V12.6445H175.906V28.3536Z" fill="#EFF2FC"/>
<path d="M30.05 20.2114C35.5728 20.2114 40.05 15.7343 40.05 10.2114C40.05 4.68858 35.5728 0.211426 30.05 0.211426C24.5271 0.211426 20.05 4.68858 20.05 10.2114C20.05 15.7343 24.5271 20.2114 30.05 20.2114Z" fill="#5FD5F7"/>
<path d="M40.05 20.2114H20.05V40.2114H40.05V20.2114Z" fill="#EB6233"/>
<path d="M52.85 28.3534H66.258V24.7023H57.2784V7.40796H52.85V28.3534Z" fill="#EFF2FC"/>
<path d="M75.3424 28.6604C80.1084 28.6604 83.0744 25.3979 83.0744 20.5604C83.0744 15.6922 80.1084 12.4399 75.3424 12.4399C70.5768 12.4399 67.6108 15.6922 67.6108 20.5604C67.6108 25.3979 70.5768 28.6604 75.3424 28.6604ZM75.3628 25.2854C73.164 25.2854 72.0392 23.2706 72.0392 20.5297C72.0392 17.7888 73.164 15.7638 75.3628 15.7638C77.5208 15.7638 78.646 17.7888 78.646 20.5297C78.646 23.2706 77.5208 25.2854 75.3628 25.2854Z" fill="#EFF2FC"/>
<path d="M92.1204 34.5718C96.6104 34.5718 99.8012 32.5263 99.8012 28.507V12.6445H95.4752V15.2831H95.3116C94.7284 14.0047 93.45 12.4399 90.8216 12.4399C87.3752 12.4399 84.4604 15.1195 84.4604 20.4683C84.4604 25.6945 87.2932 28.1286 90.832 28.1286C93.3376 28.1286 94.7388 26.8706 95.3116 25.5718H95.4956V28.4456C95.4956 30.6036 94.1148 31.4422 92.2228 31.4422C90.3 31.4422 89.3284 30.6036 88.9704 29.6525L84.9412 30.1945C85.4628 32.6695 87.8864 34.5718 92.1204 34.5718ZM92.2128 24.8559C90.0752 24.8559 88.9092 23.1581 88.9092 20.4479C88.9092 17.7786 90.0548 15.907 92.2128 15.907C94.3296 15.907 95.516 17.6968 95.516 20.4479C95.516 23.2195 94.3092 24.8559 92.2128 24.8559Z" fill="#EFF2FC"/>
<path d="M109.502 28.6604C114.268 28.6604 117.234 25.3979 117.234 20.5604C117.234 15.6922 114.268 12.4399 109.502 12.4399C104.736 12.4399 101.77 15.6922 101.77 20.5604C101.77 25.3979 104.736 28.6604 109.502 28.6604ZM109.522 25.2854C107.324 25.2854 106.199 23.2706 106.199 20.5297C106.199 17.7888 107.324 15.7638 109.522 15.7638C111.68 15.7638 112.806 17.7888 112.806 20.5297C112.806 23.2706 111.68 25.2854 109.522 25.2854Z" fill="#EFF2FC"/>
<path d="M119.203 28.3535H123.56V12.6444H119.203V28.3535ZM121.392 10.6194C122.69 10.6194 123.754 9.62735 123.754 8.41031C123.754 7.20347 122.69 6.21143 121.392 6.21143C120.103 6.21143 119.039 7.20347 119.039 8.41031C119.039 9.62735 120.103 10.6194 121.392 10.6194Z" fill="#EFF2FC"/>
<path d="M126.186 34.2445H130.542V25.8377H130.676C131.279 27.1468 132.598 28.6093 135.134 28.6093C138.714 28.6093 141.506 25.7763 141.506 20.5195C141.506 15.1195 138.591 12.4399 135.145 12.4399C132.516 12.4399 131.258 14.0047 130.676 15.2831H130.481V12.6445H126.186V34.2445ZM130.45 20.4991C130.45 17.6968 131.637 15.907 133.754 15.907C135.912 15.907 137.057 17.7786 137.057 20.4991C137.057 23.2399 135.891 25.1422 133.754 25.1422C131.657 25.1422 130.45 23.3013 130.45 20.4991Z" fill="#EFF2FC"/>
<path d="M156.617 17.1241C156.228 14.2297 153.897 12.4399 149.928 12.4399C145.909 12.4399 143.26 14.3013 143.27 17.3286C143.26 19.6809 144.743 21.2047 147.812 21.8183L150.532 22.3604C151.902 22.6365 152.526 23.1377 152.547 23.9252C152.526 24.8559 151.514 25.5206 149.99 25.5206C148.435 25.5206 147.402 24.8559 147.136 23.5775L142.851 23.8025C143.26 26.8093 145.817 28.6604 149.98 28.6604C154.05 28.6604 156.965 26.5843 156.975 23.4854C156.965 21.2149 155.482 19.8547 152.434 19.2309L149.591 18.6581C148.128 18.3411 147.586 17.8399 147.597 17.0831C147.586 16.1422 148.65 15.5286 150 15.5286C151.514 15.5286 152.414 16.357 152.628 17.3695L156.617 17.1241Z" fill="#EFF2FC"/>
<path d="M168.928 21.6647C168.939 23.7716 167.496 24.8761 165.932 24.8761C164.285 24.8761 163.222 23.7204 163.211 21.8693V12.6443H158.854V22.6466C158.865 26.3181 161.012 28.5579 164.173 28.5579C166.535 28.5579 168.233 27.3409 168.939 25.5H169.102V28.3534H173.285V12.6443H168.928V21.6647Z" fill="#EFF2FC"/>
<path d="M175.906 28.3536H180.263V18.9241C180.263 17.1854 181.368 16.0297 182.82 16.0297C184.252 16.0297 185.213 17.0115 185.213 18.5559V28.3536H189.437V18.7604C189.437 17.1343 190.368 16.0297 191.953 16.0297C193.344 16.0297 194.387 16.8991 194.387 18.6479V28.3536H198.734V17.7888C198.734 14.3831 196.708 12.4399 193.784 12.4399C191.482 12.4399 189.692 13.6161 189.048 15.4161H188.884C188.384 13.5956 186.778 12.4399 184.62 12.4399C182.503 12.4399 180.897 13.5649 180.242 15.4161H180.058V12.6445H175.906V28.3536Z" fill="#EFF2FC"/>
</g>
<defs>
<clipPath id="clip0_197_3961">
<rect width="201.2" height="40" fill="white" transform="translate(0.0499878 0.211426)"/>
</clipPath>
</defs>
</svg>
