<svg width="217" height="57" viewBox="0 0 217 57" fill="none" xmlns="http://www.w3.org/2000/svg">
<g clip-path="url(#clip0_197_3930)">
<path d="M72.215 14.6089H67.2V37.2375H81.083V32.8036H72.215V14.6089Z" fill="#EFF2FC"/>
<path d="M81.5619 29.5622C81.5619 34.3938 84.8033 37.6045 89.6959 37.6045C94.5579 37.6045 97.7994 34.3938 97.7994 29.5622C97.7994 24.7307 94.5579 21.4893 89.6959 21.4893C84.8033 21.4893 81.5619 24.7307 81.5619 29.5622ZM86.3016 29.5316C86.3016 27.2382 87.6471 25.7093 89.6959 25.7093C91.7141 25.7093 93.0597 27.2382 93.0597 29.5316C93.0597 31.8557 91.7141 33.3846 89.6959 33.3846C87.6471 33.3846 86.3016 31.8557 86.3016 29.5316Z" fill="#EFF2FC"/>
<path d="M98.5569 29.3176C98.5569 33.935 101.554 37.054 105.804 37.054C107.853 37.054 109.627 36.3202 110.513 35.1276V37.2376C110.513 39.3475 109.198 40.7541 106.874 40.7541C104.795 40.7541 103.358 39.7756 103.266 38.0326H98.4957C98.9238 42.222 102.165 45.0352 106.599 45.0352C111.828 45.0352 115.131 41.641 115.131 36.259V21.948H110.88L110.636 23.5075C109.779 22.2538 107.975 21.4282 105.896 21.4282C101.615 21.4282 98.5569 24.639 98.5569 29.3176ZM103.327 29.1953C103.327 26.9935 104.795 25.5257 106.66 25.5257C108.831 25.5257 110.422 26.963 110.422 29.1953C110.422 31.4276 108.862 32.9565 106.691 32.9565C104.826 32.9565 103.327 31.4276 103.327 29.1953Z" fill="#EFF2FC"/>
<path d="M116.503 29.5622C116.503 34.3938 119.745 37.6045 124.637 37.6045C129.499 37.6045 132.741 34.3938 132.741 29.5622C132.741 24.7307 129.499 21.4893 124.637 21.4893C119.745 21.4893 116.503 24.7307 116.503 29.5622ZM121.243 29.5316C121.243 27.2382 122.588 25.7093 124.637 25.7093C126.655 25.7093 128.001 27.2382 128.001 29.5316C128.001 31.8557 126.655 33.3846 124.637 33.3846C122.588 33.3846 121.243 31.8557 121.243 29.5316Z" fill="#EFF2FC"/>
<path d="M136.801 19.5628C138.269 19.5628 139.461 18.3701 139.461 16.8718C139.461 15.3734 138.269 14.2114 136.801 14.2114C135.302 14.2114 134.11 15.3734 134.11 16.8718C134.11 18.3701 135.302 19.5628 136.801 19.5628ZM134.416 37.2375H139.156V21.948H134.416V37.2375Z" fill="#EFF2FC"/>
<path d="M141.915 44.5765H146.563V35.7086C147.449 36.8706 149.468 37.6657 151.578 37.6657C156.134 37.6657 158.886 34.1797 158.764 29.3482C158.641 24.4249 155.798 21.4587 151.547 21.4587C149.376 21.4587 147.328 22.4067 146.471 23.8134L146.226 21.948H141.915V44.5765ZM146.654 29.5927C146.654 27.2994 148.183 25.7705 150.385 25.7705C152.617 25.7705 154.024 27.3299 154.024 29.5927C154.024 31.8557 152.617 33.4152 150.385 33.4152C148.183 33.4152 146.654 31.8862 146.654 29.5927Z" fill="#EFF2FC"/>
<path d="M159.265 32.406C159.387 35.4946 161.834 37.635 165.687 37.635C169.387 37.635 171.956 35.678 171.956 32.5284C171.956 30.2656 170.611 28.7672 168.102 28.1555L165.382 27.4828C164.403 27.2382 163.792 26.9935 163.792 26.1984C163.792 25.4034 164.433 24.8836 165.382 24.8836C166.452 24.8836 167.154 25.5869 167.125 26.6266H171.375C171.252 23.4463 168.837 21.4587 165.473 21.4587C162.079 21.4587 159.541 23.477 159.541 26.5349C159.541 28.5836 160.672 30.2656 163.699 31.0606L166.39 31.7639C167.185 31.9779 167.521 32.3449 167.521 32.8647C167.521 33.6292 166.818 34.1185 165.626 34.1185C164.249 34.1185 163.516 33.4763 163.516 32.406H159.265Z" fill="#EFF2FC"/>
<path d="M179.164 37.635C181.03 37.635 182.895 36.7788 183.842 35.5251L184.149 37.2375H188.583V21.948H183.873V29.8986C183.873 32.1919 183.201 33.4456 181.03 33.4456C179.347 33.4456 178.247 32.6812 178.247 29.8374V21.948H173.537V31.5498C173.537 35.1888 175.556 37.635 179.164 37.635Z" fill="#EFF2FC"/>
<path d="M196.05 37.2376V28.8895C196.05 26.3208 197.427 25.5869 198.772 25.5869C200.27 25.5869 201.249 26.5043 201.249 28.4002V37.2376H205.897V28.8895C205.897 26.2903 207.242 25.5564 208.587 25.5564C210.085 25.5564 211.095 26.4737 211.095 28.4002V37.2376H215.683V27.2382C215.683 23.7522 213.847 21.4282 209.902 21.4282C207.701 21.4282 205.897 22.4984 205.101 24.1497C204.184 22.4984 202.594 21.4282 200.056 21.4282C198.374 21.4282 196.815 22.1926 195.898 23.4158L195.714 21.948H191.31V37.2376H196.05Z" fill="#EFF2FC"/>
<path d="M0 28.2114C0 15.0121 0 8.41243 4.1005 4.31193C8.201 0.211426 14.8007 0.211426 28 0.211426C41.1993 0.211426 47.7989 0.211426 51.8995 4.31193C56 8.41243 56 15.0121 56 28.2114C56 41.4108 56 48.0104 51.8995 52.111C47.7989 56.2114 41.1993 56.2114 28 56.2114C14.8007 56.2114 8.201 56.2114 4.1005 52.111C0 48.0104 0 41.4108 0 28.2114Z" fill="#303549"/>
<path d="M33.6 36.6113C34.3732 36.6113 35.0141 37.2443 34.8606 38.0021C34.5891 39.3405 33.9297 40.581 32.9497 41.561C31.6371 42.8738 29.8565 43.6113 28 43.6113C26.1435 43.6113 24.3631 42.8738 23.0503 41.561C22.0703 40.581 21.4109 39.3405 21.1396 38.0021C20.9859 37.2443 21.6268 36.6113 22.4 36.6113H33.6Z" fill="#6FD6B7"/>
<path d="M36.5432 25.0985C35.7963 25.2985 35.3389 26.0799 35.7176 26.754C36.1162 27.4635 36.6675 28.0827 37.3383 28.5633C38.3913 29.3179 39.6735 29.6842 40.9664 29.5993C42.2591 29.5146 43.4826 28.9843 44.4281 28.0987C45.3738 27.213 45.983 26.0268 46.1521 24.7423C46.3212 23.4578 46.0398 22.1544 45.3556 21.0542C44.6715 19.954 43.6269 19.1251 42.4001 18.7086C41.1733 18.2921 39.8401 18.3139 38.6275 18.7703C37.8553 19.061 37.1626 19.5164 36.5939 20.0985C36.0536 20.6517 36.2932 21.5248 36.9628 21.9114L37.673 22.3214C38.7531 22.9451 38.5402 24.5634 37.3353 24.8862L36.5432 25.0985Z" fill="#6FD6B7"/>
<path d="M19.4569 25.0985C20.2038 25.2985 20.6612 26.0799 20.2825 26.754C19.8839 27.4635 19.3326 28.0827 18.662 28.5633C17.6089 29.3179 16.3267 29.6842 15.0339 29.5993C13.741 29.5146 12.5176 28.9843 11.572 28.0987C10.6264 27.213 10.0171 26.0268 9.848 24.7423C9.67889 23.4578 9.96039 22.1544 10.6446 21.0542C11.3287 19.954 12.3732 19.1251 13.6 18.7086C14.8268 18.2921 16.1602 18.3139 17.3727 18.7703C18.1448 19.061 18.8377 19.5164 19.4064 20.0985C19.9466 20.6517 19.707 21.5248 19.0373 21.9114L18.3271 22.3214C17.247 22.9451 17.4601 24.5634 18.6648 24.8862L19.4569 25.0985Z" fill="#6FD6B7"/>
</g>
<defs>
<clipPath id="clip0_197_3930">
<rect width="217" height="56" fill="white" transform="translate(0 0.211426)"/>
</clipPath>
</defs>
</svg>
